<?xml version="1.0" encoding="iso-8859-1"?>
<!-- Generator: Adobe Illustrator 19.0.1, SVG Export Plug-In . SVG Version: 6.00 Build 0)  -->
<svg version="1.1" xmlns="http://www.w3.org/2000/svg" xmlns:xlink="http://www.w3.org/1999/xlink" x="0px" y="0px"
	 viewBox="0 0 94.601 116.067" enable-background="new 0 0 94.601 116.067" xml:space="preserve">
<g id="_x31_-_Blue_Dog">
	<g id="Layer_2" display="none" opacity="0.4">
	</g>
</g>
<g id="_x32_-_Options">
	<g id="medication">
	</g>
	<g id="talking">
	</g>
	<g id="practical">
		<g id="mirror_2_">
		</g>
	</g>
</g>
<g id="_x33_-_Practical_Intro">
	<g id="List">
	</g>
</g>
<g id="_x34_-_Practical_List">
</g>
<g id="_x35_-_Support_Locations">
</g>
<g id="_x36_-Shy_Dog">
</g>
<g id="_x37_-Better_Dog">
</g>
<g id="_x38_-Therapist_Dog">
</g>
<g id="_x39_-_Therapy_Details">
	<g id="text_6_">
	</g>
	<g id="grandad_dog">
	</g>
	<g id="puppy">
	</g>
	<g id="mum_dog">
	</g>
	<g id="girl_hair_1_">
		<path fill="#FFE57F" d="M41.112,1.792c-2.35,0.007-4.306,2-6.023,3.876c-2.182,2.384-4.384,4.796-6.044,7.699
			c-0.486,0.85-0.927,1.744-1.523,2.491c-0.802,1.006-1.845,1.696-2.761,2.558c-1.841,1.733-3.134,4.118-4.392,6.457
			c-0.844,1.568-1.694,3.152-2.232,4.895c-0.385,1.248-0.605,2.559-0.97,3.815c-1.565,5.378-5.667,9.361-7.168,14.764
			c-0.766,2.757-0.805,5.731-1.531,8.503c-0.891,3.402-2.795,6.417-3.277,9.93c0.92,0.161,1.902-0.347,2.419-1.252
			c-1.806,4.764-3.612,9.527-5.418,14.291c2.138-0.299,3.725-2.378,5.1-4.316C5.592,82.419,3.135,89.081,0,95.273
			c1.978-0.053,3.9-1.353,4.925-3.332c0.05,1.149,0.1,2.299,0.15,3.448c0.906-0.128,1.556-1.05,2.1-1.907
			c2.728-4.3,5.28-8.752,7.644-13.336c-0.157,2.094-0.67,4.151-1.501,6.015c3.238-2.016,4.462-6.627,5.388-10.779
			c1.345-6.028,2.689-12.055,4.034-18.083c0.184,0.53,0.598,0.943,1.074,1.073c1.145-1.872,1.872-4.043,2.559-6.201
			c4.599-14.436,8.133-29.767,16.272-41.88c0.818-1.218,1.692-2.421,2.196-3.853c0.504-1.433,0.578-3.176-0.173-4.453
			c-0.973-1.655-3.281-1.908-4.499-0.492"/>
		<path fill="#FFE57F" d="M52.012,8.238c5.274,0.579,10.105,4.474,13.219,9.752c3.114,5.277,4.618,11.815,4.931,18.329
			c0.058,1.214,0.111,2.539,0.764,3.451c0.233-0.284,0.466-0.567,0.699-0.851c0.827,9.582,3.509,18.913,7.761,26.999
			c-1.21-2.194-1.547-5.084-0.887-7.609c0.037,3.649,0.084,7.371,1.05,10.821c0.758,2.709,2.052,5.134,3.333,7.526
			c2.503,4.676,5.006,9.352,7.508,14.027c-1.025-2.711-1.588-5.651-1.466-8.638c1.767,0.971,3.765,1.294,5.676,0.916
			c-2.54-5.732-3.917-12.24-3.973-18.77c0.894,0.871,1.968,1.456,3.092,1.684c-2.921-7.189-5.289-14.696-7.654-22.189
			c-0.44-1.396-0.881-2.792-1.321-4.188c-1.533-4.86-3.067-9.721-4.487-14.633c0.555,0.412,1.109,0.825,1.664,1.237
			c-1.227-2.27-2.455-4.541-3.682-6.811c-0.65-1.202-1.303-2.41-2.089-3.482c-2.085-2.847-4.968-4.576-7.788-6.197
			c-3.163-1.818-6.421-3.614-9.897-3.997C55.978,5.341,53.284,5.906,51.453,8"/>
		<path fill="#FFC400" d="M33.734,34.062c5.237-6.334,12.218-12.336,15.841-21.016c0.034-0.064,0.068-0.128,0.101-0.193
			c1.516,3.417,3.032,6.834,4.548,10.251c1.191,2.684,3.268,5.007,5.01,7.208c1.742,2.2,4.229,3.019,6.75,3
			c0.174,3.677,0.076,9.823,0.25,13.5c0.359,7.582,0.05,14.136,2.692,21.028c1.821,4.75,4.691,9.032,5.431,14.189
			c0.273,1.9,0.24,3.842,0.332,5.767c0.444,9.364,3.959,18.465,9.612,24.893c-0.347-5.516,0.087-11.102,1.276-16.444
			c0.566,0.969,1.133,1.937,1.699,2.906c0.163-2.75-0.756-5.399-1.49-8.01c-2.016-7.18-2.711-14.896-2.02-22.432
			c0.739,1.188,2.001,1.868,3.226,1.738c0.318-2.341-0.794-4.57-1.74-6.649c-2.586-5.685-4.22-12-4.774-18.453
			c0.958,0.508,2.031,0.7,3.07,0.547c0.307-1.818-0.764-3.508-1.721-4.958c-1.865-2.827-3.547-5.831-5.025-8.975
			c-0.7-1.489-1.36-3.029-1.695-4.694c-0.235-1.169-0.306-2.383-0.592-3.535c-0.481-1.94-1.618-3.584-2.652-5.179
			C70.98,17.189,70,15.831,69,14.587c0-0.005,0-0.009,0-0.014c0-2.862-1.603-5.284-3.131-7.473c-0.585-0.838-1.14-1.688-1.892-2.304
			c-1.591-1.303-3.617-1.386-5.437-2.131c-1.274-0.522-2.443-1.378-3.755-1.742c-2.402-0.666-4.94,0.395-7.359-0.171
			c-0.953-0.223-1.868-0.696-2.837-0.749c-2.047-0.111-3.806,1.622-5.345,3.256c-3.317,3.522-6.831,6.893-9.995,10.614
			c-1.028,1.209-1.571,2.491-2.384,3.87c-0.997,1.691-2.491,2.866-3.337,4.702c-1.204,2.614-0.864,5.826-1.306,8.769
			c-0.395,2.634-1.424,5.057-2.149,7.587c-0.761,2.656-1.186,5.45-1.263,8.259c-0.071,2.56,0.371,4.316-0.577,6.668
			c-0.878,2.179-1.989,4.214-2.824,6.419c-0.339,0.895-0.945,5.706-1.29,6.013c0.864-0.77,1.728-1.541,2.592-2.311
			c-0.919,3.456-2.195,6.775-3.788,9.853c-1.393,2.692-3.097,5.477-2.969,8.648c0.655,0.191,1.31,0.382,1.964,0.573
			c-0.99,7.432-3.436,14.575-7.082,20.681c1.743,0.159,3.528-0.468,4.928-1.731c-0.412,4.925-1.752,9.733-3.888,13.957
			c1.114,0.747,2.419-0.415,3.32-1.502c4.607-5.551,9.29-11.751,10.394-19.498c-0.024,3.884-0.754,7.759-2.124,11.273
			c0.572,0.625,1.415-0.249,1.821-1.042c3.486-6.818,5.941-14.403,7.205-22.27c1.532,0.075,4.115-10.488,4.863-12.105
			C34.296,57.25,32.041,49.368,33.734,34.062z"/>
	</g>
</g>
<g id="_x31_0-Combining_Therapies">
	<g id="text_7_">
	</g>
	<g id="Isometric_Grid">
	</g>
	<g id="chair_3_">
	</g>
</g>
<g id="_x31_1-Medication_Script">
</g>
<g id="_x31_2-Dog_With_Medication">
</g>
<g id="_x31_3-Medication_Check_Ups">
</g>
<g id="_x31_4-Medication_Side_Effects">
	<g id="shy_dog_1_">
	</g>
</g>
</svg>
