<?xml version="1.0" encoding="iso-8859-1"?>
<!-- Generator: Adobe Illustrator 19.0.1, SVG Export Plug-In . SVG Version: 6.00 Build 0)  -->
<svg version="1.1" xmlns="http://www.w3.org/2000/svg" xmlns:xlink="http://www.w3.org/1999/xlink" x="0px" y="0px"
	 viewBox="0 0 19.302 9.798" enable-background="new 0 0 19.302 9.798" xml:space="preserve">
<g id="_x31_-_Blue_Dog">
	<g id="Layer_2" display="none" opacity="0.4">
	</g>
</g>
<g id="_x32_-_Options">
	<g id="medication">
	</g>
	<g id="talking">
	</g>
	<g id="practical">
		<g id="mirror_2_">
		</g>
	</g>
</g>
<g id="_x33_-_Practical_Intro">
	<g id="dog-side_2_">
	</g>
	<g id="List">
	</g>
</g>
<g id="_x34_-_Practical_List">
</g>
<g id="_x35_-_Support_Locations">
</g>
<g id="_x36_-Shy_Dog">
</g>
<g id="_x37_-Better_Dog">
</g>
<g id="_x38_-Therapist_Dog">
</g>
<g id="_x39_-_Therapy_Details">
	<g id="text_6_">
	</g>
	<g id="grandad_dog">
	</g>
	<g id="puppy">
		<g id="cool_hat_1_">
			<g>
				<path fill="#EF9A9A" d="M9.657,0C5.533,0,2.015,3.784,0.586,9.126c0.582-0.377,1.203-0.715,1.855-1.015
					C3.745,3.313,6.482,0,9.657,0z"/>
				<path fill="#EF9A9A" d="M16.941,8.368c0.667,0.338,1.295,0.719,1.881,1.14C17.461,3.966,13.877,0,9.657,0
					C12.888,0,15.666,3.431,16.941,8.368z"/>
				<path fill="#FFAB91" d="M2.441,8.111C3.063,7.825,3.716,7.58,4.393,7.372C5.427,2.975,7.395,0,9.657,0
					C6.482,0,3.745,3.313,2.441,8.111z"/>
				<path fill="#FFAB91" d="M14.958,7.518c0.694,0.238,1.352,0.529,1.984,0.849C15.666,3.431,12.888,0,9.657,0
					C11.944,0,13.934,3.039,14.958,7.518z"/>
				<path fill="#FFE082" d="M13.362,7.07c0.545,0.127,1.08,0.272,1.596,0.449C13.934,3.039,11.944,0,9.657,0
					C11.234,0,12.61,2.842,13.362,7.07z"/>
				<path fill="#FFE082" d="M4.393,7.372c0.512-0.158,1.038-0.291,1.577-0.4C6.725,2.799,8.091,0,9.657,0
					C7.395,0,5.427,2.975,4.393,7.372z"/>
				<path fill="#FFF59D" d="M5.969,6.972c0.34-0.069,0.683-0.13,1.033-0.179C7.556,2.719,8.536,0,9.657,0
					C8.091,0,6.725,2.799,5.969,6.972z"/>
				<path fill="#FFF59D" d="M12.319,6.853c0.354,0.059,0.699,0.136,1.043,0.217C12.61,2.842,11.234,0,9.657,0
					C10.783,0,11.767,2.746,12.319,6.853z"/>
				<path fill="#C5E1A5" d="M11.538,6.754c0.261,0.032,0.525,0.056,0.781,0.099C11.767,2.746,10.783,0,9.657,0
					C10.45,0,11.144,2.701,11.538,6.754z"/>
				<path fill="#C5E1A5" d="M7.002,6.793C7.26,6.757,7.518,6.722,7.781,6.697C8.175,2.676,8.867,0,9.657,0
					C8.536,0,7.556,2.719,7.002,6.793z"/>
				<path fill="#80CBC4" d="M10.842,6.671c0.236,0.019,0.464,0.055,0.696,0.083C11.144,2.701,10.45,0,9.657,0
					C10.155,0,10.592,2.664,10.842,6.671z"/>
				<path fill="#80CBC4" d="M7.781,6.697c0.228-0.021,0.46-0.032,0.692-0.045C8.723,2.656,9.159,0,9.657,0
					C8.867,0,8.175,2.676,7.781,6.697z"/>
				<path fill="#81D4FA" d="M8.472,6.652c0.203-0.011,0.407-0.021,0.612-0.025C9.205,2.644,9.416,0,9.657,0
					C9.159,0,8.723,2.656,8.472,6.652z"/>
				<path fill="#81D4FA" d="M10.23,6.646c0.204,0.009,0.411,0.009,0.613,0.025C10.592,2.664,10.155,0,9.657,0
					C9.897,0,10.108,2.653,10.23,6.646z"/>
				<path fill="#9FA8DA" d="M9.084,6.627C9.2,6.625,9.313,6.613,9.43,6.613c0.27,0,0.534,0.021,0.8,0.033
					C10.108,2.653,9.897,0,9.657,0C9.416,0,9.205,2.644,9.084,6.627z"/>
			</g>
			<path fill="#FFFFFF" d="M19.302,9.798c-2.715-2.197-7.187-3.517-10.598-3.517C5.293,6.281,2.715,7.317,0,9.514
				c3.495-0.715,6.155-1.002,8.704-0.955C11.726,8.674,16.132,9.139,19.302,9.798z"/>
		</g>
	</g>
</g>
<g id="_x31_0-Combining_Therapies">
	<g id="text_7_">
	</g>
	<g id="Isometric_Grid">
	</g>
	<g id="chair_3_">
	</g>
</g>
<g id="_x31_1-Medication_Script">
</g>
<g id="_x31_2-Dog_With_Medication">
</g>
<g id="_x31_3-Medication_Check_Ups">
</g>
<g id="_x31_4-Medication_Side_Effects">
	<g id="shy_dog_1_">
	</g>
</g>
</svg>
