<?xml version="1.0" encoding="iso-8859-1"?>
<!-- Generator: Adobe Illustrator 19.0.1, SVG Export Plug-In . SVG Version: 6.00 Build 0)  -->
<svg version="1.1" xmlns="http://www.w3.org/2000/svg" xmlns:xlink="http://www.w3.org/1999/xlink" x="0px" y="0px"
	 viewBox="0 0 13.008 8.391" enable-background="new 0 0 13.008 8.391" xml:space="preserve">
<g id="_x31_-_Blue_Dog">
	<g id="Layer_2" display="none" opacity="0.4">
	</g>
</g>
<g id="_x32_-_Options">
	<g id="medication">
	</g>
	<g id="talking">
	</g>
	<g id="practical">
		<g id="mirror_2_">
		</g>
	</g>
</g>
<g id="_x33_-_Practical_Intro">
	<g id="dog-side_2_">
	</g>
	<g id="List">
	</g>
</g>
<g id="_x34_-_Practical_List">
</g>
<g id="_x35_-_Support_Locations">
</g>
<g id="_x36_-Shy_Dog">
</g>
<g id="_x37_-Better_Dog">
</g>
<g id="_x38_-Therapist_Dog">
</g>
<g id="_x39_-_Therapy_Details">
	<g id="text_6_">
	</g>
	<g id="grandad_dog">
		<path id="hair_3_" fill="#FFFFFF" d="M5.186,8.237C4.226,5.509,2.079,3.396,0,1.386C1.522,1.994,2.887,2.99,3.931,4.254
			c0.302-1.179,0.604-2.359,0.906-3.538C5.037,2.203,5.425,3.663,5.99,5.052c0.621-1.455,1.271-2.898,1.948-4.328
			C8.227,1.732,8.377,2.78,8.38,3.828C9.563,2.156,11.016,0.474,13.008,0c-0.789,1.485-1.827,2.838-3.057,3.985
			c0.931-0.416,1.91-0.725,2.911-0.919c-0.78,0.39-1.215,1.227-1.599,2.01c-0.304,0.62-0.607,1.239-0.911,1.859
			c-0.078,0.16-0.162,0.326-0.304,0.433C9.945,7.446,9.818,7.486,9.693,7.525C9.145,7.694,8.596,7.863,8.047,8.032
			C7.052,8.338,5.911,8.63,5.022,8.088"/>
	</g>
</g>
<g id="_x31_0-Combining_Therapies">
	<g id="text_7_">
	</g>
	<g id="Isometric_Grid">
	</g>
	<g id="chair_3_">
	</g>
</g>
<g id="_x31_1-Medication_Script">
</g>
<g id="_x31_2-Dog_With_Medication">
</g>
<g id="_x31_3-Medication_Check_Ups">
</g>
<g id="_x31_4-Medication_Side_Effects">
	<g id="shy_dog_1_">
	</g>
</g>
</svg>
