<svg xmlns="http://www.w3.org/2000/svg" viewBox="0 0 23.878 10.537" enable-background="new 0 0 23.878 10.537"><g><path fill="#6D4C41" d="M19.73 7.7c.06.27.05 2.22 0 2.5-.54-.34-2.22-2.57-2.8-2.66-.23-.04.54 2.26.7 2.57-3.1-1.55-6.55-2.6-9.43-.26-.12-.27 1.02-2.2 1.07-2.5-.92.25-3.03 2.08-3.95 2.34.18-.4.6-1.78.57-2.27-1.15.4-2.65 1.54-3.83 1.6.14-.46 1.2-2.26 1.45-2.6C2.62 6.57.88 8.1 0 8.24.94 5.76.96 1.93 2.58.65S7.4.65 9.15.02L8.85 0c2.38.17 4.77.34 7.16.5.64.06 1.27.1 1.9.34 2.2.85 4.14-.33 5.52 2.6.4.84.4 6.04.46 7.1L19.73 7.7z"/></g></svg>