<?xml version="1.0" encoding="iso-8859-1"?>
<!-- Generator: Adobe Illustrator 19.0.1, SVG Export Plug-In . SVG Version: 6.00 Build 0)  -->
<svg version="1.1" xmlns="http://www.w3.org/2000/svg" xmlns:xlink="http://www.w3.org/1999/xlink" x="0px" y="0px"
	 viewBox="0 0 74.516 84.759" enable-background="new 0 0 74.516 84.759" xml:space="preserve">
<g id="_x31_-_Blue_Dog">
	<g id="Layer_2" display="none" opacity="0.4">
	</g>
</g>
<g id="_x32_-_Options">
	<g id="medication">
	</g>
	<g id="talking">
	</g>
	<g id="practical">
		<g id="mirror_2_">
		</g>
	</g>
</g>
<g id="_x33_-_Practical_Intro">
	<g id="List">
	</g>
</g>
<g id="_x34_-_Practical_List">
</g>
<g id="_x35_-_Support_Locations">
</g>
<g id="_x36_-Shy_Dog">
</g>
<g id="_x37_-Better_Dog">
</g>
<g id="_x38_-Therapist_Dog">
</g>
<g id="_x39_-_Therapy_Details">
	<g id="text_6_">
	</g>
	<g id="grandad_dog">
	</g>
	<g id="puppy">
	</g>
	<g id="mum_dog">
	</g>
	<path fill="#004D40" d="M7.735,83.844c19.103-3.434,38.725-0.481,58.122-1.149c0.823-0.028,1.68-0.073,2.397-0.477
		c0.679-0.384,1.15-1.045,1.571-1.702c3.323-5.181,4.974-11.416,4.651-17.563c-0.358-6.802-3.035-13.266-4.046-20.002
		c-0.46-3.063-0.573-6.169-0.957-9.243c-0.533-4.263-1.583-8.442-2.632-12.608c-1.346-5.349-2.692-10.697-4.037-16.046
		c-0.208-0.828-0.423-1.671-0.876-2.394c-1.382-2.203-4.389-2.574-6.988-2.66c-6.227-0.208-10.95,63.785-17.175,64.054
		C31.839,64.311,24.412,0.829,18.496,1.226c-2.954,0.199-6.155,0.499-8.333,2.503C8.864,4.924,8.101,6.589,7.535,8.26
		C4.921,15.977,5.88,24.39,5.011,32.49c-0.773,7.202-2.997,14.167-4.215,21.307S-0.554,68.59,2.65,75.086
		c1.265,2.566,3.043,4.944,3.613,7.748c0.119,0.587,0.262,1.289,0.819,1.509c0.314,0.124,0.667,0.046,0.995-0.033
		c0.981-0.236,1.963-0.473,2.944-0.709"/>
	<path fill="#00796B" d="M15.458,83.406c-1.345-3.864-2.747-7.709-4.031-11.594c-1.239-3.751-2.773-7.655-2.788-11.622
		c-0.007-1.797-0.326-3.577-0.466-5.371C7.781,49.76,7.618,44.657,8.199,39.605c0.241-2.091,0.163-4.266,0.829-6.286
		c0.772-2.342,2.673-3.866,5.066-4.383c1.634-0.354,4.552-0.545,6.038,0.385c0.988,0.619,1.474,1.788,1.786,2.911
		c1.377,4.965,3.399,9.697,4.528,14.776c1.103,4.963,1.621,10.028,2.196,15.072c0.572,5.014,1.476,9.98,2.313,14.963
		c0.196,1.169,1.055,3.391,0.339,4.448c-0.298,0.441-0.873,0.581-1.395,0.682c-4.744,0.921-9.563,1.452-14.393,1.586"/>
	<path fill="#00796B" d="M59.936,84.406c1.345-3.864,2.747-7.709,4.031-11.594c1.239-3.751,2.773-7.655,2.788-11.622
		c0.007-1.797,0.326-3.577,0.466-5.371c0.393-5.059,0.556-10.162-0.025-15.214c-0.241-2.091-0.163-4.266-0.829-6.286
		c-0.772-2.342-2.673-3.866-5.066-4.383c-1.634-0.354-4.552-0.545-6.038,0.385c-0.988,0.619-1.474,1.788-1.786,2.911
		c-1.377,4.965-3.399,9.697-4.528,14.776c-1.103,4.963-1.621,10.028-2.196,15.072c-0.572,5.014-1.476,9.98-2.313,14.963
		c-0.196,1.169-1.055,3.391-0.339,4.448c0.298,0.441,0.873,0.581,1.395,0.682c4.744,0.921,9.563,1.452,14.393,1.586"/>
</g>
<g id="_x31_0-Combining_Therapies">
	<g id="text_7_">
	</g>
	<g id="Isometric_Grid">
	</g>
	<g id="chair_3_">
	</g>
</g>
<g id="_x31_1-Medication_Script">
</g>
<g id="_x31_2-Dog_With_Medication">
</g>
<g id="_x31_3-Medication_Check_Ups">
</g>
<g id="_x31_4-Medication_Side_Effects">
	<g id="shy_dog_1_">
	</g>
</g>
</svg>
