<?xml version="1.0" encoding="iso-8859-1"?>
<!-- Generator: Adobe Illustrator 19.0.1, SVG Export Plug-In . SVG Version: 6.00 Build 0)  -->
<svg version="1.1" xmlns="http://www.w3.org/2000/svg" xmlns:xlink="http://www.w3.org/1999/xlink" x="0px" y="0px"
	 viewBox="0 0 23.878 10.537" enable-background="new 0 0 23.878 10.537" xml:space="preserve">
<g id="_x31_-_Blue_Dog">
	<g id="Layer_2" display="none" opacity="0.4">
	</g>
</g>
<g id="_x32_-_Options">
	<g id="medication">
	</g>
	<g id="talking">
	</g>
	<g id="practical">
		<g id="mirror_2_">
		</g>
	</g>
</g>
<g id="_x33_-_Practical_Intro">
	<g id="dog-side_2_">
	</g>
	<g id="List">
	</g>
</g>
<g id="_x34_-_Practical_List">
</g>
<g id="_x35_-_Support_Locations">
</g>
<g id="_x36_-Shy_Dog">
</g>
<g id="_x37_-Better_Dog">
</g>
<g id="_x38_-Therapist_Dog">
</g>
<g id="_x39_-_Therapy_Details">
	<g id="text_6_">
	</g>
	<path id="moustache_3_" fill="#6D4C41" d="M19.728,7.704c0.066,0.267,0.056,2.215,0,2.488c-0.536-0.337-2.219-2.566-2.792-2.655
		c-0.237-0.037,0.531,2.267,0.68,2.568c-3.076-1.554-6.537-2.595-9.421-0.268C8.083,9.571,9.224,7.644,9.269,7.329
		C8.345,7.585,6.24,9.423,5.316,9.678c0.18-0.389,0.602-1.781,0.578-2.265c-1.146,0.401-2.648,1.531-3.82,1.596
		C2.209,8.54,3.272,6.741,3.519,6.413C2.634,6.56,0.885,8.087,0,8.234C0.938,5.756,0.964,1.919,2.579,0.65S7.4,0.64,9.153,0.025
		L8.841,0c2.391,0.171,4.782,0.342,7.173,0.513c0.628,0.045,1.261,0.091,1.872,0.327c2.209,0.853,4.156-0.33,5.532,2.597
		c0.395,0.84,0.411,6.047,0.459,7.101L19.728,7.704z"/>
</g>
<g id="_x31_0-Combining_Therapies">
	<g id="text_7_">
	</g>
	<g id="Isometric_Grid">
	</g>
	<g id="chair_3_">
	</g>
</g>
<g id="_x31_1-Medication_Script">
</g>
<g id="_x31_2-Dog_With_Medication">
</g>
<g id="_x31_3-Medication_Check_Ups">
</g>
<g id="_x31_4-Medication_Side_Effects">
	<g id="shy_dog_1_">
	</g>
</g>
</svg>
