<svg xmlns="http://www.w3.org/2000/svg" viewBox="0 0 94.601 116.067" enable-background="new 0 0 94.601 116.067"><g><g><path fill="#FFE57F" d="M41.1 1.8c-2.34 0-4.3 2-6 3.87-2.2 2.38-4.4 4.8-6.06 7.7-.48.85-.92 1.74-1.52 2.5-.8 1-1.84 1.68-2.76 2.55-1.84 1.73-3.13 4.1-4.4 6.45-.83 1.57-1.68 3.16-2.22 4.9-.4 1.25-.6 2.56-.97 3.8-1.57 5.4-5.67 9.37-7.17 14.78-.77 2.75-.8 5.73-1.53 8.5-.9 3.4-2.8 6.42-3.28 9.93.9.16 1.9-.35 2.4-1.25-1.8 4.76-3.6 9.53-5.4 14.3 2.13-.3 3.72-2.4 5.1-4.33C5.6 82.42 3.12 89.08 0 95.27c1.98-.05 3.9-1.35 4.92-3.33.05 1.15.1 2.3.15 3.45.9-.14 1.56-1.06 2.1-1.92 2.73-4.3 5.3-8.75 7.65-13.33-.16 2.1-.67 4.15-1.5 6 3.24-2 4.46-6.62 5.4-10.77 1.33-6.03 2.68-12.05 4.02-18.08.18.53.6.94 1.07 1.07 1.16-1.87 1.9-4.04 2.57-6.2 4.6-14.43 8.14-29.77 16.28-41.88.8-1.23 1.7-2.43 2.2-3.86.5-1.43.57-3.18-.18-4.45-.98-1.67-3.28-1.92-4.5-.5M52 8.24c5.3.58 10.12 4.47 13.23 9.75 3.1 5.27 4.62 11.8 4.93 18.32.06 1.2.1 2.54.77 3.45.23-.28.46-.57.7-.85.82 9.58 3.5 18.9 7.76 27-1.22-2.2-1.56-5.1-.9-7.6.04 3.64.08 7.36 1.05 10.8.76 2.72 2.05 5.14 3.33 7.54 2.5 4.67 5 9.35 7.5 14.02-1.02-2.7-1.58-5.65-1.46-8.63 1.77.97 3.77 1.3 5.68.9-2.54-5.72-3.92-12.23-3.97-18.76.9.86 1.96 1.45 3.1 1.67-2.93-7.18-5.3-14.7-7.67-22.18-.44-1.4-.88-2.8-1.32-4.2-1.53-4.86-3.06-9.72-4.48-14.64.55.42 1.1.83 1.66 1.24-1.23-2.27-2.45-4.54-3.68-6.8-.65-1.2-1.3-2.42-2.1-3.5-2.08-2.84-4.96-4.57-7.78-6.2-3.16-1.8-6.42-3.6-9.9-4-2.48-.26-5.18.3-7 2.4"/><path fill="#FFC400" d="M33.73 34.06c5.24-6.33 12.22-12.33 15.85-21 .03-.08.06-.14.1-.2 1.5 3.4 3.03 6.83 4.54 10.24 1.2 2.7 3.27 5 5 7.2 1.76 2.2 4.24 3.03 6.76 3 .18 3.7.08 9.84.25 13.5.36 7.6.05 14.15 2.7 21.04 1.82 4.75 4.7 9.03 5.43 14.2.27 1.9.24 3.83.33 5.76.43 9.36 3.95 18.46 9.6 24.9-.35-5.53.1-11.1 1.28-16.46.56.97 1.13 1.94 1.7 2.9.16-2.74-.76-5.4-1.5-8-2-7.18-2.7-14.9-2-22.43.73 1.2 2 1.88 3.2 1.75.33-2.34-.78-4.57-1.73-6.65-2.58-5.7-4.22-12-4.77-18.46.96.5 2.03.7 3.07.55.3-1.83-.77-3.52-1.72-4.97-1.87-2.82-3.55-5.83-5.03-8.97-.7-1.5-1.36-3.03-1.7-4.7-.23-1.16-.3-2.38-.58-3.53-.5-1.94-1.62-3.58-2.66-5.18C70.98 17.2 70 15.83 69 14.6c0-.02 0-.02 0-.03 0-2.86-1.6-5.28-3.13-7.47-.6-.84-1.14-1.7-1.9-2.3-1.58-1.3-3.6-1.4-5.43-2.13C57.27 2.14 56.1 1.3 54.8.92c-2.42-.66-4.96.4-7.37-.17-.96-.22-1.87-.7-2.84-.75-2.06-.1-3.82 1.63-5.36 3.26-3.3 3.52-6.83 6.9-10 10.6-1.02 1.22-1.56 2.5-2.38 3.88-1 1.7-2.5 2.87-3.33 4.7-1.2 2.62-.87 5.83-1.3 8.77-.4 2.65-1.43 5.07-2.16 7.6-.76 2.66-1.18 5.45-1.26 8.26-.06 2.56.38 4.32-.57 6.67-.88 2.18-2 4.2-2.82 6.42-.33.9-.94 5.7-1.28 6 .86-.76 1.73-1.53 2.6-2.3-.93 3.45-2.2 6.77-3.8 9.85-1.4 2.7-3.1 5.48-2.97 8.65.66.2 1.3.38 1.97.57-1 7.43-3.44 14.58-7.08 20.68 1.74.16 3.52-.46 4.92-1.73-.4 4.93-1.75 9.74-3.88 13.96 1.1.75 2.4-.42 3.32-1.5 4.6-5.55 9.3-11.75 10.4-19.5-.03 3.88-.76 7.76-2.13 11.27.57.63 1.4-.25 1.82-1.04 3.47-6.82 5.93-14.4 7.2-22.27 1.52.07 4.1-10.5 4.85-12.1 2.95-13.45.7-21.33 2.38-36.64z"/></g></g></svg>