<svg xmlns="http://www.w3.org/2000/svg" viewBox="0 0 19.302 9.798" enable-background="new 0 0 19.302 9.798"><g><g><g><path fill="#EF9A9A" d="M9.66 0C5.53 0 2.02 3.78.6 9.13c.57-.38 1.2-.72 1.84-1.02C3.74 3.3 6.48 0 9.66 0zM16.94 8.37c.67.34 1.3.72 1.88 1.14C17.46 3.98 13.88 0 9.66 0c3.23 0 6 3.43 7.28 8.37z"/><path fill="#FFAB91" d="M2.44 8.1c.62-.27 1.28-.52 1.95-.73C5.42 2.97 7.4 0 9.65 0c-3.18 0-5.9 3.3-7.22 8.1zM14.96 7.52c.7.24 1.35.53 1.98.85C15.67 3.43 12.9 0 9.66 0c2.28 0 4.27 3.04 5.3 7.52z"/><path fill="#FFE082" d="M13.36 7.07c.55.13 1.08.27 1.6.45C13.93 3.04 11.94 0 9.66 0c1.57 0 2.95 2.84 3.7 7.07zM4.4 7.37c.5-.16 1.03-.3 1.57-.4C6.72 2.8 8.1 0 9.67 0 7.38 0 5.42 2.98 4.38 7.37z"/><path fill="#FFF59D" d="M5.97 6.97c.34-.07.68-.13 1.03-.18C7.56 2.7 8.54 0 9.66 0 8.1 0 6.72 2.8 5.96 6.97zM12.32 6.85c.35.06.7.14 1.04.22C12.6 2.84 11.23 0 9.66 0c1.12 0 2.1 2.75 2.66 6.85z"/><path fill="#C5E1A5" d="M11.54 6.75c.26.04.52.06.78.1C11.77 2.75 10.78 0 9.66 0c.8 0 1.48 2.7 1.88 6.75zM7 6.8c.26-.04.52-.08.78-.1.4-4.02 1.1-6.7 1.88-6.7C8.54 0 7.56 2.72 7 6.8z"/><path fill="#80CBC4" d="M10.84 6.67c.24.02.47.06.7.08C11.14 2.7 10.44 0 9.66 0c.5 0 .93 2.66 1.18 6.67zM7.78 6.7c.23-.02.46-.04.7-.05C8.7 2.65 9.15 0 9.65 0c-.8 0-1.48 2.68-1.88 6.7z"/><path fill="#81D4FA" d="M8.47 6.65c.2 0 .4-.02.6-.02.13-4 .35-6.63.6-6.63-.5 0-.95 2.66-1.2 6.65zM10.23 6.65c.2 0 .4 0 .6.02-.24-4-.68-6.67-1.17-6.67.24 0 .45 2.65.57 6.65z"/><path fill="#9FA8DA" d="M9.08 6.63c.12 0 .23-.02.35-.02.27 0 .53.03.8.05C10.1 2.65 9.9 0 9.66 0c-.24 0-.46 2.64-.58 6.63z"/><path fill="#fff" d="M19.3 9.8c-2.7-2.2-7.2-3.52-10.6-3.52-3.4 0-5.98 1.04-8.7 3.23 3.5-.7 6.16-1 8.7-.94 3.03.1 7.43.58 10.6 1.24z"/></g></g></g></svg>