<svg xmlns="http://www.w3.org/2000/svg" viewBox="0 0 58.527 35.313" enable-background="new 0 0 58.527 35.313"><g><g><path fill="#8D6E63" d="M21.4 6.14C15.33 9.6 9.85 14.6 5.42 20.72c1.43-1 3.04-1.63 4.7-1.8-1.64 1.74-3.7 2.77-5.53 4.18C2.74 24.5 1 26.52.67 29.12c2.1-.76 4.1-1.85 5.97-3.23-1.66 1.86-3.32 3.74-4.98 5.6-.9 1.03-1.9 2.35-1.63 3.8 4.07-1.54 8.2-5.78 11.48-9.05.04.5-.22 2.75-.2 3.26 2.76-3 5.5-6 8.25-9.02.07 2 .14 4 .2 6 2.23.23 3.15-3.76 5.28-4.55.28 1.58.74 3.1 1.37 4.53.9-1.8 2.05-3.4 3.37-4.77.27-.3.6-.57.95-.54.4.03.7.43.94.8 1.2 1.8 2.44 3.6 3.66 5.4.87-1.38 1.58-2.9 2.1-4.53.7.45 1.03 1.44 1.46 2.26.44.8 1.25 1.57 2 1.17.34-.2.57-.6.77-1 .6-1.18 1.15-2.4 1.65-3.66.55 1.63 1.36 3.12 2.37 4.37.4-.8.8-1.62 1.22-2.43.2-.4.42-.8.77-1 .86-.43 1.65.7 2.15 1.63.5.93 1.55 1.88 2.23 1.12.16-.2.27-.45.48-.55.4-.18.74.38 1.03.78.55.77 1.52 1.06 2.3.7-1.63-2.65-.18-3.1-2.68-4.42.6.34 3.67 1.35 5.3 1.57-2.72-2.2-9.7-8.64-12.43-10.84.74.64 1.67.97 2.6.9-1.97-.86-3.8-2.13-5.42-3.73-.62-.62-1.22-1.3-1.95-1.73-.7-.42-1.5-.58-2.25-.94-1.16-.57-2.12-1.6-3.28-2.2-1.26-.62-2.68-.65-4.05-.67C27.95 4.1 24 4.1 20.57 6.1"/><path fill="#6D4C41" d="M20.73 5.32c-4.82 3.28-9.4 7.03-13.64 11.2 1.32-.4 2.6-.98 3.8-1.75C6.3 17.23 3.26 22.2.42 26.93c1.47-1.18 3.1-2.1 4.82-2.7-.5.97-1.02 1.95-1.54 2.92 2.55-1.97 4.92-4.23 7.07-6.73.06.85.1 1.7.17 2.54.72.2 1.36-.5 1.9-1.06 1.58-1.7 3.54-2.94 5.64-3.58.03.53.07 1.06.1 1.6 2.2-2.43 4.83-4.32 7.7-5.53 0 .95.03 1.98.56 2.74.52.75 1.73.9 2.13.07.34-.7.3-2.04 1-1.87.2.06.34.27.48.47.95 1.33 2.47 2.1 3.98 2.04.08-1.2.17-2.4.26-3.6 1.9 2.16 4.4 3.64 7.04 4.2.02-.6.03-1.23.05-1.85 1.85 1.16 3.88 2 5.98 2.42-.42-.57-.6-1.35-.5-2.1 2.7 1.28 5.32 2.8 7.8 4.57-.7-1.5-1.64-2.86-2.73-4 1.63.76 3.37 1.26 5.13 1.47-2-2.4-4.27-4.53-6.73-6.33.87.13 1.74.25 2.6.37-1.94-1.8-4.37-2.95-6.88-3.23.68-.07 1.36-.15 2.03-.22-.56-.68-1.32-1.1-2.07-1.5-6-3.18-12.56-4.96-19.17-5.22-1.57-.06-3.23 0-4.53 1-.9.68-1.65 1.82-2.74 1.86"/><path fill="#5D4037" d="M48.5 9.55c.8-.04-1.16-.52-.8-1.25-3.35-1.55-5.32-2.65-8.9-3.53.48.05-2.4-.7-1.92-.67-4.24-.82-3.82-1.16-6.75-1.44-.28-.03-1.46-1.74-1.8-1.76-.3-.02.3 1.64-.03 1.62-.46-.03-5-2.52-5-2.52-.18.03.4 3.23.24 3.27-.24.07-.2.3-.2.04-.02-.44-5.26-1.23-5.67-.7 0 0 3.04 1.63 2.85 1.94-.18.32-2.47 1.48-2.47 1.48-4.1 2.07-6.6 5.43-9.1 9.27 1.6-.86 3.26-1.62 4.96-2.27-.34.9-.87 1.75-1.54 2.46 3.5-.97 6.98-1.92 10.47-2.88.02.17.03.33.05.5 1.63-.24 3.2-.87 4.54-1.84.17-.12.34-.25.55-.3.58-.08.95.57 1.34 1.02.53.6 1.38.9 2.15.72.77-.2 1.4-.93 1.37-1.72 2.46 1.1 5.25 1.5 7.92 1.1 0-.25-.02-.5-.03-.75 2.1 1.4 4.55 2.26 7.05 2.5-.1-.43-.23-.85-.34-1.27 1.36.96 5.66 1.5 7.3 1.7l-6.2-4.73z"/></g></g></svg>