<svg xmlns="http://www.w3.org/2000/svg" viewBox="0 0 9.412 6.931" enable-background="new 0 0 9.412 6.931"><g><g><path fill="#FF9E80" d="M8.88.7C8.58.44 8.2.26 7.8.17 7.35.07 6.87.05 6.4.04 5.78.04 5.15 0 4.54 0 3.98 0 3.46.04 2.9.1c-.48.05-1 .05-1.48.16C1.02.36.65.52.38.8c-.56.57-.4 1.44-.16 2.12.28.8.79 1.66 1.5 2.13.9.56 2.02.68 3.08.68.72 0 1.5-.05 2.15-.37 1.28-.61 2.37-2 2.46-3.44.04-.5-.18-.92-.52-1.22zM1.24 1.87c-.23 0-.42-.2-.42-.43s.2-.42.42-.42c.23 0 .42.2.42.42s-.18.43-.42.43zM8 1.95c-.25 0-.44-.2-.44-.43s.2-.43.43-.43c.23 0 .42.2.42.42s-.2.44-.43.44z"/><ellipse cx="4.582" cy="2.806" fill="#FF6E40" rx="1.95" ry="1.156"/><ellipse cx="4.473" cy="4.759" fill="none" stroke="#FF6E40" stroke-miterlimit="10" rx="2.172" ry="1.672"/></g></g></svg>