<svg xmlns="http://www.w3.org/2000/svg" viewBox="0 0 97.776 106.285" enable-background="new 0 0 97.776 106.285"><g><g><path fill="#fff" stroke="#B0BEC5" stroke-miterlimit="10" d="M21.5 2.25L37.18 45.6 50.17.9l9.67 9 6.33 14.66 2 25 1.67 20 3 15.67-.33 15.34-1 3.32-68.66-.67L.5 90.92l2.34-16 5-18.33s2-22.68 2-24.35c0-1.66 2-17.66 2-17.66l5-7.68 4.67-4.67z"/><path fill="#fff" stroke="#B0BEC5" stroke-miterlimit="10" d="M97.17 57.84l-9.08 13.2-31.47-27.9-3.13-6.05V30.9l2.5-5.8 3.34-1.62h2.83l3.84.7 2.84 3.53 5.33 6.76 8.17 7.12L89 48.77s3.84 4.32 4.67 4.66c.84.33 3.5 4.4 3.5 4.4z"/><path fill="#fff" stroke="#B0BEC5" stroke-miterlimit="10" d="M15.5 105.6l-7-31-.33-11.35 1.34-7 4-3.66 4.67-.35 3.34 2.34 1.34 6.65L25.5 75.6l3.67 18.65 1.67 4.67z"/><circle cx="42.674" cy="53.919" r="1.75" fill="#B0BEC5"/><circle cx="42.674" cy="65.919" r="1.75" fill="#B0BEC5"/><circle cx="43.674" cy="77.919" r="1.75" fill="#B0BEC5"/><circle cx="44.674" cy="88.919" r="1.75" fill="#B0BEC5"/><circle cx="44.674" cy="40.919" r="1.75" fill="#B0BEC5"/><circle cx="47.674" cy="29.919" r="1.75" fill="#B0BEC5"/><circle cx="50.674" cy="18.919" r="1.75" fill="#B0BEC5"/></g></g></svg>