<svg xmlns="http://www.w3.org/2000/svg" viewBox="0 0 74.516 84.759" enable-background="new 0 0 74.516 84.759"><g><path fill="#004D40" d="M7.74 83.84c19.1-3.43 38.72-.48 58.12-1.15.82-.03 1.68-.08 2.4-.48.67-.4 1.14-1.05 1.56-1.7 3.33-5.2 4.98-11.42 4.66-17.57-.36-6.8-3.04-13.26-4.05-20-.46-3.06-.57-6.17-.96-9.24-.53-4.26-1.58-8.43-2.63-12.6-1.35-5.35-2.7-10.7-4.04-16.05-.2-.82-.42-1.67-.87-2.4-1.38-2.2-4.4-2.56-7-2.65C48.72-.2 44 63.78 37.77 64.05 31.84 64.3 24.41.83 18.5 1.23c-2.96.2-6.16.5-8.34 2.5-1.3 1.2-2.06 2.86-2.63 4.53-2.6 7.72-1.65 16.13-2.52 24.23-.76 7.2-3 14.16-4.2 21.3S-.55 68.6 2.65 75.1c1.26 2.55 3.04 4.93 3.6 7.73.13.6.27 1.3.83 1.5.32.14.67.06 1-.02.98-.23 1.96-.46 2.94-.7"/><path fill="#00796B" d="M15.46 83.4c-1.35-3.86-2.75-7.7-4.03-11.6-1.24-3.74-2.78-7.64-2.8-11.6 0-1.8-.32-3.6-.46-5.38-.4-5.06-.55-10.16.03-15.22.24-2.1.16-4.26.83-6.28.77-2.34 2.67-3.87 5.06-4.38 1.63-.36 4.55-.55 6.03.38 1 .62 1.48 1.8 1.8 2.9 1.37 4.98 3.4 9.7 4.52 14.8 1.1 4.95 1.62 10.02 2.2 15.06.56 5 1.47 9.98 2.3 14.96.2 1.17 1.06 3.4.34 4.45-.3.43-.88.57-1.4.67-4.74.92-9.56 1.45-14.4 1.6M59.94 84.4c1.34-3.86 2.74-7.7 4.03-11.6 1.24-3.74 2.77-7.64 2.78-11.6 0-1.8.33-3.6.47-5.38.4-5.06.56-10.16-.02-15.2-.25-2.1-.17-4.28-.83-6.3-.78-2.34-2.68-3.87-5.07-4.38-1.63-.36-4.55-.55-6.04.38-1 .62-1.47 1.8-1.78 2.9-1.38 4.98-3.4 9.7-4.53 14.8-1.1 4.95-1.62 10.02-2.2 15.06-.57 5-1.47 9.98-2.3 14.96-.2 1.17-1.07 3.4-.35 4.45.3.43.87.57 1.4.67 4.74.92 9.56 1.46 14.4 1.6"/></g></svg>