<?xml version="1.0" encoding="iso-8859-1"?>
<!-- Generator: Adobe Illustrator 19.0.1, SVG Export Plug-In . SVG Version: 6.00 Build 0)  -->
<svg version="1.1" xmlns="http://www.w3.org/2000/svg" xmlns:xlink="http://www.w3.org/1999/xlink" x="0px" y="0px"
	 viewBox="0 0 97.776 106.285" enable-background="new 0 0 97.776 106.285" xml:space="preserve">
<g id="_x31_-_Blue_Dog">
	<g id="Layer_2" display="none" opacity="0.4">
	</g>
</g>
<g id="_x32_-_Options">
	<g id="medication">
	</g>
	<g id="talking">
	</g>
	<g id="practical">
		<g id="mirror_2_">
		</g>
	</g>
</g>
<g id="_x33_-_Practical_Intro">
	<g id="List">
	</g>
</g>
<g id="_x34_-_Practical_List">
</g>
<g id="_x35_-_Support_Locations">
</g>
<g id="_x36_-Shy_Dog">
</g>
<g id="_x37_-Better_Dog">
</g>
<g id="_x38_-Therapist_Dog">
</g>
<g id="_x39_-_Therapy_Details">
	<g id="text_6_">
	</g>
	<g id="grandad_dog">
	</g>
	<g id="puppy">
	</g>
	<g id="mum_dog">
	</g>
</g>
<g id="_x31_0-Combining_Therapies">
	<g id="text_7_">
	</g>
	<g id="Isometric_Grid">
	</g>
	<g id="chair_3_">
	</g>
</g>
<g id="_x31_1-Medication_Script">
	<g id="nurse-dog">
		<path id="jacket_1_" fill="#FFFFFF" stroke="#B0BEC5" stroke-miterlimit="10" d="M21.507,2.252l15.667,43.333l13-44.667l9.667,9
			l6.333,14.667l2,25l1.667,20l3,15.667l-0.333,15.333l-1,3.333L2.84,103.252L0.507,90.919l2.333-16l5-18.333c0,0,2-22.667,2-24.333
			c0-1.667,2-17.667,2-17.667l5-7.667L21.507,2.252z"/>
		<path id="jacket_arm_right_1_" fill="#FFFFFF" stroke="#B0BEC5" stroke-miterlimit="10" d="M97.174,57.836L88.09,71.044
			L56.628,43.148L53.5,37.086v-6.167l2.503-5.793L59.34,23.5h2.833l3.833,0.709l2.833,3.521l5.333,6.761l8.167,7.13l6.667,7.149
			c0,0,3.833,4.324,4.667,4.658C94.507,53.761,97.174,57.836,97.174,57.836z"/>
		<polygon id="jacket_arm_left_1_" fill="#FFFFFF" stroke="#B0BEC5" stroke-miterlimit="10" points="15.507,105.586 8.507,74.586 
			8.174,63.252 9.507,56.252 13.507,52.586 18.174,52.252 21.507,54.586 22.84,61.252 25.507,75.586 29.174,94.252 30.84,98.919 		
			"/>
		<circle fill="#B0BEC5" cx="42.674" cy="53.919" r="1.75"/>
		<circle fill="#B0BEC5" cx="42.674" cy="65.919" r="1.75"/>
		<circle fill="#B0BEC5" cx="43.674" cy="77.919" r="1.75"/>
		<circle fill="#B0BEC5" cx="44.674" cy="88.919" r="1.75"/>
		<circle fill="#B0BEC5" cx="44.674" cy="40.919" r="1.75"/>
		<circle fill="#B0BEC5" cx="47.674" cy="29.919" r="1.75"/>
		<circle fill="#B0BEC5" cx="50.674" cy="18.919" r="1.75"/>
	</g>
</g>
<g id="_x31_2-Dog_With_Medication">
</g>
<g id="_x31_3-Medication_Check_Ups">
</g>
<g id="_x31_4-Medication_Side_Effects">
	<g id="shy_dog_1_">
	</g>
</g>
</svg>
