<?xml version="1.0" encoding="iso-8859-1"?>
<!-- Generator: Adobe Illustrator 19.0.1, SVG Export Plug-In . SVG Version: 6.00 Build 0)  -->
<svg version="1.1" xmlns="http://www.w3.org/2000/svg" xmlns:xlink="http://www.w3.org/1999/xlink" x="0px" y="0px"
	 viewBox="0 0 58.527 35.313" enable-background="new 0 0 58.527 35.313" xml:space="preserve">
<g id="_x31_-_Blue_Dog">
	<g id="Layer_2" display="none" opacity="0.4">
	</g>
</g>
<g id="_x32_-_Options">
	<g id="medication">
	</g>
	<g id="talking">
	</g>
	<g id="practical">
		<g id="mirror_2_">
		</g>
	</g>
</g>
<g id="_x33_-_Practical_Intro">
	<g id="List">
	</g>
</g>
<g id="_x34_-_Practical_List">
</g>
<g id="_x35_-_Support_Locations">
</g>
<g id="_x36_-Shy_Dog">
</g>
<g id="_x37_-Better_Dog">
</g>
<g id="_x38_-Therapist_Dog">
</g>
<g id="_x39_-_Therapy_Details">
	<g id="text_6_">
	</g>
	<g id="grandad_dog">
	</g>
	<g id="puppy">
	</g>
	<g id="mum_dog">
	</g>
	<g id="hair_2_">
		<path fill="#8D6E63" d="M21.402,6.141c-6.077,3.469-11.554,8.464-15.98,14.576c1.43-1.002,3.042-1.624,4.688-1.807
			c-1.627,1.748-3.681,2.783-5.521,4.191c-1.839,1.408-3.576,3.418-3.908,6.018c2.095-0.757,4.107-1.847,5.968-3.233
			c-1.66,1.875-3.32,3.751-4.98,5.626c-0.905,1.022-1.892,2.34-1.625,3.801c4.069-1.553,8.183-5.789,11.48-9.063
			c0.035,0.51-0.225,2.753-0.19,3.263c2.745-3.01,5.49-6.02,8.236-9.03c0.072,1.999,0.143,3.997,0.215,5.996
			c2.219,0.236,3.133-3.755,5.262-4.55c0.282,1.579,0.747,3.111,1.378,4.535c0.899-1.798,2.042-3.416,3.37-4.772
			c0.275-0.281,0.595-0.565,0.954-0.534c0.393,0.034,0.689,0.432,0.939,0.8c1.225,1.802,2.45,3.604,3.676,5.406
			c0.868-1.382,1.572-2.914,2.082-4.536c0.716,0.449,1.042,1.443,1.476,2.264c0.434,0.821,1.252,1.582,1.987,1.18
			c0.35-0.192,0.578-0.603,0.78-0.999c0.607-1.185,1.162-2.41,1.66-3.667c0.548,1.621,1.357,3.111,2.369,4.364
			c0.407-0.809,0.815-1.617,1.222-2.426c0.199-0.395,0.42-0.814,0.771-0.997c0.845-0.442,1.634,0.692,2.141,1.62
			c0.507,0.928,1.549,1.88,2.227,1.127c0.163-0.181,0.274-0.447,0.481-0.542c0.406-0.186,0.743,0.382,1.029,0.776
			c0.56,0.771,1.53,1.061,2.323,0.694c-1.64-2.639-0.191-3.086-2.692-4.411c0.612,0.329,3.668,1.341,5.306,1.562
			c-2.724-2.197-9.711-8.643-12.435-10.84c0.749,0.641,1.679,0.967,2.595,0.909c-1.957-0.87-3.792-2.142-5.402-3.745
			c-0.624-0.621-1.224-1.299-1.95-1.728c-0.715-0.422-1.517-0.58-2.255-0.941c-1.157-0.566-2.12-1.61-3.274-2.187
			c-1.268-0.634-2.68-0.663-4.052-0.683c-3.803-0.056-7.767-0.07-11.183,1.95"/>
		<path fill="#6D4C41" d="M20.73,5.323c-4.819,3.277-9.387,7.029-13.636,11.199c1.328-0.388,2.608-0.98,3.797-1.755
			C6.325,17.235,3.27,22.188,0.426,26.93c1.472-1.18,3.107-2.098,4.828-2.711c-0.515,0.978-1.029,1.956-1.544,2.935
			c2.542-1.975,4.911-4.235,7.062-6.737c0.056,0.849,0.111,1.697,0.167,2.546c0.719,0.193,1.364-0.489,1.901-1.065
			c1.581-1.697,3.538-2.94,5.639-3.583c0.036,0.535,0.071,1.07,0.107,1.605c2.183-2.426,4.82-4.324,7.686-5.53
			c0.008,0.958,0.039,1.995,0.564,2.747c0.525,0.752,1.739,0.916,2.138,0.071c0.336-0.711,0.288-2.05,0.982-1.873
			c0.212,0.054,0.356,0.27,0.492,0.462c0.949,1.332,2.469,2.114,3.978,2.047c0.087-1.199,0.174-2.399,0.26-3.598
			c1.914,2.152,4.405,3.635,7.054,4.198c0.017-0.618,0.034-1.237,0.051-1.855c1.861,1.176,3.893,2.001,5.988,2.434
			c-0.423-0.57-0.611-1.355-0.5-2.09c2.706,1.271,5.318,2.798,7.801,4.56c-0.709-1.492-1.636-2.849-2.733-4.001
			c1.636,0.766,3.369,1.265,5.128,1.478c-2.008-2.402-4.27-4.53-6.721-6.326c0.867,0.123,1.734,0.245,2.601,0.368
			c-1.943-1.82-4.372-2.964-6.881-3.241c0.676-0.075,1.352-0.149,2.028-0.224c-0.567-0.678-1.321-1.107-2.068-1.502
			c-5.999-3.17-12.564-4.954-19.179-5.21c-1.562-0.061-3.229-0.003-4.525,0.988c-0.901,0.689-1.655,1.832-2.741,1.872"/>
		<path fill="#5D4037" d="M48.504,9.547c0.807-0.036-1.162-0.517-0.807-1.243c-3.347-1.558-5.314-2.656-8.9-3.533
			c0.482,0.049-2.399-0.716-1.917-0.667c-4.235-0.829-3.819-1.165-6.749-1.443c-0.28-0.027-1.465-1.739-1.813-1.765
			c-0.274-0.02,0.303,1.645-0.021,1.625c-0.46-0.029-5-2.521-5-2.521c-0.174,0.034,0.417,3.229,0.245,3.273
			c-0.245,0.063-0.195,0.292-0.204,0.039c-0.016-0.45-5.258-1.247-5.667-0.708c0,0,3.038,1.621,2.854,1.938
			c-0.184,0.317-2.479,1.479-2.479,1.479c-4.088,2.064-6.596,5.43-9.095,9.267c1.607-0.848,3.263-1.603,4.957-2.261
			c-0.349,0.91-0.877,1.752-1.544,2.463c3.488-0.956,6.977-1.912,10.465-2.867c0.017,0.162,0.034,0.324,0.05,0.487
			c1.631-0.231,3.204-0.865,4.54-1.829c0.169-0.122,0.342-0.252,0.547-0.287c0.581-0.098,0.958,0.559,1.345,1.004
			c0.52,0.597,1.371,0.912,2.138,0.718c0.767-0.193,1.387-0.927,1.374-1.718c2.46,1.116,5.245,1.504,7.916,1.102
			c-0.009-0.249-0.019-0.499-0.028-0.748c2.094,1.391,4.537,2.253,7.041,2.484c-0.115-0.419-0.231-0.838-0.346-1.256
			c1.354,0.963,5.657,1.513,7.307,1.703L48.504,9.547z"/>
	</g>
</g>
<g id="_x31_0-Combining_Therapies">
	<g id="text_7_">
	</g>
	<g id="Isometric_Grid">
	</g>
	<g id="chair_3_">
	</g>
</g>
<g id="_x31_1-Medication_Script">
</g>
<g id="_x31_2-Dog_With_Medication">
</g>
<g id="_x31_3-Medication_Check_Ups">
</g>
<g id="_x31_4-Medication_Side_Effects">
	<g id="shy_dog_1_">
	</g>
</g>
</svg>
