<?xml version="1.0" encoding="iso-8859-1"?>
<!-- Generator: Adobe Illustrator 19.0.1, SVG Export Plug-In . SVG Version: 6.00 Build 0)  -->
<svg version="1.1" xmlns="http://www.w3.org/2000/svg" xmlns:xlink="http://www.w3.org/1999/xlink" x="0px" y="0px"
	 viewBox="0 0 9.412 6.931" enable-background="new 0 0 9.412 6.931" xml:space="preserve">
<g id="_x31_-_Blue_Dog">
	<g id="Layer_2" display="none" opacity="0.4">
	</g>
</g>
<g id="_x32_-_Options">
	<g id="medication">
	</g>
	<g id="talking">
	</g>
	<g id="practical">
		<g id="mirror_2_">
		</g>
	</g>
</g>
<g id="_x33_-_Practical_Intro">
	<g id="dog-side_2_">
	</g>
	<g id="List">
	</g>
</g>
<g id="_x34_-_Practical_List">
</g>
<g id="_x35_-_Support_Locations">
</g>
<g id="_x36_-Shy_Dog">
</g>
<g id="_x37_-Better_Dog">
</g>
<g id="_x38_-Therapist_Dog">
</g>
<g id="_x39_-_Therapy_Details">
	<g id="text_6_">
	</g>
	<g id="dummy_1_">
		<path fill="#FF9E80" d="M8.877,0.699c-0.295-0.261-0.68-0.44-1.068-0.53C7.344,0.061,6.862,0.05,6.384,0.04
			C5.768,0.027,5.152,0.015,4.535,0.002C3.977-0.01,3.465,0.04,2.911,0.099C2.425,0.151,1.898,0.155,1.422,0.26
			c-0.389,0.086-0.77,0.255-1.047,0.542c-0.551,0.572-0.398,1.44-0.156,2.12c0.282,0.794,0.786,1.66,1.513,2.124
			c0.898,0.566,2.003,0.68,3.064,0.681c0.725,0,1.491-0.048,2.155-0.367c1.279-0.615,2.37-2.012,2.459-3.442
			C9.441,1.411,9.219,1.001,8.877,0.699z M1.241,1.869c-0.234,0-0.424-0.19-0.424-0.424s0.19-0.424,0.424-0.424
			c0.234,0,0.424,0.19,0.424,0.424S1.475,1.869,1.241,1.869z M7.987,1.955c-0.238,0-0.431-0.193-0.431-0.431
			s0.193-0.431,0.431-0.431c0.238,0,0.431,0.193,0.431,0.431S8.225,1.955,7.987,1.955z"/>
		<ellipse fill="#FF6E40" cx="4.582" cy="2.806" rx="1.95" ry="1.156"/>
		<ellipse fill="none" stroke="#FF6E40" stroke-miterlimit="10" cx="4.473" cy="4.759" rx="2.172" ry="1.672"/>
	</g>
</g>
<g id="_x31_0-Combining_Therapies">
	<g id="text_7_">
	</g>
	<g id="Isometric_Grid">
	</g>
	<g id="chair_3_">
	</g>
</g>
<g id="_x31_1-Medication_Script">
</g>
<g id="_x31_2-Dog_With_Medication">
</g>
<g id="_x31_3-Medication_Check_Ups">
</g>
<g id="_x31_4-Medication_Side_Effects">
	<g id="shy_dog_1_">
	</g>
</g>
</svg>
