<?xml version="1.0" encoding="iso-8859-1"?>
<!-- Generator: Adobe Illustrator 19.0.1, SVG Export Plug-In . SVG Version: 6.00 Build 0)  -->
<svg version="1.1" xmlns="http://www.w3.org/2000/svg" xmlns:xlink="http://www.w3.org/1999/xlink" x="0px" y="0px"
	 viewBox="0 0 108.57 81.848" enable-background="new 0 0 108.57 81.848" xml:space="preserve">
<g id="_x31_-_Blue_Dog">
	<g id="Layer_2" display="none" opacity="0.4">
	</g>
</g>
<g id="_x32_-_Options">
	<g id="medication">
	</g>
	<g id="talking">
	</g>
	<g id="practical">
		<g id="mirror_2_">
		</g>
	</g>
</g>
<g id="_x33_-_Practical_Intro">
	<g id="List">
	</g>
</g>
<g id="_x34_-_Practical_List">
</g>
<g id="_x35_-_Support_Locations">
	<g id="cmhs-building_1_">
		<path fill="#A1887F" d="M5.545,71.291c0.062-4.484,0.159-8.967,0.179-13.451c0.035-7.736,0.022-15.472,0.029-23.207
			c15.739-6.938,31.484-13.865,47.209-20.838c1.13-0.501,2.022-0.284,3.05,0.173c5.316,2.368,10.66,4.675,15.982,7.031
			c10.33,4.572,20.651,9.163,30.976,13.746c0.026,12.175,0.053,24.351,0.079,36.526C70.547,71.277,38.046,71.284,5.545,71.291z
			 M54.396,48.284c-1.913,0-3.831,0.079-5.738-0.027c-1.363-0.076-1.68,0.463-1.657,1.725c0.069,3.742,0.06,7.487,0.004,11.23
			c-0.017,1.157,0.303,1.613,1.532,1.592c3.826-0.065,7.654-0.066,11.479,0c1.235,0.021,1.544-0.446,1.527-1.597
			c-0.055-3.743-0.066-7.487,0.005-11.23c0.024-1.269-0.306-1.798-1.662-1.72C58.06,48.363,56.226,48.284,54.396,48.284z
			 M69.525,55.408c0,1.913,0.079,3.831-0.027,5.738c-0.075,1.36,0.457,1.685,1.722,1.66c3.576-0.071,7.154-0.061,10.73-0.004
			c1.154,0.018,1.616-0.298,1.594-1.53c-0.066-3.825-0.066-7.653,0-11.479c0.021-1.232-0.44-1.548-1.594-1.53
			c-3.576,0.057-7.154,0.067-10.73-0.004c-1.266-0.025-1.801,0.3-1.722,1.66C69.605,51.743,69.525,53.578,69.525,55.408z
			 M53.672,31.285c-1.913,0-3.828,0.049-5.739-0.019c-1.096-0.039-1.44,0.367-1.426,1.44c0.048,3.743,0.054,7.487-0.002,11.229
			c-0.017,1.161,0.508,1.368,1.504,1.359c3.826-0.036,7.654-0.053,11.479,0.009c1.202,0.019,1.576-0.386,1.555-1.57
			c-0.062-3.493-0.122-6.991,0.021-10.479c0.072-1.757-0.626-2.093-2.153-1.996C57.171,31.368,55.419,31.283,53.672,31.285z
			 M26.525,55.404c0,1.913,0.079,3.831-0.027,5.738c-0.075,1.355,0.448,1.689,1.719,1.663c3.576-0.072,7.154-0.061,10.73-0.005
			c1.15,0.018,1.619-0.29,1.598-1.526c-0.066-3.825-0.065-7.653,0-11.479c0.021-1.227-0.433-1.552-1.591-1.533
			c-3.576,0.058-7.154,0.066-10.73-0.004c-1.261-0.025-1.805,0.292-1.725,1.656C26.605,51.74,26.525,53.574,26.525,55.404z
			 M75.581,45.281c2.232,0,4.065-0.058,5.891,0.021c1.184,0.051,1.592-0.349,1.571-1.552c-0.064-3.659-0.045-7.32-0.009-10.979
			c0.01-0.996-0.196-1.522-1.358-1.505c-3.742,0.055-7.486,0.05-11.229,0.002c-1.072-0.014-1.48,0.328-1.441,1.425
			c0.067,1.911-0.043,3.828,0.033,5.738c0.088,2.216-0.97,5.119,0.442,6.462C70.879,46.22,73.759,45.12,75.581,45.281z
			 M40.021,38.409c0-1.83-0.08-3.665,0.026-5.488c0.079-1.358-0.454-1.686-1.721-1.661c-3.575,0.071-7.154,0.061-10.73,0.004
			c-1.152-0.018-1.619,0.294-1.596,1.528c0.067,3.659,0.067,7.32,0,10.979c-0.022,1.23,0.438,1.549,1.593,1.531
			c3.576-0.057,7.154-0.066,10.73,0.004c1.264,0.025,1.807-0.296,1.723-1.658C39.94,41.907,40.021,40.155,40.021,38.409z"/>
		<path fill="#6D4C41" d="M102.969,34.745c-10.325-4.583-20.646-9.174-30.976-13.746c-5.322-2.356-10.665-4.663-15.982-7.031
			c-1.027-0.458-1.92-0.674-3.05-0.173c-15.725,6.973-31.47,13.9-47.209,20.838c-1.827,0.727-3.655,1.454-5.73,2.279
			c0-4.048,0.043-7.853-0.022-11.656c-0.025-1.446,1.136-1.502,1.954-1.883C17.825,15.979,33.764,8.73,49.547,1.154
			c3.352-1.609,5.923-1.486,9.194,0.062C74.642,8.74,90.655,16.03,106.66,23.336c1.419,0.648,1.967,1.38,1.906,2.959
			c-0.132,3.405-0.041,6.818-0.041,10.385C106.421,36.545,104.905,34.999,102.969,34.745z"/>
		<path fill="#6D4C41" d="M5.545,71.291c32.501-0.007,65.002-0.013,97.503-0.02c2.615-0.534,3.268,0.678,3.017,3.093
			c-0.206,1.978-0.089,3.997-0.025,5.995c0.034,1.073-0.313,1.554-1.419,1.432c-0.494-0.054-0.999-0.008-1.499-0.008
			c-32.581,0-65.161-0.033-97.741,0.066c-2.507,0.008-2.805-0.737-2.893-3.036c0.185-1.477,0.2-3.018-0.003-4.49
			C2.496,72.1,3.054,71.303,5.545,71.291z"/>
		<path fill="#455A64" d="M54.396,48.284c1.83,0,3.665,0.079,5.489-0.026c1.356-0.078,1.686,0.45,1.662,1.72
			c-0.07,3.742-0.06,7.487-0.005,11.23c0.017,1.151-0.292,1.619-1.527,1.597c-3.826-0.066-7.654-0.066-11.479,0
			c-1.229,0.021-1.549-0.436-1.532-1.592c0.056-3.743,0.065-7.487-0.004-11.23c-0.023-1.262,0.295-1.801,1.657-1.725
			C50.564,48.364,52.482,48.284,54.396,48.284z"/>
		<path fill="#455A64" d="M69.525,55.408c0-1.83,0.08-3.665-0.026-5.489c-0.079-1.36,0.456-1.685,1.722-1.66
			c3.576,0.071,7.154,0.061,10.73,0.004c1.154-0.018,1.616,0.298,1.594,1.53c-0.066,3.825-0.066,7.653,0,11.479
			c0.021,1.232-0.44,1.548-1.594,1.53c-3.576-0.057-7.154-0.067-10.73,0.004c-1.266,0.025-1.798-0.3-1.722-1.66
			C69.604,59.239,69.525,57.321,69.525,55.408z"/>
		<path fill="#455A64" d="M53.672,31.284c1.747-0.001,3.499,0.084,5.239-0.026c1.527-0.096,2.226,0.239,2.153,1.996
			c-0.144,3.488-0.083,6.986-0.021,10.479c0.021,1.184-0.353,1.589-1.555,1.57c-3.826-0.062-7.653-0.044-11.479-0.009
			c-0.997,0.009-1.521-0.198-1.504-1.359c0.055-3.743,0.05-7.487,0.002-11.229c-0.014-1.073,0.33-1.479,1.426-1.44
			C49.843,31.334,51.758,31.285,53.672,31.284z"/>
		<path fill="#455A64" d="M26.525,55.404c0-1.83,0.08-3.665-0.026-5.489c-0.08-1.364,0.464-1.681,1.725-1.656
			c3.576,0.07,7.154,0.061,10.73,0.004c1.158-0.019,1.612,0.306,1.591,1.533c-0.065,3.825-0.066,7.653,0,11.479
			c0.021,1.236-0.448,1.544-1.598,1.526c-3.576-0.056-7.155-0.067-10.73,0.005c-1.271,0.025-1.794-0.308-1.719-1.663
			C26.603,59.235,26.525,57.318,26.525,55.404z"/>
		<path fill="#455A64" d="M75.581,45.281c-1.822-0.161-4.702,0.94-6.1-0.389c-1.412-1.342-0.354-4.245-0.442-6.462
			c-0.076-1.91,0.034-3.827-0.033-5.738c-0.039-1.097,0.369-1.439,1.441-1.425c3.743,0.048,7.487,0.054,11.229-0.002
			c1.162-0.017,1.368,0.509,1.358,1.505c-0.036,3.66-0.055,7.321,0.009,10.979c0.021,1.203-0.387,1.603-1.571,1.552
			C79.646,45.223,77.813,45.281,75.581,45.281z"/>
		<path fill="#455A64" d="M40.021,38.409c0,1.747-0.081,3.499,0.026,5.239c0.084,1.362-0.46,1.683-1.723,1.658
			c-3.575-0.07-7.154-0.061-10.73-0.004c-1.156,0.018-1.616-0.3-1.593-1.531c0.067-3.659,0.067-7.32,0-10.979
			c-0.023-1.234,0.444-1.546,1.596-1.528c3.576,0.057,7.154,0.067,10.73-0.004c1.267-0.025,1.8,0.302,1.721,1.661
			C39.941,34.744,40.021,36.579,40.021,38.409z"/>
	</g>
</g>
<g id="_x36_-Shy_Dog">
</g>
<g id="_x37_-Better_Dog">
</g>
<g id="_x38_-Therapist_Dog">
</g>
<g id="_x39_-_Therapy_Details">
	<g id="text_6_">
	</g>
</g>
<g id="_x31_0-Combining_Therapies">
	<g id="text_7_">
	</g>
	<g id="Isometric_Grid">
	</g>
	<g id="chair_3_">
	</g>
</g>
<g id="_x31_1-Medication_Script">
</g>
<g id="_x31_2-Dog_With_Medication">
</g>
<g id="_x31_3-Medication_Check_Ups">
</g>
<g id="_x31_4-Medication_Side_Effects">
	<g id="shy_dog_1_">
	</g>
</g>
</svg>
