<svg xmlns="http://www.w3.org/2000/svg" viewBox="0 0 108.57 81.848" enable-background="new 0 0 108.57 81.848"><g><g><path fill="#A1887F" d="M5.54 71.3c.07-4.5.16-8.98.18-13.46.04-7.74.03-15.47.03-23.2 15.74-6.95 31.5-13.87 47.2-20.85 1.14-.5 2.03-.3 3.06.17 5.33 2.37 10.67 4.67 16 7.03 10.32 4.57 20.64 9.16 30.97 13.74.03 12.18.05 24.36.08 36.53-32.5 0-65 0-97.5.02zM54.4 48.27c-1.92 0-3.83.08-5.74-.02-1.36-.08-1.68.46-1.66 1.72.07 3.74.06 7.5 0 11.23 0 1.17.3 1.63 1.54 1.6 3.82-.06 7.65-.06 11.48 0 1.23.03 1.54-.44 1.52-1.6-.05-3.74-.06-7.48 0-11.22.03-1.27-.3-1.8-1.65-1.72-1.84.1-3.67.02-5.5.02zm15.13 7.13c0 1.92.07 3.84-.03 5.75-.08 1.36.46 1.68 1.72 1.66 3.58-.06 7.15-.05 10.73 0 1.15.02 1.62-.3 1.6-1.53-.07-3.82-.07-7.65 0-11.48 0-1.24-.45-1.55-1.6-1.54-3.58.06-7.15.07-10.73 0-1.27-.03-1.8.3-1.72 1.66.1 1.82.03 3.66.03 5.5zM53.67 31.3c-1.9-.02-3.83.03-5.74-.03-1.1-.04-1.44.36-1.42 1.44.05 3.75.06 7.5 0 11.23 0 1.17.5 1.37 1.5 1.36 3.83-.04 7.66-.06 11.5 0 1.2.02 1.56-.38 1.54-1.57-.06-3.5-.12-7 .02-10.48.08-1.75-.62-2.1-2.15-2-1.73.12-3.48.03-5.23.04zM26.52 55.4c0 1.92.08 3.84-.02 5.74-.08 1.36.45 1.7 1.72 1.67 3.57-.07 7.15-.06 10.73 0 1.15.02 1.62-.3 1.6-1.53-.07-3.82-.07-7.65 0-11.48.02-1.23-.44-1.56-1.6-1.54-3.57.06-7.15.07-10.73 0-1.26-.03-1.8.3-1.72 1.65.1 1.84.02 3.67.02 5.5zM75.6 45.28c2.23 0 4.07-.06 5.9.02 1.18.05 1.58-.35 1.56-1.55-.06-3.66-.04-7.32 0-10.98 0-1-.2-1.52-1.36-1.5-3.75.05-7.5.05-11.23 0-1.08-.02-1.48.33-1.44 1.42.07 1.9-.04 3.82.04 5.73.1 2.22-.97 5.12.44 6.46 1.4 1.32 4.28.22 6.1.38zM40.02 38.4c0-1.82-.08-3.66.03-5.48.08-1.36-.46-1.7-1.72-1.66-3.58.07-7.16.06-10.73 0-1.16 0-1.62.3-1.6 1.53.07 3.65.07 7.3 0 10.97-.02 1.23.44 1.55 1.6 1.53 3.57-.05 7.15-.06 10.72 0 1.27.03 1.8-.3 1.73-1.65-.1-1.74-.03-3.5-.03-5.24z"/><path fill="#6D4C41" d="M102.97 34.74C92.64 30.16 82.32 25.57 72 21c-5.33-2.36-10.67-4.66-16-7.03-1.02-.46-1.9-.68-3.04-.18-15.72 6.97-31.47 13.9-47.2 20.83C3.9 35.36 2.1 36.1 0 36.9c0-4.04.04-7.84-.02-11.64-.03-1.45 1.14-1.5 1.95-1.9C17.82 16 33.75 8.74 49.55 1.17c3.35-1.6 5.92-1.5 9.2.06 15.9 7.52 31.9 14.8 47.9 22.12 1.43.64 1.98 1.38 1.92 2.95-.14 3.4-.04 6.8-.04 10.38-2.1-.13-3.63-1.68-5.56-1.94zM5.54 71.3c32.5-.02 65-.02 97.5-.03 2.62-.53 3.28.68 3.02 3.1-.2 1.97-.08 4-.02 6 .03 1.06-.3 1.54-1.42 1.42-.5-.06-1-.02-1.5-.02-32.58 0-65.16-.03-97.74.07-2.5 0-2.8-.74-2.9-3.04.2-1.46.2-3 0-4.48.02-2.22.57-3.02 3.06-3.03z"/><path fill="#455A64" d="M54.4 48.28c1.83 0 3.66.08 5.5-.02 1.34-.08 1.67.45 1.65 1.72-.07 3.74-.06 7.48 0 11.23 0 1.16-.3 1.63-1.54 1.6-3.8-.06-7.64-.06-11.46 0-1.23.03-1.55-.43-1.54-1.6.06-3.73.07-7.47 0-11.22-.02-1.26.3-1.8 1.66-1.72 1.9.1 3.82.02 5.74.02zM69.53 55.4c0-1.82.08-3.66-.03-5.48-.08-1.36.46-1.7 1.72-1.66 3.58.07 7.16.06 10.73 0 1.16 0 1.62.3 1.6 1.53-.07 3.82-.07 7.65 0 11.47.02 1.23-.44 1.55-1.6 1.53-3.57-.05-7.15-.06-10.73 0-1.26.03-1.8-.3-1.72-1.65.1-1.9.03-3.83.03-5.74zM53.67 31.28c1.75 0 3.5.1 5.24-.02 1.54-.1 2.24.24 2.16 2-.14 3.48-.08 6.98-.02 10.47.02 1.2-.35 1.6-1.55 1.57-3.84-.06-7.67-.04-11.5 0-1 0-1.5-.2-1.5-1.37.06-3.74.05-7.48 0-11.22 0-1.07.34-1.47 1.43-1.43 1.9.06 3.83.02 5.74 0zM26.52 55.4c0-1.83.08-3.66-.02-5.48-.08-1.37.46-1.7 1.72-1.66 3.58.07 7.16.06 10.73 0 1.16-.02 1.62.3 1.6 1.54-.07 3.82-.07 7.65 0 11.48.02 1.23-.45 1.54-1.6 1.52-3.58-.05-7.16-.07-10.73 0-1.27.03-1.8-.3-1.72-1.66.1-1.9.02-3.82.02-5.74zM75.58 45.28c-1.82-.16-4.7.94-6.1-.4-1.4-1.33-.35-4.23-.44-6.45-.08-1.9.03-3.83-.03-5.74-.03-1.1.38-1.45 1.45-1.43 3.74.04 7.48.05 11.23 0 1.16-.02 1.36.5 1.35 1.5-.03 3.66-.05 7.32 0 10.98.03 1.2-.37 1.6-1.56 1.55-1.82-.08-3.66-.02-5.9-.02zM40.02 38.4c0 1.76-.08 3.5.03 5.25.08 1.36-.46 1.68-1.73 1.66-3.57-.06-7.15-.05-10.73 0-1.16.02-1.62-.3-1.6-1.53.07-3.66.07-7.32 0-10.98-.02-1.24.45-1.55 1.6-1.54 3.57.06 7.15.07 10.73 0 1.26-.03 1.8.3 1.72 1.66-.1 1.82-.03 3.66-.03 5.5z"/></g></g></svg>