<?xml version="1.0" encoding="iso-8859-1"?>
<!-- Generator: Adobe Illustrator 19.0.1, SVG Export Plug-In . SVG Version: 6.00 Build 0)  -->
<svg version="1.1" xmlns="http://www.w3.org/2000/svg" xmlns:xlink="http://www.w3.org/1999/xlink" x="0px" y="0px"
	 viewBox="0 0 128.004 189.912" enable-background="new 0 0 128.004 189.912" xml:space="preserve">
<g id="_x31_-_Blue_Dog">
	<g id="Layer_2" display="none" opacity="0.4">
	</g>
</g>
<g id="_x32_-_Options">
	<g id="medication">
	</g>
	<g id="talking">
	</g>
	<g id="practical">
		<g id="mirror_2_">
		</g>
	</g>
</g>
<g id="_x33_-_Practical_Intro">
	<g id="List">
	</g>
</g>
<g id="_x34_-_Practical_List">
</g>
<g id="_x35_-_Support_Locations">
</g>
<g id="_x36_-Shy_Dog">
</g>
<g id="_x37_-Better_Dog">
</g>
<g id="_x38_-Therapist_Dog">
	<g id="chair_2_">
		<path fill="#616161" d="M118.597,121c0.003,0,7,0,7,0c0.097,3,0.194,5.746,0.292,8.601c0.224,6.587,0.449,13.193,0.673,19.78
			c0.251,7.362,0.502,14.734,0.752,22.096c0.108,3.161,0.215,6.326,0.323,9.487c0.054,1.58,0.108,3.163,0.161,4.743
			c0.027,0.801,0.451,2.966-0.006,3.61c-0.136,0.191-0.352,0.31-0.571,0.394c-0.792,0.307-1.715,0.257-2.468-0.135
			c-2.173-1.131-1.67-4.08-1.811-6.111c-0.174-2.496-0.348-4.991-0.521-7.486c-0.48-6.887-0.959-13.773-1.439-20.66
			c-0.486-6.984-0.973-13.968-1.459-20.953c-0.29-4.166-0.58-8.37-0.871-12.536C118.65,121.792,118.606,121,118.597,121z"/>
		<polygon fill="#616161" points="117.931,122.408 121.931,179.074 121.264,180.241 120.097,179.241 115.431,122.241 		"/>
		<polygon fill="#BDBDBD" points="118.847,122.324 123.431,188.199 122.681,186.241 121.847,178.949 117.722,122.449 		"/>
		<path fill="#616161" d="M40.222,124.595c0,0-2.062,31.24-8.896,53.073l-0.885,0.141l-2.203,7.914l-0.758,0.676l-1.691,0.369
			l-1.814,0.122l-1.362-0.126L22,186.575v-0.688v-0.812c0,0,7.111-36.812,6.424-61.25L40.222,124.595z"/>
		<path fill="#D7CCC8" d="M124.894,99.802c2.131,3.559,2.379,7.79,2.065,11.829c-0.054,0.697-0.937,10.418-0.862,10.443
			c-2.255-0.75-6.562,0.391-8.944,0.506c-4.94,0.237-9.88,0.473-14.82,0.71c-26.952,1.291-54.655,2.951-81.736,0.785
			c-1.944-13.212-3.888-26.424-5.831-39.636c-2.919-19.842-5.839-39.684-8.758-59.526c-0.423-2.878-0.158-7.275-2.302-9.47
			c-0.906-0.928-2.012-1.673-2.745-2.743C-3.204,6.615,7.26,2.191,11.456,1.426c4.961-0.904,13.171-3.027,17.358,0.695
			c1.701,1.513,2.526,3.812,2.753,6.077c0.058,0.58,0.101,1.163,0.131,1.748c0.295,5.675-0.586,11.546-0.158,17.264
			c0.492,6.578,1.928,12.825,3.163,19.272c1.142,5.958,1.532,11.992,3.376,17.832c1.989,6.32,4.899,12.441,9.075,17.62
			c6.636,8.229,19.681,8.312,29.376,8.026c0.629-0.019,0.599,10.303,1.234,10.281L124.894,99.802z"/>
	</g>
</g>
<g id="_x39_-_Therapy_Details">
	<g id="text_6_">
	</g>
</g>
<g id="_x31_0-Combining_Therapies">
	<g id="text_7_">
	</g>
	<g id="Isometric_Grid">
	</g>
	<g id="chair_3_">
	</g>
</g>
<g id="_x31_1-Medication_Script">
</g>
<g id="_x31_2-Dog_With_Medication">
</g>
<g id="_x31_3-Medication_Check_Ups">
</g>
<g id="_x31_4-Medication_Side_Effects">
	<g id="shy_dog_1_">
	</g>
</g>
</svg>
