<svg xmlns="http://www.w3.org/2000/svg" viewBox="0 0 128.004 189.912" enable-background="new 0 0 128.004 189.912"><g><g><path fill="#616161" d="M9.4 121s-7 0-7 0c-.1 3-.2 5.75-.28 8.6-.23 6.6-.45 13.2-.68 19.78-.25 7.36-.5 14.74-.75 22.1-.12 3.16-.22 6.32-.33 9.48-.06 1.58-.1 3.17-.16 4.75-.02.8-.44 2.97 0 3.62.15.2.36.3.58.4.8.3 1.72.25 2.47-.14 2.17-1.13 1.67-4.08 1.8-6.1.2-2.5.36-5 .53-7.5.48-6.9.96-13.77 1.44-20.66.5-6.98.98-13.97 1.46-20.95.3-4.17.58-8.37.87-12.54 0-.04.05-.83.06-.83zM10.07 122.4l-4 56.67.67 1.17 1.17-1 4.67-57z"/><path fill="#BDBDBD" d="M9.16 122.32l-4.6 65.88.76-1.96.84-7.3 4.12-56.5z"/><path fill="#616161" d="M87.78 124.6s2.06 31.24 8.9 53.07l.88.14 2.2 7.92.76.68 1.7.37 1.8.12 1.87-.14 1.1-.18v-1.5s-7.6-36.82-6.92-61.25l-12.3.77z"/><path fill="#D7CCC8" d="M3.1 99.8C1 103.36.74 107.6 1.05 111.63c.06.7.94 10.42.87 10.44 2.26-.75 6.57.4 8.95.5 4.94.25 9.88.48 14.82.72 26.95 1.28 54.66 2.94 81.74.77 1.95-13.2 3.9-26.42 5.84-39.63 2.92-19.84 5.84-39.69 8.76-59.53.42-2.87.15-7.26 2.3-9.46.9-.93 2-1.67 2.74-2.74 4.17-6.08-6.3-10.5-10.5-11.27-4.95-.9-13.16-3.03-17.35.7-1.7 1.5-2.54 3.8-2.76 6.07-.06.58-.1 1.16-.13 1.75-.3 5.67.6 11.54.16 17.26-.5 6.6-1.92 12.83-3.16 19.28-1.14 5.96-1.53 12-3.37 17.83-2 6.33-4.9 12.45-9.08 17.63-6.64 8.23-19.68 8.32-29.38 8.03-.62-.02-.6 10.3-1.23 10.28L3.1 99.8z"/></g></g></svg>