<svg xmlns="http://www.w3.org/2000/svg" viewBox="0 0 128.004 189.912" enable-background="new 0 0 128.004 189.912"><g><g><path fill="#616161" d="M118.6 121s7 0 7 0c.1 3 .2 5.75.3 8.6.2 6.6.44 13.2.66 19.78.25 7.36.5 14.74.75 22.1.12 3.16.23 6.32.34 9.48.05 1.58.1 3.17.16 4.75.02.8.45 2.97 0 3.62-.14.2-.36.3-.58.4-.8.3-1.7.25-2.47-.14-2.17-1.13-1.67-4.08-1.8-6.1-.18-2.5-.36-5-.53-7.5-.48-6.9-.96-13.77-1.44-20.66-.48-6.98-.97-13.97-1.46-20.95-.3-4.17-.58-8.37-.87-12.54 0-.04-.04-.83-.05-.83zM117.93 122.4l4 56.67-.67 1.17-1.16-1-4.67-57z"/><path fill="#BDBDBD" d="M118.85 122.32l4.58 65.88-.75-1.96-.83-7.3-4.13-56.5z"/><path fill="#616161" d="M40.22 124.6s-2.06 31.24-8.9 53.07l-.88.14-2.2 7.92-.76.68-1.7.37-1.8.12-1.37-.14-.6-.2v-1.5s7.1-36.8 6.42-61.25l11.8.78z"/><path fill="#D7CCC8" d="M124.9 99.8c2.12 3.56 2.37 7.8 2.06 11.83-.05.7-.94 10.42-.86 10.44-2.26-.75-6.56.4-8.95.5-4.94.25-9.88.48-14.82.72-26.95 1.28-54.65 2.94-81.73.77-1.95-13.2-3.9-26.42-5.83-39.63C11.85 64.6 8.93 44.75 6 24.9c-.42-2.87-.15-7.26-2.3-9.46-.9-.93-2-1.67-2.74-2.74-4.16-6.08 6.3-10.5 10.5-11.27 4.96-.9 13.17-3.03 17.35.7 1.7 1.5 2.54 3.8 2.77 6.07.05.58.1 1.16.13 1.75.3 5.67-.6 11.54-.16 17.26.5 6.6 1.93 12.84 3.16 19.28 1.14 5.96 1.53 12 3.38 17.83 2 6.33 4.9 12.45 9.07 17.63 6.64 8.23 19.68 8.32 29.38 8.03.63-.02.6 10.3 1.23 10.28l47.13-.44z"/></g></g></svg>