<svg xmlns="http://www.w3.org/2000/svg" viewBox="0 0 112.317 153.101" enable-background="new 0 0 112.317 153.101"><g><g><path fill="#A1887F" d="M38.22 128.25H16.8v-22.47H38.2v22.47zm68.2-23.83c.03 12.54.05 25.08.08 37.62-11.94 0-23.88 0-35.82 0-1.07 0-2.18-.16-3.13.53.02-8.56.02-17.13.1-25.7 0-1.24-.48-1.94-1.47-2.6-2.9-1.96-5.76-3.96-8.56-6.05-1.04-.78-1.8-.8-2.84-.03-2.8 2.07-5.67 4.08-8.57 6.03-1 .67-1.4 1.42-1.4 2.64.07 8.57.07 17.14.1 25.7-.97-.7-2.53-.52-3.6-.52-11.94 0-24.3-.02-36.3-.03 0-12.53 0-25.05 0-37.58 1-.3 1.6-.63 2.2-.9 14.4-6.32 29.1-12.5 43.4-19.04 3.8-1.74 6.97-1.78 10.8-.02 14.88 6.85 30.04 13.32 45.03 19.94zm-72.95 12.45c0-2.4-.05-4.4 0-6.4.05-1.07-.3-1.47-1.4-1.44-2.1.07-4.17-.04-6.25.04-2.2.08-5.13-.98-6.46.44-1.3 1.4-.4 4.3-.36 6.5.04 2.47-1.1 5.75.5 7.15 1.4 1.2 4.6.4 7 .38 2.22 0 5.2.74 6.48-.4 1.5-1.32.27-4.38.5-6.26zM95 110.8c.1-1.46-.48-1.8-1.85-1.78-3.66.08-7.32.08-10.98 0-1.27-.02-1.76.3-1.73 1.66.1 3.75.1 7.5 0 11.23-.03 1.37.46 1.73 1.73 1.67 1.82-.1 3.66.05 5.5-.04 2.37-.12 5.54 1.07 6.9-.5"/><path fill="#A1887F" d="M84.5 48.9c-.07 10.56-.12 21.13-.17 31.7-8.7-3.94-17.4-7.84-26.05-11.88-1.67-.78-3-.78-4.65 0-8.48 4-17.03 7.88-25.55 11.8-.05-10.57-.1-21.15-.14-31.73 9-6.27 18-12.52 27-18.8.84-.6 1.45-.77 2.4-.1 9.03 6.36 18.1 12.67 27.15 19zM56.1 61.54c2.4 0 4.82-.08 7.23.02 1.36.06 1.68-.46 1.66-1.72-.07-4.74-.06-9.5 0-14.23 0-1.15-.3-1.6-1.54-1.6-4.83.07-9.65.07-14.48 0-1.23 0-1.54.45-1.53 1.6.05 4.74.06 9.5 0 14.23-.02 1.26.3 1.78 1.66 1.72 2.33-.1 4.66-.02 7-.02z"/><path fill="#6D4C41" d="M28.08 80.53c8.52-3.92 17.07-7.8 25.55-11.8 1.66-.8 2.98-.8 4.65 0 8.65 4.03 17.36 7.93 26.05 11.88 8.18 3.83 16.3 7.78 24.57 11.4 2.6 1.14 3.5 2.36 3.4 5.32-.07 2.56-.1 5.15-.03 7.73.06 1.55-.44 1.66-1.7 1.04-1.34-.66-2.76-1.13-4.14-1.68-15-6.62-30.04-13.1-44.92-19.94-3.82-1.76-6.9-1.72-10.68.02-14.3 6.53-28.76 12.72-43.15 19.04-.6.27-1.17.6-1.76.9-1.37.55-2.8 1-4.12 1.67-1.58.83-1.8.2-1.76-1.22.07-3.16.12-6.32-.02-9.48-.06-1.44.57-2 1.75-2.53 8.52-3.9 17-7.87 25.5-11.82.3-.14.55-.35.83-.52zM84.5 48.9c-9.07-6.34-18.13-12.64-27.16-19-.95-.67-1.56-.5-2.4.1-9 6.28-18 12.53-27 18.8-.9.55-1.8 1.1-3.07 1.88 0-3.83 0-7.35 0-10.88 0-1.13 1.02-1.44 1.73-1.95 8.7-6.42 17.42-12.8 26.13-19.2 1.37-1 2.67-6.34 1.65-7.64-.86-1.1-2.26-.4-3.5-.43-.95-.02-1.96.3-1.97-1.38 0-1.6.7-1.68 1.94-1.68 3.78 0 3.62-.05 3.63-4.08 0-.75-.07-1.5-.06-2.27.02-1.15.9-1.1 1.97-1.16 1.38-.07 1.77.47 1.6 1.72-.04.4 0 .83 0 1.24 0 4.24 0 4.3 4.2 4.55 1.14.08 1.37.5 1.32 1.5-.05.87.07 1.6-1.24 1.6-1.38-.03-3.3-.7-4 .32-.7 1.05-.3 2.86-.32 4.35 0 1.84.6 2.82 2.03 3.84 8.65 6.2 17.22 12.52 25.86 18.73 1.28.92 1.86 1.86 1.78 3.48-.13 3-.03 6-.03 9.1-1.35-.02-3.04-1.48-3.08-1.5z"/><path fill="#263238" d="M44.9 142.77c-.03-8.57-.03-17.23-.1-25.8 0-1.22.4-2.02 1.4-2.7 2.9-1.94 5.77-3.98 8.58-6.05 1.04-.77 1.8-.76 2.84.02 2.8 2.08 5.66 4.08 8.56 6.03 1 .67 1.47 1.36 1.46 2.6-.07 8.58-.07 17.33-.1 25.9 0 0-.06.23-.06.23-7.5 0-15.02 0-22.53 0l-.06-.23z"/><path fill="#6D4C41" d="M70.67 142c11.94 0 23.88 0 35.82 0 2.87-.04 3.03.7 3 3.1 0 2.17.02 4.35 0 6.5-.03 1.05-.3 1.38-1.42 1.45-.4-.05-.83 0-1.25 0-33.73 0-67.46-.03-101.2.05-2.16 0-2.64-.53-2.7-2.7-.05-1.82-.05-3.67 0-5.5.06-2.56.63-2.96 2.98-2.9 11.96 0 23.9 0 35.86 0h28.91z"/><path fill="#455A64" d="M95 122.88c0 .62-.5 1.12-1.12 1.12H81.12c-.62 0-1.12-.5-1.12-1.12v-12.76c0-.62.5-1.12 1.12-1.12h12.76c.62 0 1.12.5 1.12 1.12v12.76zM33 122.88c0 .62-.5 1.12-1.12 1.12H19.12c-.62 0-1.12-.5-1.12-1.12v-12.76c0-.62.5-1.12 1.12-1.12h12.76c.62 0 1.12.5 1.12 1.12v12.76zM65 60.7c0 .72-.58 1.3-1.3 1.3H48.3c-.72 0-1.3-.58-1.3-1.3V45.3c0-.72.58-1.3 1.3-1.3h15.4c.72 0 1.3.58 1.3 1.3v15.4z"/></g></g></svg>