<?xml version="1.0" encoding="iso-8859-1"?>
<!-- Generator: Adobe Illustrator 19.0.1, SVG Export Plug-In . SVG Version: 6.00 Build 0)  -->
<svg version="1.1" xmlns="http://www.w3.org/2000/svg" xmlns:xlink="http://www.w3.org/1999/xlink" x="0px" y="0px"
	 viewBox="0 0 112.317 153.101" enable-background="new 0 0 112.317 153.101" xml:space="preserve">
<g id="_x31_-_Blue_Dog">
	<g id="Layer_2" display="none" opacity="0.4">
	</g>
</g>
<g id="_x32_-_Options">
	<g id="medication">
	</g>
	<g id="talking">
	</g>
	<g id="practical">
		<g id="mirror_2_">
		</g>
	</g>
</g>
<g id="_x33_-_Practical_Intro">
	<g id="List">
	</g>
</g>
<g id="_x34_-_Practical_List">
</g>
<g id="_x35_-_Support_Locations">
	<g id="church_1_">
		<path fill="#A1887F" d="M38.221,128.247H16.792v-22.468h21.429V128.247z M106.429,104.415c0.022,12.54,0.044,25.081,0.066,37.621
			c-11.94,0.004-23.88,0.006-35.82,0.015c-1.067,0.001-2.171-0.171-3.125,0.524c0.02-8.567,0.016-17.134,0.087-25.7
			c0.01-1.248-0.469-1.946-1.459-2.613c-2.895-1.95-5.757-3.955-8.556-6.041c-1.043-0.777-1.801-0.8-2.847-0.028
			c-2.808,2.074-5.666,4.083-8.562,6.033c-1.004,0.676-1.421,1.421-1.412,2.649c0.067,8.566,0.065,17.133,0.086,25.7
			c-0.955-0.696-2.514-0.523-3.582-0.524C29.355,142.037,17,142.029,5,142.02c0-12.527,0-25.055,0-37.582
			c1-0.301,1.61-0.633,2.211-0.897c14.394-6.324,29.078-12.514,43.378-19.045c3.797-1.734,6.979-1.778,10.813-0.013
			C76.279,91.331,91.443,97.803,106.429,104.415z M33.467,116.866c0-2.4-0.045-4.398,0.018-6.392
			c0.034-1.074-0.328-1.476-1.425-1.442c-2.077,0.066-4.161-0.043-6.237,0.034c-2.216,0.082-5.128-0.972-6.459,0.442
			c-1.31,1.393-0.398,4.278-0.362,6.501c0.04,2.459-1.093,5.742,0.503,7.139c1.385,1.212,4.588,0.39,6.987,0.386
			c2.228-0.004,5.209,0.735,6.488-0.399C34.478,121.807,33.246,118.755,33.467,116.866z M94.996,110.81
			c0.096-1.469-0.474-1.82-1.85-1.789c-3.658,0.083-7.32,0.074-10.979,0.004c-1.265-0.024-1.756,0.302-1.725,1.659
			c0.085,3.741,0.085,7.487,0,11.228c-0.031,1.356,0.458,1.718,1.726,1.657c1.826-0.089,3.662,0.049,5.488-0.04
			c2.379-0.115,5.556,1.07,6.901-0.493"/>
		<path fill="#A1887F" d="M84.487,48.888c-0.052,10.572-0.105,21.144-0.157,31.717c-8.69-3.946-17.402-7.845-26.05-11.881
			c-1.673-0.781-2.986-0.784-4.649,0.001c-8.484,4.004-17.028,7.879-25.55,11.8c-0.048-10.578-0.097-21.155-0.145-31.733
			c9.003-6.261,18.012-12.513,26.998-18.797c0.844-0.59,1.461-0.765,2.408-0.097C66.368,36.259,75.433,42.566,84.487,48.888z
			 M56.095,61.546c2.413,0,4.829-0.072,7.238,0.028c1.359,0.057,1.676-0.459,1.66-1.724c-0.062-4.742-0.054-9.486-0.004-14.228
			c0.012-1.153-0.298-1.61-1.529-1.595c-4.825,0.059-9.652,0.059-14.477,0c-1.231-0.015-1.542,0.441-1.53,1.595
			c0.05,4.742,0.057,9.486-0.004,14.228c-0.016,1.265,0.3,1.784,1.659,1.724C51.432,61.473,53.765,61.546,56.095,61.546z"/>
		<path fill="#6D4C41" d="M28.08,80.525c8.523-3.92,17.067-7.796,25.55-11.8c1.664-0.785,2.977-0.782,4.649-0.001
			c8.648,4.037,17.36,7.935,26.05,11.881c8.181,3.825,16.306,7.777,24.575,11.401c2.597,1.138,3.502,2.355,3.405,5.314
			c-0.084,2.562-0.122,5.154-0.036,7.73c0.052,1.553-0.442,1.664-1.706,1.042c-1.332-0.656-2.755-1.125-4.139-1.676
			c-14.986-6.612-30.036-13.084-44.913-19.933c-3.834-1.765-6.902-1.721-10.699,0.013c-14.3,6.531-28.756,12.721-43.15,19.045
			c-0.601,0.264-1.171,0.597-1.755,0.897c-1.383,0.549-2.822,0.993-4.136,1.675c-1.572,0.816-1.782,0.201-1.751-1.237
			c0.068-3.157,0.112-6.32-0.02-9.473c-0.06-1.445,0.567-1.996,1.75-2.538c8.515-3.901,16.999-7.868,25.49-11.82
			C27.54,80.907,27.802,80.7,28.08,80.525z"/>
		<path fill="#6D4C41" d="M84.487,48.888c-9.054-6.323-18.119-12.63-27.146-18.991c-0.947-0.668-1.564-0.493-2.408,0.097
			c-8.987,6.284-17.995,12.536-26.998,18.797c-0.901,0.556-1.802,1.112-3.061,1.89c0-3.829-0.007-7.354,0.004-10.879
			c0.004-1.129,1.017-1.441,1.719-1.957c8.702-6.411,17.42-12.802,26.132-19.199c1.371-1.007,2.674-6.334,1.654-7.633
			c-0.865-1.103-2.267-0.423-3.514-0.444c-0.938-0.016-1.949,0.316-1.961-1.381c-0.011-1.596,0.687-1.669,1.934-1.668
			c3.775,0.004,3.62-0.047,3.626-4.075c0.001-0.755-0.063-1.516-0.057-2.271c0.009-1.158,0.903-1.111,1.96-1.167
			c1.378-0.073,1.768,0.466,1.609,1.71c-0.052,0.409-0.008,0.831-0.008,1.247c0.001,4.24-0.002,4.299,4.185,4.545
			c1.156,0.068,1.381,0.484,1.334,1.488c-0.041,0.869,0.08,1.605-1.231,1.59c-1.376-0.016-3.313-0.697-4.001,0.335
			c-0.7,1.049-0.31,2.856-0.315,4.352c-0.006,1.837,0.6,2.82,2.024,3.839c8.656,6.19,17.22,12.508,25.864,18.715
			c1.281,0.92,1.857,1.866,1.78,3.48c-0.141,2.987-0.04,5.985-0.04,9.095C86.217,50.381,84.532,48.923,84.487,48.888z"/>
		<path fill="#263238" d="M44.888,142.769c-0.02-8.567-0.018-17.23-0.086-25.796c-0.01-1.227,0.408-2.021,1.412-2.697
			c2.896-1.95,5.754-3.983,8.562-6.057c1.046-0.773,1.804-0.762,2.847,0.016c2.798,2.086,5.66,4.085,8.556,6.035
			c0.991,0.667,1.47,1.362,1.459,2.61c-0.071,8.566-0.067,17.324-0.087,25.891c0,0-0.066,0.23-0.066,0.23c-7.51,0-15.02,0-22.53,0
			L44.888,142.769z"/>
		<path fill="#6D4C41" d="M70.675,142c11.94,0,23.88,0.015,35.82,0.011c2.87-0.051,3.037,0.691,3.019,3.103
			c-0.017,2.155,0.008,4.333-0.027,6.498c-0.017,1.035-0.288,1.371-1.41,1.44c-0.411-0.048-0.832-0.005-1.248-0.005
			c-33.729,0-67.458-0.022-101.186,0.054c-2.173,0.005-2.651-0.531-2.714-2.706c-0.053-1.819-0.052-3.67-0.004-5.485
			c0.068-2.569,0.63-2.969,2.987-2.914C17.86,142.004,29.81,142,41.761,142H70.675z"/>
		<path fill="#455A64" d="M95,122.879c0,0.619-0.502,1.121-1.121,1.121H81.121c-0.619,0-1.121-0.502-1.121-1.121v-12.757
			c0-0.619,0.502-1.121,1.121-1.121h12.757c0.619,0,1.121,0.502,1.121,1.121V122.879z"/>
		<path fill="#455A64" d="M33,122.879c0,0.619-0.502,1.121-1.121,1.121H19.121c-0.619,0-1.121-0.502-1.121-1.121v-12.757
			c0-0.619,0.502-1.121,1.121-1.121h12.757c0.619,0,1.121,0.502,1.121,1.121V122.879z"/>
		<path fill="#455A64" d="M65,60.704C65,61.42,64.42,62,63.704,62H48.296C47.58,62,47,61.42,47,60.704V45.296
			C47,44.58,47.58,44,48.296,44h15.408C64.42,44,65,44.58,65,45.296V60.704z"/>
	</g>
</g>
<g id="_x36_-Shy_Dog">
</g>
<g id="_x37_-Better_Dog">
</g>
<g id="_x38_-Therapist_Dog">
</g>
<g id="_x39_-_Therapy_Details">
	<g id="text_6_">
	</g>
</g>
<g id="_x31_0-Combining_Therapies">
	<g id="text_7_">
	</g>
	<g id="Isometric_Grid">
	</g>
	<g id="chair_3_">
	</g>
</g>
<g id="_x31_1-Medication_Script">
</g>
<g id="_x31_2-Dog_With_Medication">
</g>
<g id="_x31_3-Medication_Check_Ups">
</g>
<g id="_x31_4-Medication_Side_Effects">
</g>
</svg>
