<svg xmlns="http://www.w3.org/2000/svg" viewBox="0 0 331.667 331.667" enable-background="new 0 0 331.667 331.667"><g><g><circle cx="165.833" cy="165.833" r="163.333" fill="#fff" stroke="#6D4C41" stroke-width="5" stroke-miterlimit="10"/><path fill="none" d="M146.58 30.33h36.75v19.5h-36.75z"/><path fill="#2196F3" d="M151.1 36.17v14.3c0 1.36-.35 2.4-1.05 3.14-.7.75-1.67 1.12-2.92 1.12-.25 0-.48-.02-.7-.06-.2-.03-.42-.1-.65-.16l.17-1.9c.1.05.28.08.5.1.2.04.37.05.5.05.54 0 .96-.18 1.28-.54.3-.34.47-.92.47-1.73v-14.3h2.4zm-.07-3.43h-2.4v-2.4h2.4v2.4zM162.92 49.38c-.08-.4-.15-.75-.2-1.05-.04-.3-.06-.6-.07-.92-.45.64-1.03 1.17-1.75 1.6-.72.43-1.5.64-2.33.64-1.37 0-2.42-.35-3.14-1.06-.72-.7-1.08-1.67-1.08-2.9 0-1.27.5-2.26 1.53-2.97s2.4-1.06 4.15-1.06h2.62v-1.3c0-.77-.24-1.4-.7-1.84-.48-.45-1.15-.68-2-.68-.8 0-1.4.2-1.9.6-.48.4-.73.86-.73 1.42h-2.3l-.02-.08c-.04-.96.4-1.83 1.37-2.63.95-.8 2.2-1.2 3.7-1.2s2.7.38 3.6 1.14c.93.76 1.38 1.86 1.38 3.3v6.35c0 .47.02.93.07 1.37s.14.86.27 1.28h-2.48zm-4-1.77c.88 0 1.66-.2 2.36-.66.7-.44 1.16-.95 1.37-1.53v-2.13h-2.7c-.97 0-1.74.24-2.33.73-.58.48-.87 1.06-.87 1.7 0 .6.2 1.06.55 1.4.37.34.9.5 1.63.5zM170.7 36.17l.16 1.97c.44-.7 1-1.24 1.66-1.63.66-.38 1.4-.57 2.26-.57 1.43 0 2.53.42 3.3 1.25.8.84 1.18 2.12 1.18 3.86v8.34h-2.4v-8.3c0-1.15-.23-1.98-.7-2.46-.45-.5-1.15-.74-2.1-.74-.7 0-1.3.17-1.83.5-.54.34-.96.8-1.28 1.37v9.63h-2.4v-13.2h2.14z"/><path fill="none" d="M209.83 51.83h38v19.5h-38z"/><path fill="#00BCD4" d="M212.58 70.88V59.46h-2.06v-1.78h2.06V56c0-1.4.37-2.5 1.1-3.26.74-.77 1.77-1.16 3.1-1.16.26 0 .54.03.82.07.28.05.6.1.94.2l-.3 1.82c-.14-.03-.32-.06-.53-.08-.2-.04-.4-.05-.64-.05-.7 0-1.22.2-1.56.63s-.52 1.03-.52 1.82v1.68h2.75v1.78h-2.75v11.42h-2.4zM225.4 71.14c-1.84 0-3.3-.6-4.4-1.84-1.08-1.22-1.62-2.8-1.62-4.77V64c0-1.88.56-3.45 1.68-4.7 1.12-1.24 2.44-1.87 3.97-1.87 1.78 0 3.13.54 4.04 1.6.9 1.1 1.37 2.52 1.37 4.3v1.5h-8.57l-.04.07c.03 1.27.35 2.3.97 3.12.62.82 1.48 1.23 2.6 1.23.8 0 1.53-.12 2.14-.35.6-.23 1.15-.55 1.6-.96l.93 1.56c-.47.47-1.1.86-1.86 1.17-.77.3-1.7.47-2.8.47zm-.37-11.82c-.8 0-1.5.34-2.06 1.02-.57.68-.92 1.53-1.05 2.55l.02.05h6.1v-.32c0-.94-.26-1.72-.76-2.36-.5-.63-1.26-.95-2.25-.95zM244.42 64.78c0 1.9-.46 3.44-1.38 4.6s-2.17 1.76-3.77 1.76c-.88 0-1.63-.17-2.28-.5-.65-.34-1.18-.84-1.6-1.5l-.3 1.74h-1.96V51.84h2.4v7.4c.42-.6.93-1.04 1.55-1.35.6-.32 1.32-.47 2.14-.47 1.63 0 2.9.65 3.8 1.95.92 1.3 1.38 3.02 1.38 5.14v.26zm-2.4-.26c0-1.5-.3-2.74-.84-3.7-.56-.96-1.4-1.44-2.55-1.44-.74 0-1.36.2-1.87.55-.5.36-.92.85-1.22 1.46v5.7c.3.66.72 1.17 1.22 1.54s1.13.55 1.9.55c1.12 0 1.97-.42 2.52-1.22s.83-1.87.83-3.2v-.26z"/><path fill="none" d="M249.83 92.08h46v19.5h-46z"/><path fill="#009688" d="M253.73 97.92l.17 1.74c.43-.63.98-1.1 1.64-1.46.66-.35 1.44-.52 2.3-.52s1.65.2 2.28.6c.63.42 1.1 1.03 1.42 1.84.42-.75.96-1.34 1.65-1.78s1.47-.66 2.38-.66c1.34 0 2.4.46 3.2 1.4s1.16 2.3 1.16 4.15v7.9h-2.4v-7.92c0-1.3-.23-2.2-.68-2.76-.44-.54-1.1-.8-2-.8-.82 0-1.48.28-2 .85-.5.55-.8 1.28-.9 2.15v8.48h-2.4v-7.92c0-1.23-.24-2.13-.7-2.7-.46-.58-1.12-.87-1.98-.87-.73 0-1.33.15-1.8.45-.48.3-.84.73-1.1 1.27v9.78h-2.4v-13.2h2.15zM281.55 111.13c-.08-.4-.15-.75-.2-1.05-.04-.3-.06-.62-.07-.93-.45.64-1.03 1.17-1.75 1.6-.72.43-1.5.64-2.33.64-1.37 0-2.42-.36-3.14-1.07-.72-.7-1.08-1.67-1.08-2.9 0-1.27.5-2.26 1.53-2.97s2.42-1.07 4.17-1.07h2.6v-1.3c0-.78-.23-1.4-.7-1.85-.47-.45-1.14-.68-2-.68-.77 0-1.4.2-1.9.6-.47.4-.7.86-.7 1.42h-2.3l-.03-.1c-.05-.95.4-1.82 1.36-2.62.95-.8 2.2-1.2 3.7-1.2s2.7.38 3.62 1.14c.9.76 1.36 1.86 1.36 3.3v6.35c0 .47.03.93.08 1.37s.13.87.26 1.3h-2.47zm-4-1.77c.88 0 1.66-.22 2.36-.67.7-.45 1.17-.96 1.38-1.54v-2.14h-2.7c-.97 0-1.74.24-2.32.73-.6.48-.88 1.06-.88 1.7 0 .6.2 1.06.55 1.4.37.34.9.5 1.63.5zM293.43 100.05l-1.24-.07c-.64 0-1.18.15-1.6.45-.45.3-.78.72-1.02 1.27v9.43h-2.4v-13.2h2.14l.24 1.92c.37-.68.83-1.2 1.38-1.6.55-.38 1.18-.57 1.9-.57.18 0 .35.02.5.04.17.03.3.06.4.1l-.3 2.23z"/><path fill="none" d="M264.58 153.58h40v19.5h-40z"/><path fill="#4CAF50" d="M274.45 172.63c-.08-.4-.15-.75-.2-1.05-.04-.3-.06-.62-.07-.93-.45.64-1.03 1.17-1.75 1.6-.72.43-1.5.64-2.33.64-1.37 0-2.42-.36-3.14-1.07-.72-.7-1.08-1.67-1.08-2.9 0-1.27.5-2.26 1.53-2.97 1.03-.7 2.42-1.07 4.17-1.07h2.6v-1.3c0-.8-.23-1.4-.7-1.85-.47-.45-1.14-.68-2-.68-.78 0-1.4.2-1.9.6s-.72.86-.72 1.42h-2.3v-.1c-.06-.95.4-1.83 1.35-2.62.95-.8 2.2-1.2 3.7-1.2s2.7.38 3.6 1.14 1.38 1.86 1.38 3.3v6.35c0 .47.03.93.07 1.37s.14.87.27 1.3h-2.47zm-4-1.77c.88 0 1.66-.22 2.36-.67.7-.45 1.17-.96 1.38-1.54v-2.14h-2.7c-.97 0-1.74.24-2.33.73-.58.48-.87 1.06-.87 1.7 0 .6.2 1.06.55 1.4.37.34.9.5 1.63.5zM291.33 166.53c0 1.9-.46 3.44-1.37 4.6s-2.17 1.76-3.77 1.76c-.82 0-1.54-.15-2.15-.42-.62-.27-1.14-.68-1.57-1.23v6.46h-2.4v-18.27h1.84l.38 1.7c.43-.63.97-1.1 1.6-1.45.65-.33 1.4-.5 2.25-.5 1.64 0 2.9.65 3.82 1.95.9 1.3 1.36 3 1.36 5.14v.26zm-2.4-.26c0-1.5-.3-2.73-.9-3.7-.58-.95-1.45-1.43-2.6-1.43-.7 0-1.28.15-1.77.47-.5.32-.88.75-1.18 1.3v6.37c.3.54.7.97 1.18 1.27s1.1.46 1.8.46c1.14 0 2-.42 2.58-1.25s.88-1.9.88-3.23v-.25zM300.53 161.55l-1.23-.07c-.63 0-1.17.15-1.6.45-.44.3-.78.72-1 1.27v9.43h-2.42v-13.2h2.15l.23 1.93c.38-.7.84-1.22 1.4-1.6.54-.4 1.17-.58 1.9-.58.17 0 .34.02.5.05s.3.05.4.1l-.33 2.22z"/><path fill="#9FA8DA" d="M321.17 207.5L164.4 168.35l116.18 110.48c19.36-20.08 34.22-43.33 40.6-71.33z"/><path fill="none" d="M246.58 211.83h48.5v19.5h-48.5z"/><path fill="#CDDC39" d="M250.48 217.68l.17 1.73c.43-.62.98-1.1 1.64-1.45.65-.35 1.43-.52 2.3-.52s1.64.2 2.27.6c.63.42 1.1 1.03 1.42 1.84.4-.75.95-1.34 1.64-1.78s1.48-.67 2.4-.67c1.33 0 2.4.46 3.18 1.4s1.17 2.3 1.17 4.15v7.9h-2.4v-7.92c0-1.3-.24-2.22-.7-2.76-.43-.55-1.1-.82-2-.82-.8 0-1.47.3-1.98.86-.5.57-.8 1.3-.9 2.16v8.48h-2.42v-7.92c0-1.24-.23-2.14-.7-2.72-.45-.57-1.1-.86-1.97-.86-.73 0-1.33.15-1.8.46-.48.3-.84.72-1.1 1.27v9.78h-2.4v-13.2h2.15zM278.3 230.88c-.08-.4-.15-.75-.2-1.05-.04-.3-.06-.62-.07-.93-.45.64-1.03 1.17-1.75 1.6-.72.43-1.5.64-2.33.64-1.37 0-2.42-.35-3.14-1.06-.7-.7-1.07-1.67-1.07-2.9 0-1.27.5-2.26 1.53-2.97 1.02-.7 2.4-1.06 4.16-1.06h2.6v-1.3c0-.78-.23-1.4-.7-1.84-.47-.45-1.14-.68-2-.68-.77 0-1.4.2-1.9.6-.47.4-.7.86-.7 1.42h-2.3l-.03-.08c-.06-.96.4-1.84 1.35-2.63.95-.8 2.2-1.2 3.7-1.2s2.7.38 3.62 1.14c.9.76 1.36 1.86 1.36 3.3v6.35c0 .47.03.93.08 1.37s.14.86.27 1.28h-2.47zm-4-1.77c.88 0 1.66-.2 2.36-.66.7-.44 1.16-.95 1.37-1.53v-2.13h-2.7c-.97 0-1.74.24-2.32.73-.58.48-.87 1.06-.87 1.7 0 .6.2 1.06.55 1.4.37.34.9.5 1.63.5zM287.78 226l.43 1.65h.08l3.25-9.98h2.67l-5.55 15.24c-.34.9-.8 1.67-1.44 2.33-.6.66-1.45 1-2.5 1-.2 0-.45-.04-.75-.08-.3-.05-.53-.1-.7-.13l.25-1.9c-.05 0 .1 0 .43.03.34.03.55.04.64.04.5 0 .93-.24 1.26-.7.32-.45.6-.95.82-1.5l.57-1.4-4.9-12.93H285l2.78 8.32z"/><path fill="none" d="M207.83 258.83h37v19.5h-37z"/><path fill="#FFC107" d="M212.35 264.68v14.3c0 1.35-.35 2.4-1.05 3.13-.7.75-1.67 1.12-2.92 1.12-.25 0-.48-.02-.7-.06-.2-.03-.42-.1-.65-.16l.17-1.9c.1.05.28.08.5.1.2.04.37.05.5.05.54 0 .96-.18 1.28-.53.3-.36.47-.94.47-1.75v-14.3h2.4zm-.07-3.44h-2.4v-2.4h2.4v2.4zM224.44 275.93c-.42.7-.95 1.25-1.6 1.64-.65.38-1.4.57-2.26.57-1.44 0-2.57-.46-3.37-1.38-.8-.92-1.2-2.35-1.2-4.3v-7.8h2.4v7.83c0 1.4.2 2.36.63 2.9s1.06.78 1.94.78c.85 0 1.56-.17 2.1-.5.57-.36 1-.85 1.28-1.5v-9.5h2.4v13.2h-2.16l-.16-1.95zM232.4 264.68l.18 1.96c.44-.7 1-1.24 1.65-1.63.66-.38 1.42-.57 2.27-.57 1.42 0 2.52.42 3.3 1.25.78.84 1.18 2.12 1.18 3.87v8.33h-2.4v-8.3c0-1.15-.24-1.97-.7-2.46-.46-.5-1.16-.74-2.1-.74-.7 0-1.3.17-1.84.5-.53.34-.96.8-1.28 1.37v9.63h-2.4v-13.2h2.15z"/><path fill="none" d="M149.58 280.83h28.75v19.5h-28.75z"/><path fill="#FF9800" d="M154.1 286.68v14.3c0 1.35-.35 2.4-1.05 3.13-.7.75-1.67 1.12-2.92 1.12-.25 0-.48-.02-.7-.06-.2-.03-.42-.1-.65-.16l.17-1.9c.1.05.28.08.5.1.2.04.37.05.5.05.54 0 .96-.18 1.28-.53.3-.36.47-.94.47-1.75v-14.3h2.4zm-.07-3.44h-2.4v-2.4h2.4v2.4zM166.2 297.93c-.43.7-.96 1.25-1.6 1.64-.66.38-1.42.57-2.27.57-1.44 0-2.57-.46-3.37-1.38-.8-.92-1.2-2.35-1.2-4.3v-7.8h2.4v7.83c0 1.4.2 2.36.62 2.9s1.06.78 1.94.78c.85 0 1.56-.17 2.1-.5.57-.36 1-.85 1.28-1.5v-9.5h2.4v13.2h-2.16l-.15-1.95zM174.6 299.88h-2.4v-19.04h2.4v19.04z"/><path fill="none" d="M77.58 257.58h45.25v19.5H77.58z"/><path fill="#FF5722" d="M87.45 276.63c-.1-.4-.15-.75-.2-1.05-.04-.3-.06-.6-.07-.92-.45.63-1.03 1.16-1.75 1.6-.72.42-1.5.63-2.33.63-1.37 0-2.42-.36-3.14-1.07-.72-.7-1.08-1.67-1.08-2.9 0-1.27.5-2.26 1.53-2.97 1.03-.7 2.42-1.07 4.17-1.07h2.6v-1.3c0-.78-.23-1.4-.7-1.85-.47-.45-1.14-.68-2-.68-.77 0-1.4.2-1.9.6s-.72.86-.72 1.42h-2.3v-.1c-.06-.95.4-1.82 1.35-2.62.95-.8 2.2-1.2 3.7-1.2s2.7.38 3.6 1.14 1.38 1.86 1.38 3.3v6.35c0 .47.03.93.07 1.37s.14.87.27 1.3h-2.47zm-4-1.77c.88 0 1.66-.22 2.36-.67.7-.45 1.17-.97 1.38-1.54v-2.14h-2.7c-.97 0-1.74.24-2.33.73-.58.48-.87 1.06-.87 1.7 0 .6.2 1.06.55 1.4.37.34.9.5 1.63.5zM101.46 274.68c-.4.7-.95 1.25-1.6 1.64-.65.38-1.4.57-2.26.57-1.44 0-2.56-.47-3.37-1.4-.8-.9-1.2-2.34-1.2-4.3v-7.78h2.4v7.82c0 1.4.2 2.37.62 2.9s1.06.8 1.94.8c.85 0 1.55-.18 2.1-.52.57-.35 1-.84 1.27-1.48v-9.52h2.4v13.2h-2.15l-.16-1.94zM106.76 270.27c0-2.12.46-3.83 1.4-5.14s2.2-1.95 3.84-1.95c.83 0 1.57.17 2.2.5s1.17.83 1.6 1.47l.28-1.73H118v13.3c0 1.68-.5 2.98-1.48 3.9-.98.9-2.4 1.35-4.26 1.35-.63 0-1.32-.1-2.05-.27-.73-.17-1.38-.4-1.94-.7l.6-1.88c.44.25.96.44 1.57.6s1.2.22 1.8.22c1.18 0 2.03-.27 2.57-.8.53-.53.8-1.34.8-2.44v-1.48c-.44.55-.95.97-1.55 1.25-.6.28-1.3.42-2.08.42-1.62 0-2.9-.6-3.82-1.77s-1.4-2.7-1.4-4.6v-.26zm2.4.26c0 1.33.28 2.4.85 3.2.57.8 1.42 1.2 2.57 1.2.72 0 1.33-.16 1.82-.5.47-.32.88-.78 1.2-1.4v-6.06c-.3-.57-.72-1-1.2-1.34-.5-.33-1.1-.5-1.8-.5-1.15 0-2 .48-2.58 1.44-.57.96-.86 2.2-.86 3.7v.26z"/><path fill="none" d="M38.58 212.33h42.75v19.5H38.58z"/><path fill="#9C27B0" d="M48 227.87c0-.53-.2-.97-.6-1.3-.4-.35-1.16-.65-2.28-.9-1.6-.35-2.8-.82-3.62-1.42-.8-.6-1.22-1.4-1.22-2.44 0-1.07.46-1.98 1.37-2.74s2.1-1.13 3.56-1.13c1.55 0 2.77.4 3.68 1.2.9.77 1.34 1.73 1.3 2.87l-.02.07h-2.3c0-.58-.24-1.1-.72-1.56s-1.13-.68-1.93-.68c-.84 0-1.48.2-1.9.56-.4.38-.6.83-.6 1.36 0 .52.17.93.54 1.23.36.3 1.1.57 2.23.8 1.67.36 2.9.85 3.72 1.46.8.62 1.2 1.44 1.2 2.48 0 1.18-.46 2.13-1.4 2.85-.96.73-2.2 1.1-3.73 1.1-1.68 0-3-.44-3.98-1.3s-1.43-1.85-1.38-2.98l.02-.08h2.3c.03.84.35 1.47.95 1.86s1.28.6 2.07.6c.86 0 1.53-.2 2-.53s.74-.8.74-1.36zM58.88 231.64c-1.84 0-3.3-.6-4.4-1.84-1.07-1.22-1.6-2.8-1.6-4.76v-.54c-.02-1.88.55-3.45 1.66-4.7 1.12-1.24 2.45-1.87 3.98-1.87 1.78 0 3.13.54 4.04 1.6.9 1.1 1.37 2.52 1.37 4.3v1.5h-8.57l-.04.07c.02 1.27.35 2.3.96 3.12.62.82 1.5 1.23 2.6 1.23.82 0 1.53-.12 2.15-.35.6-.23 1.14-.55 1.6-.96l.93 1.56c-.47.47-1.1.86-1.87 1.17-.78.3-1.72.47-2.82.47zm-.36-11.82c-.8 0-1.5.34-2.06 1.02-.57.68-.92 1.53-1.05 2.55l.03.05h6.1v-.32c0-.94-.26-1.72-.77-2.36-.5-.63-1.25-.95-2.24-.95zM77.88 225.28c0 1.9-.46 3.44-1.37 4.6s-2.16 1.76-3.76 1.76c-.8 0-1.53-.14-2.14-.4-.62-.28-1.14-.7-1.57-1.24v6.46h-2.4v-18.3h1.84l.38 1.72c.43-.63.96-1.12 1.6-1.45.65-.33 1.4-.5 2.25-.5 1.64 0 2.9.65 3.82 1.95.9 1.3 1.36 3 1.36 5.14v.26zm-2.4-.26c0-1.5-.3-2.73-.9-3.7-.58-.95-1.45-1.43-2.6-1.43-.7 0-1.28.14-1.77.46-.48.3-.87.74-1.17 1.28v6.38c.3.54.7.97 1.18 1.27s1.1.45 1.8.45c1.15 0 2-.42 2.6-1.25s.87-1.9.87-3.23v-.25z"/><path fill="#80CBC4" d="M10.33 123.33l154.17 44.84-114.67-114c-19.44 20.46-32.14 43.9-39.5 69.16z"/><path fill="none" d="M24.58 154.33h40v19.5h-40z"/><path fill="#673AB7" d="M25.77 166.66c0-1.96.53-3.56 1.6-4.83s2.48-1.9 4.3-1.9c1.82 0 3.27.63 4.33 1.9 1.07 1.26 1.6 2.87 1.6 4.83v.27c0 1.97-.53 3.58-1.6 4.83-1.05 1.26-2.5 1.88-4.3 1.88-1.83 0-3.28-.63-4.34-1.88-1.06-1.26-1.6-2.87-1.6-4.83v-.27zm2.4.26c0 1.4.3 2.55.9 3.46.58.9 1.45 1.37 2.62 1.37 1.14 0 2-.46 2.6-1.37.6-.9.9-2.06.9-3.46v-.27c0-1.38-.3-2.53-.9-3.45-.6-.92-1.48-1.38-2.63-1.38s-2.02.46-2.6 1.38c-.6.92-.9 2.07-.9 3.45v.27zM45.9 171.75c.8 0 1.5-.25 2.12-.74.6-.48.9-1.1.9-1.8h2.16l.03.07c.05 1.14-.46 2.15-1.5 3.04-1.07.9-2.3 1.34-3.7 1.34-1.9 0-3.38-.63-4.4-1.88-1.02-1.25-1.52-2.83-1.52-4.72v-.52c0-1.88.5-3.44 1.53-4.7 1.03-1.26 2.5-1.9 4.4-1.9 1.55 0 2.82.47 3.8 1.38s1.45 2.03 1.42 3.35l-.02.08h-2.18c0-.8-.28-1.5-.85-2.06s-1.3-.85-2.16-.85c-1.26 0-2.16.46-2.7 1.36-.54.9-.8 2.02-.8 3.34v.5c0 1.36.26 2.48.8 3.38.54.9 1.44 1.35 2.7 1.35zM56.98 157v3.18h2.5v1.78h-2.5v8.02c0 .62.13 1.05.39 1.3.25.26.6.38 1 .38.15 0 .3 0 .47-.04.17-.04.32-.08.45-.13l.3 1.64c-.18.15-.44.27-.78.36-.35.1-.7.14-1.05.14-.97 0-1.75-.3-2.33-.88-.57-.6-.86-1.52-.86-2.78v-8.02h-2.1v-1.78h2.1v-3.2h2.4z"/><path fill="none" d="M38.08 93.83h44v19.5h-44z"/><path fill="#3F51B5" d="M41.98 99.67l.17 1.97c.44-.7 1-1.24 1.65-1.63.67-.38 1.42-.57 2.27-.57 1.42 0 2.52.42 3.3 1.25.8.84 1.18 2.12 1.18 3.86v8.34h-2.4v-8.3c0-1.15-.24-1.98-.7-2.46-.46-.5-1.16-.74-2.1-.74-.7 0-1.3.17-1.84.5-.52.34-.95.8-1.26 1.37v9.63h-2.4v-13.2h2.14zM53.48 106.16c0-1.96.53-3.56 1.58-4.83s2.5-1.9 4.3-1.9c1.84 0 3.3.63 4.35 1.9 1.07 1.26 1.6 2.87 1.6 4.83v.27c0 1.97-.52 3.58-1.58 4.83s-2.5 1.88-4.32 1.88c-1.82 0-3.27-.63-4.33-1.88-1.06-1.26-1.6-2.87-1.6-4.83v-.27zm2.4.26c0 1.4.3 2.55.9 3.46.58.9 1.45 1.37 2.62 1.37 1.14 0 2.02-.46 2.6-1.37.6-.9.9-2.06.9-3.46v-.27c0-1.38-.3-2.53-.9-3.45-.6-.92-1.47-1.38-2.63-1.38-1.14 0-2 .46-2.6 1.38-.6.92-.9 2.07-.9 3.45v.27zM72.47 109l.2.92h.08l.23-.93 3.04-9.32h2.46l-4.86 13.2H71.8l-4.92-13.2h2.47l3.12 9.3z"/><path fill="none" d="M81.08 47.58h43.25v19.5H81.08z"/><path fill="#2196F3" d="M82.28 60.27c0-2.12.45-3.83 1.36-5.14.9-1.3 2.18-1.95 3.8-1.95.8 0 1.47.14 2.07.43.6.3 1.12.7 1.54 1.25V47.6h2.4v19.03H91.5L91.2 65c-.43.63-.96 1.1-1.6 1.4-.6.33-1.34.5-2.17.5-1.6 0-2.87-.6-3.8-1.76-.9-1.17-1.35-2.7-1.35-4.6v-.27zm2.4.26c0 1.33.28 2.4.82 3.2.55.8 1.4 1.2 2.54 1.2.72 0 1.32-.16 1.8-.48.5-.33.9-.78 1.2-1.37v-6.16c-.3-.55-.7-.98-1.2-1.3s-1.08-.48-1.77-.48c-1.16 0-2 .47-2.56 1.42-.54.96-.82 2.2-.82 3.72v.25zM102.52 66.9c-1.84 0-3.3-.62-4.4-1.85-1.08-1.22-1.62-2.8-1.62-4.77v-.53c0-1.88.56-3.45 1.68-4.7s2.44-1.87 3.97-1.87c1.8 0 3.13.54 4.04 1.6.9 1.1 1.36 2.52 1.36 4.3v1.5H99l-.04.07c.02 1.27.34 2.3.96 3.12s1.5 1.23 2.6 1.23c.8 0 1.53-.12 2.14-.35.62-.23 1.15-.55 1.6-.96l.94 1.55c-.48.47-1.1.86-1.87 1.17-.78.3-1.7.47-2.8.47zm-.37-11.83c-.8 0-1.5.34-2.06 1.02-.58.67-.93 1.52-1.06 2.54l.02.06h6.1v-.32c0-.94-.26-1.72-.76-2.36-.5-.63-1.25-.95-2.25-.95zM115.63 65c.8 0 1.5-.25 2.1-.74s.9-1.1.9-1.8h2.17l.03.06c.04 1.14-.47 2.15-1.52 3.04s-2.27 1.33-3.67 1.33c-1.92 0-3.4-.64-4.4-1.9-1.03-1.24-1.53-2.82-1.53-4.7v-.53c0-1.88.5-3.45 1.53-4.7 1.02-1.26 2.48-1.9 4.4-1.9 1.54 0 2.8.47 3.8 1.38s1.44 2.03 1.4 3.35v.08h-2.2c0-.8-.27-1.5-.84-2.06-.58-.57-1.3-.85-2.17-.85-1.26 0-2.16.45-2.7 1.36-.55.9-.82 2.02-.82 3.33v.52c0 1.35.28 2.47.82 3.37.54.9 1.44 1.35 2.7 1.35z"/></g><g><path fill="#5D4037" d="M160.25 138.42c-3.57 0-13.28.55-16.67 1.73-4.62 1.6-6.9 6.94-11.22 9.4-3.2 1.8-6.63 3.6-8.5 6.77-2.5 4.22-.56 8.5 1.64 12.36 2.42 4.25 4.7 8.58 7.02 12.9 1.4 2.56 2.8 5.16 4.82 7.26 2.65 2.75 7.88 5.45 11.46 2.83 2.95-2.16 2.4-6.13 1.6-9.24-1.2-4.55-3.46-8.72-4.43-13.38-1-4.84-1.32-10.47 1.02-14.94 2.65-5.06 10.93-10.45 13.25-15.68z"/><path fill="#5D4037" d="M177.67 138.65c1.73 1.12 5.57 4.23 6.65 5.96 1.77 2.84 6.14 5.66 7.9 8.5 3.72 5.93 2.37 10.8 1.2 17.1-.57 3.14-1.4 6.17-2.17 9.27-.74 3.04-2.18 7.74.32 10.28 1.46 1.47 3.7 2.02 5.74 1.7 2.55-.4 4.9-2.03 6.4-4.08 3.75-5.18 7.4-10.47 10.4-16.14 1.4-2.66 1.56-4.35 1.66-7.3.13-3.7 0-6.2-2.38-9.4-3.65-4.9-9.38-7.53-13.23-12.3-.75-.92-1.45-1.9-2.37-2.63-3.4-2.72-16.24-1.66-20.1-.95z"/><path fill="#D7CCC8" d="M157 138.94c-3.73 3.37-7.98 7.53-10.3 12-2.56 4.9-3 10.7-2.2 16.1.7 4.77 2.57 9.23 4.06 13.8 1.43 4.37 2.23 8.6 3 13.18.7 4.22 2.78 10.9 7.77 11.9 2.74.56 5.82-.17 8.46-.82 3.94-.97 7.12 1.58 11.07.9 2.95-.52 5.68-2.2 7.5-4.58 2.1-2.75 2.15-5.9 2.76-9.17.98-5.3 2.14-10.53 3.5-15.73 1-3.97 2.05-7.93 3.18-11.9 1.37-4.75-.15-10.07-3-13.97-1.9-2.6-4.37-4.48-6.53-6.8-4.57-4.9-8.03-9.58-15.3-10.28-5.37-.52-10 1.77-13.88 5.28-.04.03-.07.06-.1.1z"/><circle cx="156.754" cy="166.731" r="3.955" fill="#263238"/><circle cx="181.169" cy="166.559" r="3.611" fill="#263238"/><path fill="#263238" d="M171.83 186.2c-2.93-.5-6.6-1-8.8 1.53-1.64 1.9-1.48 4.97-.04 7.04s3.9 3.26 6.4 3.67c3.1.5 6.56-.16 8.73-2.43 1.77-1.83 2.55-5.23 1.07-7.48-1.75-2.64-5.46-1.97-8.18-2.3"/></g><path fill="#fff" stroke="#B0BEC5" stroke-miterlimit="10" d="M149.17 129.48l5.93 16.25c10-2.43 19.62-2.57 28.95-.65l4.45-16.9c-13.1-5.2-26.22-4.77-39.33 1.3z"/><path fill="none" stroke="#FF1744" stroke-width="2" stroke-miterlimit="10" d="M169 130v10M164 135h10"/></g></svg>