<svg xmlns="http://www.w3.org/2000/svg" viewBox="0 0 71 71" enable-background="new 0 0 71 71"><g><g><circle cx="35.5" cy="35.5" r="33" fill="#fff" stroke="#6D4C41" stroke-width="5" stroke-miterlimit="10"/><path fill="none" d="M10.17 20.17h50v29.66h-50z"/><path fill="#5C6BC0" d="M23.55 31.6H21.8l1.75-8.76h-2.23l.24-1.2 4.12-.7-2.13 10.66zM38.18 28.04c-.25 1.23-.66 2.16-1.24 2.78s-1.32.93-2.23.93c-.4 0-.75-.07-1.07-.23-.32-.15-.58-.37-.78-.65l-.76 3.77h-1.76l2.2-10.97h1.56l-.06.77c.28-.3.6-.52.93-.68.34-.16.7-.24 1.08-.24.86 0 1.5.42 1.9 1.26.42.84.5 1.88.26 3.1l-.02.16zm-1.72-.15c.17-.87.17-1.57-.02-2.1s-.56-.82-1.12-.82c-.3 0-.57.1-.82.26-.25.17-.47.4-.67.7l-.73 3.64c.1.24.26.43.48.55.22.13.5.2.85.2.52 0 .94-.2 1.28-.62.35-.4.6-.95.73-1.66l.03-.15zM42.24 31.75c-1.02 0-1.8-.37-2.3-1.1-.53-.75-.7-1.7-.52-2.83l.04-.3c.2-1.2.65-2.16 1.38-2.9s1.57-1.1 2.5-1.1c.98 0 1.68.33 2.13.98.44.66.57 1.52.4 2.6l-.17 1.05h-4.57c-.07.67 0 1.2.25 1.6.24.38.64.57 1.2.57.4 0 .8-.06 1.14-.17s.68-.3 1-.5l.38 1.16c-.32.28-.72.5-1.2.68-.5.18-1.05.27-1.66.27zm.88-6.8c-.37 0-.7.18-1.02.53-.3.35-.54.8-.7 1.33l.03.04h2.75l.03-.18c.1-.52.04-.94-.13-1.25s-.5-.45-.95-.45zM51.48 25.3l-.8-.03c-.3 0-.56.07-.8.22s-.43.34-.6.6l-1.1 5.5h-1.75L48 23.67h1.62l-.1 1.05c.25-.38.54-.68.87-.88.3-.2.66-.32 1.03-.32.1 0 .2 0 .32.03.1.02.2.04.27.06l-.54 1.7zM24.55 45.6c.27-1.35.7-2.37 1.3-3.05.58-.68 1.34-1.02 2.27-1.02.37 0 .7.08 1.02.24.3.16.57.4.78.68l.85-4.28h1.75L30.24 49.6h-1.5l.03-.8c-.28.32-.6.55-.94.7-.35.17-.7.25-1.1.25-.84 0-1.48-.38-1.9-1.15-.43-.77-.54-1.72-.3-2.85l.02-.15zm1.73.15c-.16.78-.15 1.4.03 1.86s.57.7 1.13.7c.3 0 .56-.1.82-.26.26-.17.5-.42.7-.73l.7-3.5c-.1-.26-.28-.46-.5-.6-.22-.15-.5-.22-.8-.22-.53 0-.95.24-1.3.7-.33.48-.58 1.12-.74 1.92l-.02.15zM36.47 49.6c-.02-.17-.03-.33-.04-.5 0-.16 0-.32.02-.48-.3.33-.65.6-1.04.8-.4.23-.8.33-1.2.33-.7 0-1.24-.22-1.6-.65-.34-.44-.45-1.02-.3-1.74.16-.8.56-1.42 1.2-1.82.62-.4 1.45-.6 2.5-.6h1.15l.14-.7c.08-.44.04-.77-.13-1-.17-.22-.46-.33-.87-.33-.35 0-.66.1-.92.3-.27.2-.44.46-.5.76H33.2v-.04c.1-.67.48-1.23 1.13-1.7s1.43-.7 2.35-.7c.8 0 1.45.25 1.92.73s.62 1.14.45 2l-.7 3.53c-.08.35-.13.67-.14.96s0 .57.04.86h-1.77zm-1.6-1.28c.3 0 .64-.08.98-.26s.6-.4.8-.64l.28-1.38h-1.2c-.4 0-.78.13-1.1.4s-.5.55-.57.9c-.07.3-.04.56.1.73.13.17.37.25.7.25zM42.74 46.42v.65h.05l2.62-5.4h1.92L42.5 50.8c-.32.55-.7 1.02-1.13 1.4-.44.4-.98.6-1.64.6-.13 0-.27-.02-.44-.05-.17-.03-.32-.07-.46-.1l.47-1.38c.07 0 .15.02.25.02s.2 0 .25 0c.27 0 .52-.1.77-.34.24-.24.43-.5.57-.74l.4-.7-1.1-7.85h1.92l.38 4.75z"/><g><circle cx="34.75" cy="11" r="1.771" fill="#757575"/><circle cx="34.75" cy="60.833" r="2.021" fill="#757575"/><circle cx="59.583" cy="35.083" r="1.625" fill="#757575"/><circle cx="10.167" cy="35" r="1.646" fill="#757575"/><circle cx="22.667" cy="14.083" r="1" fill="#BDBDBD"/><circle cx="14.833" cy="22.75" r="1" fill="#BDBDBD"/><circle cx="13.833" cy="47.5" r="1.083" fill="#BDBDBD"/><circle cx="21.5" cy="56.75" r="1.083" fill="#BDBDBD"/><circle cx="47" cy="56.917" r="1.167" fill="#BDBDBD"/><circle cx="56.333" cy="47.083" r="1" fill="#BDBDBD"/><circle cx="56.083" cy="23" r="1" fill="#BDBDBD"/><circle cx="47.417" cy="14.667" r="1" fill="#BDBDBD"/></g></g></g></svg>