<?xml version="1.0" encoding="iso-8859-1"?>
<!-- Generator: Adobe Illustrator 19.0.1, SVG Export Plug-In . SVG Version: 6.00 Build 0)  -->
<svg version="1.1" xmlns="http://www.w3.org/2000/svg" xmlns:xlink="http://www.w3.org/1999/xlink" x="0px" y="0px"
	 viewBox="0 0 71 71" enable-background="new 0 0 71 71" xml:space="preserve">
<g id="_x31_-_Blue_Dog">
	<g id="Layer_2" display="none" opacity="0.4">
	</g>
</g>
<g id="_x32_-_Options">
	<g id="medication">
	</g>
	<g id="talking">
	</g>
	<g id="practical">
		<g id="mirror_2_">
		</g>
	</g>
</g>
<g id="_x33_-_Practical_Intro">
	<g id="List">
	</g>
</g>
<g id="_x34_-_Practical_List">
</g>
<g id="_x35_-_Support_Locations">
</g>
<g id="_x36_-Shy_Dog">
</g>
<g id="_x37_-Better_Dog">
</g>
<g id="_x38_-Therapist_Dog">
</g>
<g id="_x39_-_Therapy_Details">
	<g id="text_6_">
	</g>
</g>
<g id="_x31_0-Combining_Therapies">
	<g id="text_7_">
	</g>
	<g id="Isometric_Grid">
	</g>
	<g id="chair_3_">
	</g>
</g>
<g id="_x31_1-Medication_Script">
</g>
<g id="_x31_2-Dog_With_Medication">
	<g id="clock_4_">
		<circle fill="#FFFFFF" stroke="#6D4C41" stroke-width="5" stroke-miterlimit="10" cx="35.5" cy="35.5" r="33"/>
		<g>
			<rect x="10.167" y="20.167" fill="none" width="50" height="29.667"/>
			<path fill="#5C6BC0" d="M23.55,31.597h-1.751l1.751-8.752h-2.227l0.241-1.209l4.117-0.703L23.55,31.597z"/>
			<path fill="#5C6BC0" d="M38.176,28.044c-0.248,1.23-0.661,2.156-1.237,2.776s-1.321,0.931-2.233,0.931
				c-0.396,0-0.754-0.076-1.073-0.229c-0.32-0.152-0.583-0.371-0.788-0.655l-0.754,3.776h-1.75l2.189-10.972h1.567l-0.059,0.769
				c0.283-0.293,0.593-0.519,0.931-0.677c0.336-0.159,0.697-0.238,1.084-0.238c0.854,0,1.487,0.42,1.9,1.26
				c0.412,0.84,0.496,1.875,0.252,3.105L38.176,28.044z M36.463,27.887c0.17-0.858,0.162-1.557-0.026-2.096s-0.56-0.808-1.116-0.808
				c-0.293,0-0.566,0.085-0.817,0.256c-0.251,0.17-0.478,0.407-0.677,0.709l-0.726,3.636c0.098,0.238,0.257,0.422,0.479,0.548
				c0.223,0.127,0.507,0.19,0.854,0.19c0.513,0,0.938-0.203,1.278-0.61c0.339-0.407,0.579-0.965,0.722-1.672L36.463,27.887z"/>
			<path fill="#5C6BC0" d="M42.241,31.751c-1.016,0-1.786-0.371-2.311-1.113c-0.525-0.742-0.694-1.683-0.509-2.82l0.043-0.293
				c0.191-1.196,0.65-2.163,1.381-2.9s1.564-1.104,2.502-1.099c0.971,0,1.678,0.326,2.12,0.978c0.441,0.652,0.577,1.518,0.406,2.597
				l-0.169,1.048h-4.577c-0.068,0.666,0.017,1.195,0.257,1.587c0.238,0.392,0.637,0.588,1.193,0.588c0.415,0,0.796-0.06,1.143-0.179
				s0.684-0.286,1.011-0.5l0.366,1.167c-0.317,0.265-0.721,0.487-1.209,0.668C43.4,31.661,42.852,31.751,42.241,31.751z
				 M43.12,24.955c-0.371,0-0.712,0.174-1.021,0.523c-0.311,0.349-0.538,0.792-0.685,1.329l0.014,0.036h2.754l0.029-0.183
				c0.078-0.522,0.032-0.938-0.139-1.245S43.584,24.955,43.12,24.955z"/>
			<path fill="#5C6BC0" d="M51.477,25.298l-0.805-0.029c-0.289,0-0.55,0.073-0.784,0.22s-0.437,0.352-0.608,0.615l-1.098,5.493
				h-1.751l1.582-7.925h1.604l-0.104,1.048c0.26-0.381,0.551-0.676,0.876-0.883c0.324-0.208,0.673-0.312,1.044-0.312
				c0.098,0,0.203,0.009,0.318,0.025c0.114,0.018,0.203,0.038,0.268,0.062L51.477,25.298z"/>
			<path fill="#5C6BC0" d="M24.549,45.598c0.27-1.348,0.699-2.363,1.289-3.047c0.592-0.684,1.351-1.025,2.278-1.025
				c0.376,0,0.719,0.081,1.029,0.241c0.31,0.162,0.567,0.389,0.772,0.682l0.857-4.277h1.75L30.24,49.597h-1.509l0.044-0.783
				c-0.288,0.307-0.604,0.54-0.948,0.699c-0.345,0.158-0.707,0.238-1.088,0.238c-0.85,0-1.488-0.385-1.915-1.154
				c-0.428-0.769-0.529-1.717-0.305-2.846L24.549,45.598z M26.277,45.751c-0.156,0.782-0.144,1.402,0.037,1.861
				s0.552,0.688,1.113,0.688c0.293,0,0.567-0.086,0.824-0.26c0.256-0.173,0.489-0.416,0.699-0.729l0.695-3.508
				c-0.107-0.259-0.271-0.461-0.494-0.604c-0.223-0.145-0.494-0.216-0.816-0.216c-0.513,0-0.939,0.235-1.278,0.706
				c-0.339,0.472-0.589,1.107-0.751,1.908L26.277,45.751z"/>
			<path fill="#5C6BC0" d="M36.466,49.597c-0.02-0.166-0.03-0.33-0.033-0.49c-0.003-0.162,0.004-0.322,0.019-0.484
				c-0.303,0.328-0.65,0.598-1.044,0.81c-0.394,0.213-0.8,0.319-1.22,0.319c-0.697,0-1.225-0.219-1.578-0.656
				c-0.354-0.437-0.457-1.014-0.311-1.732c0.16-0.814,0.557-1.424,1.186-1.827c0.631-0.402,1.465-0.604,2.506-0.604h1.156
				l0.14-0.695c0.088-0.439,0.048-0.771-0.121-0.992c-0.168-0.223-0.458-0.334-0.868-0.334c-0.346,0-0.654,0.1-0.922,0.297
				c-0.27,0.198-0.433,0.448-0.491,0.751h-1.677l-0.016-0.044c0.107-0.664,0.486-1.228,1.136-1.691s1.433-0.696,2.351-0.696
				c0.811,0,1.451,0.239,1.92,0.718s0.617,1.147,0.446,2.007l-0.703,3.522c-0.073,0.352-0.118,0.672-0.136,0.96
				s-0.006,0.576,0.033,0.864H36.466z M34.861,48.323c0.322,0,0.652-0.088,0.989-0.264s0.603-0.388,0.798-0.638l0.279-1.377H35.74
				c-0.42,0-0.788,0.13-1.105,0.389s-0.51,0.56-0.578,0.9c-0.068,0.322-0.036,0.568,0.099,0.736
				C34.289,48.239,34.525,48.323,34.861,48.323z"/>
			<path fill="#5C6BC0" d="M42.742,46.418l0.008,0.651l0.044,0.008l2.63-5.405h1.918l-4.855,9.126
				c-0.308,0.547-0.68,1.017-1.117,1.41c-0.438,0.393-0.982,0.59-1.637,0.59c-0.132,0-0.278-0.017-0.439-0.048
				c-0.161-0.032-0.312-0.065-0.454-0.099l0.469-1.377c0.059,0.004,0.14,0.012,0.245,0.021s0.188,0.015,0.246,0.015
				c0.268,0,0.524-0.118,0.769-0.355c0.244-0.236,0.435-0.482,0.571-0.735l0.41-0.711l-1.099-7.837h1.911L42.742,46.418z"/>
		</g>
		<g id="clock_dots_3_">
			<circle fill="#757575" cx="34.75" cy="11" r="1.771"/>
			<circle fill="#757575" cx="34.75" cy="60.833" r="2.021"/>
			<circle fill="#757575" cx="59.583" cy="35.083" r="1.625"/>
			<circle fill="#757575" cx="10.167" cy="35" r="1.646"/>
			<circle fill="#BDBDBD" cx="22.667" cy="14.083" r="1"/>
			<circle fill="#BDBDBD" cx="14.833" cy="22.75" r="1"/>
			<circle fill="#BDBDBD" cx="13.833" cy="47.5" r="1.083"/>
			<circle fill="#BDBDBD" cx="21.5" cy="56.75" r="1.083"/>
			<circle fill="#BDBDBD" cx="47" cy="56.917" r="1.167"/>
			<circle fill="#BDBDBD" cx="56.333" cy="47.083" r="1"/>
			<circle fill="#BDBDBD" cx="56.083" cy="23" r="1"/>
			<circle fill="#BDBDBD" cx="47.417" cy="14.667" r="1"/>
		</g>
	</g>
</g>
<g id="_x31_3-Medication_Check_Ups">
</g>
<g id="_x31_4-Medication_Side_Effects">
	<g id="shy_dog_1_">
	</g>
</g>
</svg>
