<?xml version="1.0" encoding="iso-8859-1"?>
<!-- Generator: Adobe Illustrator 19.0.1, SVG Export Plug-In . SVG Version: 6.00 Build 0)  -->
<svg version="1.1" xmlns="http://www.w3.org/2000/svg" xmlns:xlink="http://www.w3.org/1999/xlink" x="0px" y="0px"
	 viewBox="0 0 71 71" enable-background="new 0 0 71 71" xml:space="preserve">
<g id="_x31_-_Blue_Dog">
	<g id="Layer_2" display="none" opacity="0.4">
	</g>
</g>
<g id="_x32_-_Options">
	<g id="medication">
	</g>
	<g id="talking">
	</g>
	<g id="practical">
		<g id="mirror_2_">
		</g>
	</g>
</g>
<g id="_x33_-_Practical_Intro">
	<g id="List">
	</g>
</g>
<g id="_x34_-_Practical_List">
</g>
<g id="_x35_-_Support_Locations">
</g>
<g id="_x36_-Shy_Dog">
</g>
<g id="_x37_-Better_Dog">
</g>
<g id="_x38_-Therapist_Dog">
</g>
<g id="_x39_-_Therapy_Details">
	<g id="text_6_">
	</g>
	<g id="clock_3_">
		<circle fill="#FFFFFF" stroke="#6D4C41" stroke-width="5" stroke-miterlimit="10" cx="35.5" cy="35.5" r="33"/>
		<g>
			<rect x="9.167" y="28.833" fill="none" width="50" height="18"/>
			<path fill="#5C6BC0" d="M18.295,40.263h-1.751l1.751-8.752h-2.227l0.241-1.209l4.116-0.703L18.295,40.263z"/>
			<path fill="#5C6BC0" d="M28.82,33.253c0.312-0.341,0.657-0.604,1.036-0.787c0.379-0.183,0.777-0.274,1.197-0.274
				c0.738,0,1.285,0.27,1.641,0.81c0.357,0.539,0.428,1.352,0.213,2.436l-0.967,4.826h-1.75l0.967-4.842
				c0.131-0.668,0.117-1.131-0.045-1.388c-0.16-0.256-0.476-0.384-0.944-0.384c-0.283,0-0.563,0.072-0.843,0.219
				c-0.277,0.146-0.527,0.348-0.746,0.602l-1.158,5.793h-1.75l2.285-11.426h1.75L28.82,33.253z"/>
			<path fill="#5C6BC0" d="M34.159,36.228c0.195-1.226,0.65-2.205,1.363-2.938s1.602-1.099,2.666-1.099
				c1.02,0,1.781,0.381,2.285,1.143c0.502,0.762,0.661,1.727,0.476,2.894l-0.022,0.153c-0.199,1.235-0.654,2.217-1.365,2.944
				s-1.601,1.092-2.67,1.092c-1.021,0-1.782-0.38-2.285-1.14c-0.503-0.759-0.659-1.725-0.469-2.896L34.159,36.228z M35.887,36.377
				c-0.131,0.805-0.102,1.441,0.088,1.909c0.191,0.468,0.572,0.702,1.143,0.702c0.533,0,0.979-0.245,1.338-0.735
				c0.357-0.489,0.599-1.115,0.721-1.876l0.021-0.153c0.123-0.79,0.088-1.422-0.102-1.895c-0.191-0.473-0.569-0.709-1.136-0.709
				c-0.532,0-0.978,0.247-1.337,0.742s-0.597,1.115-0.714,1.861L35.887,36.377z"/>
			<path fill="#5C6BC0" d="M46.369,40.263l0.095-1.004c-0.307,0.381-0.654,0.67-1.043,0.865c-0.389,0.194-0.812,0.293-1.271,0.293
				c-0.746,0-1.301-0.276-1.662-0.828s-0.428-1.389-0.197-2.512l0.944-4.739h1.743l-0.945,4.753
				c-0.15,0.743-0.156,1.241-0.018,1.494c0.139,0.255,0.418,0.381,0.838,0.381c0.357,0,0.686-0.079,0.986-0.237
				c0.299-0.159,0.557-0.385,0.771-0.678l1.143-5.713h1.751l-1.582,7.925H46.369z"/>
			<path fill="#5C6BC0" d="M54.733,33.964l-0.806-0.029c-0.288,0-0.55,0.073-0.784,0.22s-0.437,0.352-0.607,0.615l-1.099,5.493
				h-1.751l1.582-7.925h1.604l-0.103,1.048c0.259-0.381,0.551-0.676,0.875-0.883c0.324-0.208,0.673-0.312,1.044-0.312
				c0.098,0,0.204,0.009,0.319,0.025c0.113,0.018,0.203,0.038,0.267,0.062L54.733,33.964z"/>
		</g>
		<g id="clock_dots_2_">
			<circle fill="#757575" cx="34.75" cy="11" r="1.771"/>
			<circle fill="#757575" cx="34.75" cy="60.833" r="2.021"/>
			<circle fill="#757575" cx="59.583" cy="35.083" r="1.625"/>
			<circle fill="#757575" cx="10.167" cy="35" r="1.646"/>
			<circle fill="#BDBDBD" cx="22.667" cy="14.083" r="1"/>
			<circle fill="#BDBDBD" cx="14.833" cy="22.75" r="1"/>
			<circle fill="#BDBDBD" cx="13.833" cy="47.5" r="1.083"/>
			<circle fill="#BDBDBD" cx="21.5" cy="56.75" r="1.083"/>
			<circle fill="#BDBDBD" cx="47" cy="56.917" r="1.167"/>
			<circle fill="#BDBDBD" cx="56.333" cy="47.083" r="1"/>
			<circle fill="#BDBDBD" cx="56.083" cy="23" r="1"/>
			<circle fill="#BDBDBD" cx="47.417" cy="14.667" r="1"/>
		</g>
	</g>
</g>
<g id="_x31_0-Combining_Therapies">
	<g id="text_7_">
	</g>
	<g id="Isometric_Grid">
	</g>
	<g id="chair_3_">
	</g>
</g>
<g id="_x31_1-Medication_Script">
</g>
<g id="_x31_2-Dog_With_Medication">
</g>
<g id="_x31_3-Medication_Check_Ups">
</g>
<g id="_x31_4-Medication_Side_Effects">
</g>
</svg>
