<svg xmlns="http://www.w3.org/2000/svg" viewBox="0 0 71 71" enable-background="new 0 0 71 71"><g><g><circle cx="35.5" cy="35.5" r="33" fill="#fff" stroke="#6D4C41" stroke-width="5" stroke-miterlimit="10"/><path fill="none" d="M9.17 28.83h50v18h-50z"/><path fill="#5C6BC0" d="M18.3 40.26h-1.76l1.76-8.75h-2.23l.24-1.2 4.13-.7-2.13 10.66zM28.82 33.25c.3-.34.66-.6 1.04-.78.38-.2.77-.28 1.2-.28.73 0 1.28.26 1.63.8.35.54.42 1.35.2 2.44l-.96 4.82H30.2l.96-4.84c.13-.67.1-1.13-.05-1.4-.15-.24-.46-.37-.93-.37-.28 0-.56.07-.84.22-.28.15-.53.35-.75.6l-1.16 5.8h-1.75l2.3-11.43h1.74l-.88 4.4zM34.16 36.23c.2-1.23.65-2.2 1.36-2.94s1.6-1.1 2.67-1.1c1 0 1.77.37 2.27 1.13.5.77.66 1.73.48 2.9l-.02.15c-.2 1.24-.66 2.22-1.37 2.94s-1.6 1.1-2.67 1.1c-1.03 0-1.8-.38-2.3-1.14-.5-.76-.65-1.73-.46-2.9l.02-.15zm1.73.15c-.14.8-.1 1.44.08 1.9.2.47.57.7 1.14.7.53 0 .98-.24 1.34-.73.35-.5.6-1.1.72-1.87l.02-.16c.12-.8.1-1.42-.1-1.9-.2-.46-.57-.7-1.14-.7-.53 0-.98.25-1.34.74s-.6 1.12-.7 1.86l-.03.16zM46.37 40.26l.1-1c-.3.38-.66.67-1.05.86-.4.2-.8.3-1.27.3-.75 0-1.3-.28-1.66-.83s-.44-1.4-.2-2.52l.93-4.74h1.75l-.95 4.75c-.15.73-.15 1.23 0 1.48.12.26.4.4.82.4.36 0 .7-.1 1-.25.3-.16.55-.4.76-.68l1.15-5.7h1.75l-1.58 7.9h-1.55zM54.73 33.96l-.8-.03c-.3 0-.55.08-.8.22s-.42.36-.6.62l-1.1 5.5H49.7l1.57-7.93h1.6l-.1 1.05c.26-.4.55-.7.87-.9.33-.2.68-.3 1.05-.3.1 0 .2 0 .3.02.12 0 .2.03.27.06l-.54 1.68z"/><g><circle cx="34.75" cy="11" r="1.771" fill="#757575"/><circle cx="34.75" cy="60.833" r="2.021" fill="#757575"/><circle cx="59.583" cy="35.083" r="1.625" fill="#757575"/><circle cx="10.167" cy="35" r="1.646" fill="#757575"/><circle cx="22.667" cy="14.083" r="1" fill="#BDBDBD"/><circle cx="14.833" cy="22.75" r="1" fill="#BDBDBD"/><circle cx="13.833" cy="47.5" r="1.083" fill="#BDBDBD"/><circle cx="21.5" cy="56.75" r="1.083" fill="#BDBDBD"/><circle cx="47" cy="56.917" r="1.167" fill="#BDBDBD"/><circle cx="56.333" cy="47.083" r="1" fill="#BDBDBD"/><circle cx="56.083" cy="23" r="1" fill="#BDBDBD"/><circle cx="47.417" cy="14.667" r="1" fill="#BDBDBD"/></g></g></g></svg>