<?xml version="1.0" encoding="iso-8859-1"?>
<!-- Generator: Adobe Illustrator 19.0.1, SVG Export Plug-In . SVG Version: 6.00 Build 0)  -->
<svg version="1.1" xmlns="http://www.w3.org/2000/svg" xmlns:xlink="http://www.w3.org/1999/xlink" x="0px" y="0px"
	 viewBox="0 0 331.667 331.667" enable-background="new 0 0 331.667 331.667" xml:space="preserve">
<g id="_x31_-_Blue_Dog">
	<g id="Layer_2" display="none" opacity="0.4">
	</g>
</g>
<g id="_x32_-_Options">
	<g id="medication">
	</g>
	<g id="talking">
	</g>
	<g id="practical">
		<g id="mirror_2_">
		</g>
	</g>
</g>
<g id="_x33_-_Practical_Intro">
	<g id="List">
	</g>
</g>
<g id="_x34_-_Practical_List">
</g>
<g id="_x35_-_Support_Locations">
</g>
<g id="_x36_-Shy_Dog">
</g>
<g id="_x37_-Better_Dog">
</g>
<g id="_x38_-Therapist_Dog">
</g>
<g id="_x39_-_Therapy_Details">
	<g id="text_6_">
	</g>
</g>
<g id="_x31_0-Combining_Therapies">
	<g id="text_7_">
	</g>
	<g id="Isometric_Grid">
	</g>
	<g id="chair_3_">
	</g>
</g>
<g id="_x31_1-Medication_Script">
</g>
<g id="_x31_2-Dog_With_Medication">
</g>
<g id="_x31_3-Medication_Check_Ups">
	<g id="clock_5_">
		<circle fill="#FFFFFF" stroke="#6D4C41" stroke-width="5" stroke-miterlimit="10" cx="165.833" cy="165.833" r="163.333"/>
		<g>
			<rect x="146.583" y="30.333" fill="none" width="36.75" height="19.5"/>
			<path fill="#2196F3" d="M151.1,36.175v14.294c0,1.359-0.35,2.407-1.049,3.144c-0.701,0.736-1.673,1.104-2.918,1.104
				c-0.252,0-0.482-0.018-0.689-0.055c-0.207-0.036-0.43-0.092-0.666-0.164l0.172-1.893c0.113,0.041,0.276,0.075,0.488,0.104
				c0.211,0.028,0.386,0.043,0.524,0.043c0.528,0,0.95-0.179,1.263-0.537c0.314-0.358,0.471-0.939,0.471-1.746V36.175H151.1z
				 M151.027,32.745h-2.405V30.34h2.405V32.745z"/>
			<path fill="#2196F3" d="M162.916,49.383c-0.081-0.398-0.145-0.751-0.189-1.056c-0.044-0.306-0.07-0.612-0.078-0.922
				c-0.448,0.635-1.031,1.166-1.752,1.593c-0.721,0.428-1.496,0.641-2.326,0.641c-1.375,0-2.422-0.352-3.143-1.056
				c-0.721-0.703-1.08-1.674-1.08-2.911c0-1.262,0.51-2.248,1.531-2.96s2.406-1.068,4.156-1.068h2.613v-1.306
				c0-0.773-0.236-1.386-0.709-1.838c-0.472-0.451-1.139-0.678-2.002-0.678c-0.773,0-1.401,0.198-1.885,0.593
				c-0.484,0.395-0.727,0.868-0.727,1.422h-2.295l-0.025-0.073c-0.049-0.96,0.405-1.839,1.361-2.637
				c0.957-0.798,2.191-1.196,3.705-1.196c1.497,0,2.701,0.381,3.613,1.142c0.911,0.761,1.367,1.857,1.367,3.289v6.36
				c0,0.472,0.024,0.928,0.073,1.367s0.138,0.871,0.269,1.294H162.916z M158.925,47.614c0.87,0,1.655-0.224,2.356-0.67
				c0.699-0.446,1.154-0.958,1.367-1.534v-2.142h-2.698c-0.969,0-1.743,0.243-2.325,0.729c-0.582,0.487-0.873,1.06-0.873,1.717
				c0,0.584,0.184,1.047,0.549,1.388C157.668,47.443,158.209,47.614,158.925,47.614z"/>
			<path fill="#2196F3" d="M170.692,36.175l0.171,1.966c0.439-0.7,0.99-1.243,1.654-1.63c0.663-0.387,1.418-0.58,2.264-0.58
				c1.424,0,2.527,0.417,3.309,1.251c0.781,0.835,1.172,2.122,1.172,3.863v8.338h-2.404v-8.289c0-1.163-0.23-1.989-0.689-2.478
				c-0.461-0.488-1.162-0.732-2.106-0.732c-0.692,0-1.304,0.167-1.837,0.501c-0.533,0.333-0.959,0.789-1.275,1.367v9.631h-2.405
				V36.175H170.692z"/>
		</g>
		<g>
			<rect x="209.833" y="51.833" fill="none" width="38" height="19.5"/>
			<path fill="#00BCD4" d="M212.58,70.883V59.458h-2.062v-1.782h2.062v-1.673c0-1.407,0.368-2.496,1.105-3.265
				c0.736-0.77,1.764-1.153,3.082-1.153c0.275,0,0.555,0.022,0.836,0.066c0.281,0.045,0.592,0.108,0.934,0.189l-0.293,1.831
				c-0.146-0.032-0.324-0.062-0.531-0.085c-0.207-0.025-0.426-0.037-0.652-0.037c-0.701,0-1.221,0.21-1.562,0.629
				s-0.514,1.027-0.514,1.824v1.673h2.747v1.782h-2.747v11.426H212.58z"/>
			<path fill="#00BCD4" d="M225.397,71.139c-1.839,0-3.302-0.611-4.389-1.837c-1.086-1.225-1.63-2.813-1.63-4.767v-0.537
				c0-1.88,0.561-3.444,1.679-4.693c1.119-1.249,2.443-1.874,3.974-1.874c1.782,0,3.129,0.537,4.041,1.611
				c0.91,1.074,1.367,2.507,1.367,4.297v1.501h-8.57l-0.036,0.062c0.024,1.266,0.346,2.307,0.964,3.122
				c0.619,0.815,1.485,1.224,2.601,1.224c0.813,0,1.528-0.116,2.143-0.348c0.614-0.232,1.146-0.552,1.593-0.958l0.939,1.563
				c-0.472,0.467-1.094,0.856-1.867,1.167C227.432,70.984,226.496,71.139,225.397,71.139z M225.031,59.323
				c-0.806,0-1.494,0.339-2.062,1.017c-0.57,0.677-0.92,1.526-1.051,2.549l0.025,0.061h6.091v-0.316c0-0.94-0.253-1.728-0.757-2.36
				C226.772,59.64,226.023,59.323,225.031,59.323z"/>
			<path fill="#00BCD4" d="M244.416,64.78c0,1.904-0.457,3.44-1.373,4.608s-2.176,1.751-3.778,1.751
				c-0.871,0-1.628-0.169-2.271-0.506c-0.643-0.338-1.176-0.836-1.6-1.496l-0.293,1.746h-1.965V51.84h2.404v7.397
				c0.416-0.586,0.93-1.033,1.545-1.343c0.614-0.31,1.332-0.464,2.154-0.464c1.627,0,2.896,0.651,3.809,1.953
				c0.911,1.302,1.367,3.015,1.367,5.14V64.78z M242.012,64.524c0-1.514-0.279-2.749-0.836-3.705
				c-0.559-0.956-1.406-1.435-2.546-1.435c-0.741,0-1.365,0.182-1.874,0.543c-0.508,0.362-0.914,0.849-1.215,1.459v5.726
				c0.31,0.65,0.715,1.159,1.215,1.525s1.133,0.549,1.898,0.549c1.131,0,1.973-0.402,2.527-1.208c0.553-0.806,0.83-1.872,0.83-3.198
				V64.524z"/>
		</g>
		<g>
			<rect x="249.833" y="92.083" fill="none" width="46" height="19.5"/>
			<path fill="#009688" d="M253.728,97.925l0.171,1.733c0.432-0.627,0.979-1.112,1.643-1.459c0.662-0.346,1.434-0.519,2.312-0.519
				s1.634,0.203,2.264,0.61c0.631,0.407,1.105,1.018,1.423,1.831c0.415-0.749,0.964-1.343,1.647-1.782s1.481-0.659,2.393-0.659
				c1.344,0,2.405,0.462,3.187,1.386s1.172,2.312,1.172,4.168v7.898h-2.405v-7.922c0-1.303-0.224-2.224-0.671-2.766
				c-0.448-0.541-1.115-0.812-2.002-0.812c-0.822,0-1.487,0.285-1.995,0.854c-0.51,0.569-0.809,1.29-0.898,2.16v0.098v8.387h-2.416
				v-7.922c0-1.237-0.23-2.143-0.689-2.717c-0.461-0.573-1.122-0.86-1.984-0.86c-0.732,0-1.335,0.15-1.807,0.452
				c-0.473,0.301-0.834,0.724-1.086,1.27v9.777h-2.405V97.925H253.728z"/>
			<path fill="#009688" d="M281.547,111.133c-0.081-0.398-0.145-0.751-0.189-1.056c-0.044-0.306-0.07-0.612-0.078-0.922
				c-0.448,0.635-1.031,1.166-1.752,1.593c-0.721,0.428-1.496,0.641-2.326,0.641c-1.375,0-2.422-0.352-3.143-1.056
				c-0.721-0.703-1.08-1.674-1.08-2.911c0-1.262,0.51-2.248,1.531-2.96s2.406-1.068,4.156-1.068h2.613v-1.306
				c0-0.773-0.236-1.386-0.709-1.838c-0.472-0.451-1.139-0.678-2.002-0.678c-0.773,0-1.401,0.198-1.885,0.593
				c-0.484,0.395-0.727,0.868-0.727,1.422h-2.295l-0.025-0.073c-0.049-0.96,0.405-1.839,1.361-2.637
				c0.957-0.798,2.191-1.196,3.705-1.196c1.497,0,2.701,0.381,3.613,1.142c0.911,0.761,1.367,1.857,1.367,3.289v6.36
				c0,0.472,0.024,0.928,0.073,1.367s0.138,0.871,0.269,1.294H281.547z M277.556,109.364c0.87,0,1.655-0.224,2.356-0.67
				c0.699-0.446,1.154-0.958,1.367-1.534v-2.142h-2.698c-0.969,0-1.743,0.243-2.325,0.729c-0.582,0.487-0.873,1.06-0.873,1.717
				c0,0.584,0.184,1.047,0.549,1.388C276.299,109.193,276.84,109.364,277.556,109.364z"/>
			<path fill="#009688" d="M293.425,100.049l-1.233-0.073c-0.635,0-1.17,0.15-1.605,0.452c-0.435,0.301-0.771,0.724-1.006,1.27
				v9.436h-2.405V97.925h2.148l0.231,1.929c0.375-0.684,0.836-1.217,1.387-1.6c0.549-0.382,1.182-0.573,1.897-0.573
				c0.179,0,0.35,0.015,0.513,0.043c0.162,0.028,0.297,0.059,0.402,0.091L293.425,100.049z"/>
		</g>
		<g>
			<rect x="264.583" y="153.583" fill="none" width="40" height="19.5"/>
			<path fill="#4CAF50" d="M274.447,172.633c-0.082-0.398-0.145-0.751-0.189-1.056c-0.045-0.306-0.072-0.612-0.08-0.922
				c-0.447,0.635-1.031,1.166-1.752,1.593c-0.719,0.428-1.494,0.641-2.324,0.641c-1.376,0-2.424-0.352-3.145-1.056
				c-0.719-0.703-1.08-1.674-1.08-2.911c0-1.262,0.512-2.248,1.533-2.96c1.021-0.712,2.406-1.068,4.156-1.068h2.611v-1.306
				c0-0.773-0.236-1.386-0.707-1.838c-0.473-0.451-1.141-0.678-2.002-0.678c-0.773,0-1.402,0.198-1.887,0.593
				s-0.727,0.868-0.727,1.422h-2.295l-0.023-0.073c-0.049-0.96,0.404-1.839,1.361-2.637c0.955-0.798,2.19-1.196,3.704-1.196
				c1.497,0,2.702,0.381,3.613,1.142s1.367,1.857,1.367,3.289v6.36c0,0.472,0.024,0.928,0.073,1.367s0.139,0.871,0.269,1.294
				H274.447z M270.455,170.864c0.871,0,1.656-0.224,2.355-0.67c0.7-0.446,1.156-0.958,1.367-1.534v-2.142h-2.697
				c-0.969,0-1.744,0.243-2.326,0.729c-0.581,0.487-0.872,1.06-0.872,1.717c0,0.584,0.183,1.047,0.55,1.388
				C269.197,170.693,269.738,170.864,270.455,170.864z"/>
			<path fill="#4CAF50" d="M291.329,166.53c0,1.904-0.456,3.44-1.367,4.608s-2.169,1.751-3.772,1.751
				c-0.813,0-1.527-0.136-2.143-0.408c-0.613-0.272-1.137-0.682-1.568-1.227v6.457h-2.404v-18.286h1.844l0.378,1.709
				c0.431-0.635,0.968-1.119,1.611-1.452c0.643-0.334,1.392-0.501,2.246-0.501c1.636,0,2.907,0.649,3.815,1.947
				c0.906,1.298,1.36,3.013,1.36,5.146V166.53z M288.924,166.267c0-1.495-0.295-2.725-0.885-3.688
				c-0.59-0.963-1.459-1.444-2.605-1.444c-0.692,0-1.282,0.156-1.771,0.47c-0.488,0.312-0.884,0.741-1.185,1.286v6.376
				c0.301,0.545,0.696,0.97,1.185,1.274s1.087,0.457,1.794,0.457c1.14,0,2.002-0.417,2.588-1.25s0.879-1.907,0.879-3.225V166.267z"
				/>
			<path fill="#4CAF50" d="M300.533,161.549l-1.232-0.073c-0.635,0-1.17,0.15-1.605,0.452c-0.436,0.301-0.771,0.724-1.008,1.27
				v9.436h-2.404v-13.208h2.148l0.232,1.929c0.373-0.684,0.836-1.217,1.385-1.6c0.549-0.382,1.182-0.573,1.898-0.573
				c0.179,0,0.35,0.015,0.513,0.043s0.297,0.059,0.403,0.091L300.533,161.549z"/>
		</g>
		<path fill="#9FA8DA" d="M321.167,207.5l-156.775-39.147l116.192,110.481C299.937,258.747,314.804,235.5,321.167,207.5z"/>
		<g>
			<rect x="246.583" y="211.833" fill="none" width="48.5" height="19.5"/>
			<path fill="#CDDC39" d="M250.478,217.675l0.171,1.733c0.432-0.627,0.979-1.112,1.643-1.459c0.662-0.346,1.434-0.519,2.312-0.519
				s1.634,0.203,2.264,0.61c0.631,0.407,1.105,1.018,1.423,1.831c0.415-0.749,0.964-1.343,1.647-1.782s1.481-0.659,2.393-0.659
				c1.344,0,2.405,0.462,3.187,1.386s1.172,2.312,1.172,4.168v7.898h-2.405v-7.921c0-1.303-0.224-2.224-0.671-2.766
				c-0.448-0.541-1.115-0.812-2.002-0.812c-0.822,0-1.487,0.285-1.995,0.854c-0.51,0.569-0.809,1.29-0.898,2.16v0.098v8.386h-2.416
				v-7.921c0-1.237-0.23-2.143-0.689-2.717c-0.461-0.573-1.122-0.86-1.984-0.86c-0.732,0-1.335,0.15-1.807,0.452
				c-0.473,0.301-0.834,0.724-1.086,1.27v9.777h-2.405v-13.208H250.478z"/>
			<path fill="#CDDC39" d="M278.297,230.883c-0.081-0.398-0.145-0.751-0.189-1.056c-0.044-0.306-0.07-0.612-0.078-0.922
				c-0.448,0.635-1.031,1.166-1.752,1.593c-0.721,0.428-1.496,0.641-2.326,0.641c-1.375,0-2.422-0.352-3.143-1.056
				c-0.721-0.703-1.08-1.674-1.08-2.911c0-1.262,0.51-2.248,1.531-2.96c1.021-0.711,2.406-1.068,4.156-1.068h2.613v-1.306
				c0-0.773-0.236-1.386-0.709-1.838c-0.472-0.451-1.139-0.678-2.002-0.678c-0.773,0-1.401,0.198-1.885,0.593
				c-0.484,0.395-0.727,0.868-0.727,1.422h-2.295l-0.025-0.073c-0.049-0.96,0.405-1.839,1.361-2.637
				c0.957-0.798,2.191-1.196,3.705-1.196c1.497,0,2.701,0.381,3.613,1.142c0.911,0.761,1.367,1.857,1.367,3.289v6.36
				c0,0.472,0.024,0.928,0.073,1.367s0.138,0.871,0.269,1.294H278.297z M274.306,229.113c0.87,0,1.655-0.224,2.356-0.67
				c0.699-0.446,1.154-0.958,1.367-1.534v-2.142h-2.698c-0.969,0-1.743,0.243-2.325,0.729c-0.582,0.487-0.873,1.06-0.873,1.717
				c0,0.584,0.184,1.047,0.549,1.388C273.049,228.942,273.59,229.113,274.306,229.113z"/>
			<path fill="#CDDC39" d="M287.782,225.988l0.427,1.66h0.074l3.246-9.973h2.674l-5.555,15.234c-0.334,0.887-0.812,1.66-1.434,2.319
				c-0.623,0.659-1.463,0.988-2.521,0.988c-0.195,0-0.443-0.022-0.744-0.066c-0.301-0.045-0.533-0.088-0.695-0.129l0.244-1.892
				c-0.049-0.008,0.096,0,0.433,0.024c0.338,0.024,0.552,0.037,0.642,0.037c0.512,0,0.932-0.229,1.257-0.684
				c0.325-0.456,0.599-0.961,0.817-1.514l0.574-1.38l-4.907-12.939h2.686L287.782,225.988z"/>
		</g>
		<g>
			<rect x="207.833" y="258.833" fill="none" width="37" height="19.5"/>
			<path fill="#FFC107" d="M212.35,264.675v14.294c0,1.359-0.35,2.407-1.049,3.144c-0.701,0.736-1.673,1.104-2.918,1.104
				c-0.252,0-0.482-0.018-0.689-0.055c-0.207-0.036-0.43-0.092-0.666-0.164l0.172-1.893c0.113,0.041,0.276,0.075,0.488,0.104
				c0.211,0.028,0.386,0.043,0.524,0.043c0.528,0,0.95-0.179,1.263-0.537c0.314-0.358,0.471-0.939,0.471-1.746v-14.294H212.35z
				 M212.277,261.244h-2.405v-2.404h2.405V261.244z"/>
			<path fill="#FFC107" d="M224.436,275.93c-0.416,0.708-0.949,1.253-1.6,1.636c-0.651,0.383-1.404,0.573-2.258,0.573
				c-1.441,0-2.564-0.459-3.369-1.379c-0.807-0.92-1.209-2.352-1.209-4.297v-7.788h2.404v7.812c0,1.408,0.208,2.376,0.623,2.905
				s1.062,0.793,1.941,0.793c0.854,0,1.561-0.172,2.117-0.519c0.558-0.346,0.979-0.836,1.264-1.471v-9.521h2.404v13.208h-2.16
				L224.436,275.93z"/>
			<path fill="#FFC107" d="M232.406,264.675l0.171,1.966c0.439-0.7,0.991-1.243,1.653-1.63c0.664-0.387,1.418-0.58,2.266-0.58
				c1.424,0,2.526,0.417,3.308,1.251c0.781,0.835,1.172,2.122,1.172,3.863v8.338h-2.405v-8.289c0-1.163-0.229-1.989-0.689-2.478
				c-0.459-0.488-1.162-0.732-2.105-0.732c-0.691,0-1.305,0.167-1.838,0.501c-0.532,0.333-0.957,0.789-1.275,1.367v9.631h-2.404
				v-13.208H232.406z"/>
		</g>
		<g>
			<rect x="149.583" y="280.833" fill="none" width="28.75" height="19.5"/>
			<path fill="#FF9800" d="M154.1,286.675v14.294c0,1.359-0.35,2.407-1.049,3.144c-0.701,0.736-1.673,1.104-2.918,1.104
				c-0.252,0-0.482-0.018-0.689-0.055c-0.207-0.036-0.43-0.092-0.666-0.164l0.172-1.893c0.113,0.041,0.276,0.075,0.488,0.104
				c0.211,0.028,0.386,0.043,0.524,0.043c0.528,0,0.95-0.179,1.263-0.537c0.314-0.358,0.471-0.939,0.471-1.746v-14.294H154.1z
				 M154.027,283.244h-2.405v-2.404h2.405V283.244z"/>
			<path fill="#FF9800" d="M166.186,297.93c-0.416,0.708-0.949,1.253-1.6,1.636c-0.651,0.383-1.404,0.573-2.258,0.573
				c-1.441,0-2.564-0.459-3.369-1.379c-0.807-0.92-1.209-2.352-1.209-4.297v-7.788h2.404v7.812c0,1.408,0.208,2.376,0.623,2.905
				s1.062,0.793,1.941,0.793c0.854,0,1.561-0.172,2.117-0.519c0.558-0.346,0.979-0.836,1.264-1.471v-9.521h2.404v13.208h-2.16
				L166.186,297.93z"/>
			<path fill="#FF9800" d="M174.607,299.883h-2.404V280.84h2.404V299.883z"/>
		</g>
		<g>
			<rect x="77.583" y="257.583" fill="none" width="45.25" height="19.5"/>
			<path fill="#FF5722" d="M87.447,276.633c-0.082-0.398-0.145-0.751-0.189-1.056c-0.045-0.306-0.072-0.612-0.08-0.922
				c-0.447,0.635-1.031,1.166-1.752,1.593c-0.719,0.428-1.494,0.641-2.324,0.641c-1.376,0-2.424-0.352-3.145-1.056
				c-0.719-0.703-1.08-1.674-1.08-2.911c0-1.262,0.512-2.248,1.533-2.96c1.021-0.712,2.406-1.068,4.156-1.068h2.611v-1.306
				c0-0.773-0.236-1.386-0.707-1.838c-0.473-0.451-1.141-0.678-2.002-0.678c-0.773,0-1.402,0.198-1.887,0.593
				s-0.727,0.868-0.727,1.422h-2.295l-0.023-0.073c-0.049-0.96,0.404-1.839,1.361-2.637c0.955-0.798,2.19-1.196,3.704-1.196
				c1.497,0,2.702,0.381,3.613,1.142s1.367,1.857,1.367,3.289v6.36c0,0.472,0.024,0.928,0.073,1.367s0.139,0.871,0.269,1.294H87.447
				z M83.455,274.863c0.871,0,1.656-0.224,2.355-0.67c0.7-0.446,1.156-0.958,1.367-1.534v-2.142H84.48
				c-0.969,0-1.744,0.243-2.326,0.729c-0.581,0.487-0.872,1.06-0.872,1.717c0,0.584,0.183,1.047,0.55,1.388
				C82.197,274.692,82.738,274.863,83.455,274.863z"/>
			<path fill="#FF5722" d="M101.461,274.68c-0.416,0.708-0.949,1.253-1.6,1.636c-0.651,0.383-1.404,0.573-2.258,0.573
				c-1.441,0-2.564-0.459-3.369-1.379c-0.807-0.92-1.209-2.352-1.209-4.297v-7.788h2.404v7.812c0,1.408,0.208,2.376,0.623,2.905
				s1.062,0.793,1.941,0.793c0.854,0,1.561-0.172,2.117-0.519c0.558-0.346,0.979-0.836,1.264-1.471v-9.521h2.404v13.208h-2.16
				L101.461,274.68z"/>
			<path fill="#FF5722" d="M106.758,270.273c0-2.125,0.465-3.838,1.393-5.14s2.209-1.953,3.845-1.953
				c0.838,0,1.575,0.169,2.21,0.507s1.163,0.824,1.586,1.459l0.293-1.722h1.917v13.281c0,1.692-0.493,2.992-1.478,3.9
				c-0.984,0.907-2.404,1.36-4.26,1.36c-0.635,0-1.32-0.087-2.057-0.262c-0.736-0.176-1.386-0.413-1.947-0.715l0.61-1.867
				c0.431,0.244,0.952,0.441,1.562,0.592s1.212,0.227,1.807,0.227c1.172,0,2.024-0.268,2.558-0.8
				c0.533-0.533,0.799-1.345,0.799-2.436v-1.489c-0.432,0.554-0.947,0.971-1.55,1.251c-0.603,0.281-1.294,0.421-2.075,0.421
				c-1.619,0-2.893-0.586-3.82-1.758s-1.393-2.705-1.393-4.602V270.273z M109.163,270.529c0,1.326,0.28,2.393,0.843,3.198
				c0.561,0.806,1.416,1.208,2.562,1.208c0.725,0,1.331-0.164,1.819-0.494c0.488-0.329,0.892-0.795,1.208-1.397v-6.079
				c-0.309-0.562-0.712-1.007-1.208-1.337c-0.497-0.329-1.095-0.494-1.794-0.494c-1.148,0-2.007,0.48-2.576,1.44
				c-0.57,0.96-0.854,2.193-0.854,3.699V270.529z"/>
		</g>
		<g>
			<rect x="38.583" y="212.333" fill="none" width="42.75" height="19.5"/>
			<path fill="#9C27B0" d="M48.008,227.867c0-0.529-0.201-0.965-0.605-1.307c-0.402-0.342-1.165-0.639-2.288-0.891
				c-1.604-0.35-2.81-0.822-3.62-1.42c-0.809-0.596-1.214-1.412-1.214-2.443c0-1.072,0.456-1.986,1.367-2.742s2.1-1.134,3.564-1.134
				c1.538,0,2.761,0.395,3.669,1.185c0.906,0.789,1.34,1.749,1.299,2.881l-0.023,0.072h-2.295c0-0.577-0.242-1.096-0.727-1.556
				s-1.125-0.69-1.923-0.69c-0.854,0-1.489,0.188-1.904,0.562c-0.415,0.374-0.622,0.825-0.622,1.354
				c0,0.521,0.183,0.932,0.549,1.233c0.366,0.301,1.111,0.569,2.234,0.805c1.668,0.358,2.908,0.844,3.723,1.458
				c0.813,0.615,1.221,1.438,1.221,2.473c0,1.172-0.475,2.119-1.422,2.844c-0.948,0.725-2.188,1.086-3.717,1.086
				c-1.686,0-3.012-0.427-3.98-1.281s-1.428-1.852-1.379-2.99l0.024-0.074h2.295c0.04,0.851,0.358,1.473,0.952,1.865
				s1.289,0.589,2.088,0.589c0.854,0,1.523-0.173,2.008-0.519S48.008,228.429,48.008,227.867z"/>
			<path fill="#9C27B0" d="M58.884,231.639c-1.839,0-3.302-0.611-4.389-1.837c-1.086-1.225-1.63-2.813-1.63-4.767v-0.537
				c0-1.879,0.561-3.444,1.679-4.693c1.119-1.249,2.443-1.874,3.974-1.874c1.782,0,3.129,0.537,4.041,1.611
				c0.91,1.074,1.367,2.507,1.367,4.297v1.5h-8.57l-0.036,0.062c0.024,1.266,0.346,2.307,0.964,3.122
				c0.619,0.815,1.485,1.224,2.601,1.224c0.813,0,1.528-0.116,2.143-0.348c0.614-0.232,1.146-0.552,1.593-0.958l0.939,1.563
				c-0.472,0.467-1.094,0.856-1.867,1.167C60.918,231.483,59.982,231.639,58.884,231.639z M58.518,219.823
				c-0.806,0-1.494,0.339-2.062,1.017c-0.57,0.677-0.92,1.526-1.051,2.549l0.025,0.061h6.091v-0.316c0-0.94-0.253-1.728-0.757-2.36
				C60.259,220.14,59.51,219.823,58.518,219.823z"/>
			<path fill="#9C27B0" d="M77.878,225.279c0,1.904-0.456,3.44-1.367,4.608s-2.169,1.751-3.772,1.751
				c-0.813,0-1.527-0.136-2.143-0.408c-0.613-0.272-1.137-0.682-1.568-1.227v6.457h-2.404v-18.286h1.844l0.378,1.709
				c0.431-0.635,0.968-1.119,1.611-1.452c0.643-0.334,1.392-0.501,2.246-0.501c1.636,0,2.907,0.649,3.815,1.947
				c0.906,1.298,1.36,3.013,1.36,5.145V225.279z M75.473,225.017c0-1.495-0.295-2.724-0.885-3.688
				c-0.59-0.963-1.459-1.444-2.605-1.444c-0.692,0-1.282,0.156-1.771,0.47c-0.488,0.312-0.884,0.741-1.185,1.286v6.375
				c0.301,0.545,0.696,0.97,1.185,1.274s1.087,0.457,1.794,0.457c1.14,0,2.002-0.417,2.588-1.25s0.879-1.907,0.879-3.225V225.017z"
				/>
		</g>
		<path fill="#80CBC4" d="M10.333,123.333L164.5,168.167l-114.667-114C30.388,74.627,17.685,98.084,10.333,123.333z"/>
		<g>
			<rect x="24.583" y="154.333" fill="none" width="40" height="19.5"/>
			<path fill="#673AB7" d="M25.768,166.657c0-1.953,0.529-3.562,1.587-4.827s2.494-1.898,4.31-1.898c1.83,0,3.277,0.631,4.34,1.892
				c1.061,1.262,1.592,2.873,1.592,4.834v0.27c0,1.969-0.529,3.58-1.586,4.834c-1.059,1.253-2.499,1.879-4.322,1.879
				c-1.822,0-3.266-0.628-4.326-1.886c-1.062-1.257-1.594-2.866-1.594-4.827V166.657z M28.172,166.919
				c0,1.398,0.295,2.553,0.885,3.463c0.591,0.91,1.467,1.365,2.631,1.365c1.148,0,2.019-0.455,2.613-1.365
				c0.594-0.91,0.891-2.064,0.891-3.463v-0.269c0-1.381-0.299-2.531-0.896-3.45c-0.6-0.918-1.477-1.378-2.631-1.378
				c-1.148,0-2.017,0.46-2.607,1.378c-0.59,0.919-0.885,2.069-0.885,3.45V166.919z"/>
			<path fill="#673AB7" d="M45.909,171.748c0.798,0,1.499-0.246,2.106-0.738c0.605-0.492,0.908-1.097,0.908-1.813h2.161l0.024,0.074
				c0.041,1.139-0.466,2.152-1.52,3.039c-1.055,0.887-2.281,1.33-3.681,1.33c-1.921,0-3.39-0.626-4.407-1.879
				c-1.018-1.254-1.525-2.828-1.525-4.725v-0.513c0-1.88,0.511-3.448,1.531-4.706c1.021-1.257,2.488-1.886,4.401-1.886
				c1.546,0,2.81,0.456,3.79,1.367s1.455,2.03,1.422,3.356l-0.023,0.074h-2.174c0-0.807-0.285-1.491-0.854-2.058
				c-0.57-0.565-1.291-0.849-2.161-0.849c-1.262,0-2.163,0.454-2.704,1.359c-0.541,0.907-0.812,2.019-0.812,3.335v0.512
				c0,1.35,0.269,2.474,0.806,3.372C43.736,171.298,44.64,171.748,45.909,171.748z"/>
			<path fill="#673AB7" d="M56.98,156.989v3.187h2.503v1.782H56.98v8.02c0,0.619,0.129,1.055,0.385,1.307
				c0.257,0.252,0.596,0.379,1.02,0.379c0.139,0,0.291-0.017,0.458-0.049c0.167-0.033,0.315-0.074,0.445-0.123l0.317,1.648
				c-0.18,0.146-0.441,0.267-0.787,0.36c-0.346,0.093-0.694,0.14-1.044,0.14c-0.977,0-1.754-0.294-2.331-0.885
				c-0.578-0.59-0.867-1.516-0.867-2.777v-8.02h-2.1v-1.782h2.1v-3.187H56.98z"/>
		</g>
		<g>
			<rect x="38.083" y="93.833" fill="none" width="44" height="19.5"/>
			<path fill="#3F51B5" d="M41.978,99.675l0.171,1.966c0.439-0.7,0.99-1.243,1.654-1.63c0.663-0.387,1.418-0.58,2.264-0.58
				c1.424,0,2.527,0.417,3.309,1.251c0.781,0.835,1.172,2.122,1.172,3.863v8.338h-2.404v-8.289c0-1.163-0.23-1.989-0.689-2.478
				c-0.461-0.488-1.162-0.732-2.106-0.732c-0.692,0-1.304,0.167-1.837,0.501c-0.533,0.333-0.959,0.789-1.275,1.367v9.631h-2.405
				V99.675H41.978z"/>
			<path fill="#3F51B5" d="M53.477,106.157c0-1.953,0.529-3.562,1.587-4.827s2.494-1.898,4.31-1.898c1.83,0,3.277,0.631,4.34,1.892
				c1.061,1.262,1.592,2.873,1.592,4.834v0.27c0,1.969-0.529,3.58-1.586,4.834c-1.059,1.253-2.499,1.879-4.322,1.879
				c-1.822,0-3.266-0.628-4.326-1.886c-1.062-1.257-1.594-2.866-1.594-4.827V106.157z M55.881,106.419
				c0,1.398,0.295,2.553,0.885,3.463c0.591,0.91,1.467,1.365,2.631,1.365c1.148,0,2.019-0.455,2.613-1.365
				c0.594-0.91,0.891-2.064,0.891-3.463v-0.269c0-1.381-0.299-2.531-0.896-3.45c-0.6-0.918-1.477-1.378-2.631-1.378
				c-1.148,0-2.017,0.46-2.607,1.378c-0.59,0.919-0.885,2.069-0.885,3.45V106.419z"/>
			<path fill="#3F51B5" d="M72.471,108.989l0.207,0.928h0.074l0.231-0.928l3.04-9.313h2.453l-4.858,13.208h-1.819L66.88,99.675
				h2.466L72.471,108.989z"/>
		</g>
		<g>
			<rect x="81.083" y="47.583" fill="none" width="43.25" height="19.5"/>
			<path fill="#2196F3" d="M82.279,60.274c0-2.125,0.454-3.838,1.361-5.14c0.908-1.302,2.18-1.953,3.814-1.953
				c0.773,0,1.459,0.143,2.057,0.427c0.6,0.285,1.109,0.7,1.533,1.246V47.59h2.404v19.043h-1.965l-0.281-1.623
				c-0.432,0.618-0.961,1.086-1.587,1.403c-0.627,0.317-1.354,0.476-2.185,0.476c-1.611,0-2.873-0.583-3.785-1.751
				c-0.911-1.168-1.367-2.704-1.367-4.608V60.274z M84.685,60.53c0,1.335,0.272,2.403,0.817,3.204
				c0.545,0.802,1.393,1.202,2.539,1.202c0.717,0,1.318-0.162,1.807-0.488c0.488-0.325,0.887-0.781,1.197-1.367v-6.164
				c-0.311-0.545-0.711-0.979-1.203-1.3s-1.084-0.482-1.775-0.482c-1.156,0-2.008,0.476-2.559,1.429
				c-0.549,0.951-0.823,2.188-0.823,3.711V60.53z"/>
			<path fill="#2196F3" d="M102.52,66.889c-1.84,0-3.303-0.611-4.389-1.837c-1.086-1.225-1.63-2.813-1.63-4.767v-0.537
				c0-1.88,0.56-3.444,1.679-4.693s2.443-1.874,3.973-1.874c1.783,0,3.129,0.537,4.041,1.611c0.911,1.074,1.367,2.507,1.367,4.297
				v1.501h-8.569l-0.036,0.062c0.023,1.266,0.346,2.307,0.964,3.122s1.485,1.224,2.601,1.224c0.812,0,1.527-0.116,2.143-0.348
				c0.613-0.232,1.145-0.552,1.592-0.958l0.94,1.563c-0.472,0.467-1.095,0.856-1.868,1.167
				C104.553,66.734,103.617,66.889,102.52,66.889z M102.152,55.073c-0.805,0-1.493,0.339-2.062,1.017
				c-0.57,0.677-0.92,1.526-1.05,2.549l0.024,0.061h6.092v-0.316c0-0.94-0.253-1.728-0.758-2.36
				C103.895,55.39,103.146,55.073,102.152,55.073z"/>
			<path fill="#2196F3" d="M115.629,64.998c0.798,0,1.5-0.246,2.106-0.738s0.909-1.097,0.909-1.813h2.16l0.025,0.074
				c0.04,1.139-0.467,2.152-1.521,3.039s-2.28,1.33-3.681,1.33c-1.92,0-3.389-0.626-4.406-1.879
				c-1.018-1.254-1.525-2.828-1.525-4.725v-0.513c0-1.88,0.51-3.448,1.531-4.706c1.021-1.257,2.488-1.886,4.4-1.886
				c1.547,0,2.811,0.456,3.791,1.367s1.454,2.03,1.422,3.356l-0.024,0.074h-2.173c0-0.807-0.285-1.491-0.854-2.058
				c-0.569-0.565-1.29-0.849-2.161-0.849c-1.262,0-2.162,0.454-2.703,1.359c-0.541,0.907-0.812,2.019-0.812,3.335v0.512
				c0,1.35,0.27,2.474,0.807,3.372C113.457,64.548,114.359,64.998,115.629,64.998z"/>
		</g>
	</g>
	<g id="dog_4_">
		<path id="left_ear_22_" fill="#5D4037" d="M160.25,138.418c-3.571,0.001-13.279,0.551-16.666,1.727
			c-4.626,1.606-6.906,6.945-11.219,9.394c-3.191,1.812-6.635,3.62-8.501,6.781c-2.49,4.218-0.567,8.511,1.633,12.361
			c2.427,4.248,4.709,8.577,7.028,12.886c1.383,2.569,2.79,5.173,4.816,7.272c2.649,2.747,7.881,5.451,11.456,2.835
			c2.956-2.163,2.392-6.13,1.59-9.241c-1.173-4.551-3.449-8.725-4.416-13.386c-1.003-4.835-1.325-10.466,1.019-14.933
			C149.649,149.045,157.926,143.649,160.25,138.418z"/>
		<path id="right_ear_12_" fill="#5D4037" d="M177.673,138.647c1.726,1.123,5.568,4.232,6.648,5.961
			c1.767,2.828,6.141,5.655,7.909,8.482c3.715,5.941,2.357,10.801,1.194,17.116c-0.578,3.136-1.418,6.164-2.172,9.264
			c-0.739,3.037-2.184,7.741,0.323,10.277c1.455,1.473,3.69,2.021,5.735,1.695c2.537-0.405,4.886-2.019,6.382-4.077
			c3.762-5.176,7.41-10.461,10.395-16.131c1.403-2.665,1.572-4.352,1.674-7.29c0.129-3.701,0.002-6.217-2.385-9.426
			c-3.648-4.903-9.373-7.522-13.229-12.292c-0.743-0.919-1.449-1.887-2.372-2.626C194.369,136.876,181.54,137.944,177.673,138.647z"
			/>
		<path id="head_27_" fill="#D7CCC8" d="M156.994,138.939c-3.721,3.367-7.972,7.53-10.3,11.99c-2.557,4.9-2.988,10.703-2.194,16.1
			c0.703,4.779,2.57,9.241,4.06,13.799c1.433,4.386,2.231,8.614,2.999,13.188c0.71,4.227,2.784,10.919,7.773,11.917
			c2.734,0.547,5.82-0.18,8.456-0.831c3.948-0.975,7.129,1.578,11.078,0.892c2.951-0.512,5.682-2.198,7.498-4.575
			c2.098-2.746,2.16-5.913,2.764-9.174c0.978-5.281,2.141-10.527,3.488-15.726c1.028-3.969,2.065-7.932,3.194-11.888
			c1.358-4.759-0.161-10.08-3.017-13.983c-1.89-2.583-4.365-4.476-6.519-6.793c-4.569-4.916-8.036-9.581-15.317-10.289
			c-5.356-0.52-9.981,1.773-13.869,5.287C157.057,138.882,157.025,138.911,156.994,138.939z"/>
		<circle id="left_ear_21_" fill="#263238" cx="156.754" cy="166.731" r="3.955"/>
		<circle id="right_eye_10_" fill="#263238" cx="181.169" cy="166.559" r="3.611"/>
		<path id="nose_25_" fill="#263238" d="M171.83,186.206c-2.932-0.51-6.592-1.019-8.788,1.524c-1.652,1.914-1.497,4.968-0.054,7.044
			s3.913,3.254,6.407,3.666c3.103,0.512,6.561-0.157,8.737-2.428c1.763-1.841,2.549-5.244,1.064-7.491
			c-1.743-2.637-5.46-1.976-8.178-2.315"/>
	</g>
	<path fill="#FFFFFF" stroke="#B0BEC5" stroke-miterlimit="10" d="M149.167,129.479l5.937,16.248
		c9.984-2.428,19.62-2.57,28.943-0.65l4.453-16.898C175.389,122.98,162.278,123.413,149.167,129.479z"/>
	<line fill="none" stroke="#FF1744" stroke-width="2" stroke-miterlimit="10" x1="169" y1="130" x2="169" y2="140"/>
	<line fill="none" stroke="#FF1744" stroke-width="2" stroke-miterlimit="10" x1="164" y1="135" x2="174" y2="135"/>
</g>
<g id="_x31_4-Medication_Side_Effects">
	<g id="shy_dog_1_">
	</g>
</g>
</svg>
