<svg xmlns="http://www.w3.org/2000/svg" viewBox="0 0 52.31 26.409" enable-background="new 0 0 52.31 26.409"><g><g><path fill="#4E342E" d="M8.2 11.67c-.36-1.02-.73-2.14-.4-3.17.33-1.03 1.73-1.75 2.54-1.03-.1-.5-.2-1-.03-1.48s.75-.84 1.2-.6c.72-1 2.02-1.55 3.24-1.38-.8-.68-.33-2.12.6-2.6s2.06-.3 3.1-.1c.48.1.97.2 1.45.3C20.4 1 20.97.35 21.72.1c.76-.27 1.77 0 2.03.77.66-.97 2.5-.57 2.7.6 1.1-.45 2.3-.63 3.5-.54.07.3.15.6.23.9 1.2-.52 2.5-.83 3.8-.88.16.3.18.7.08 1.02.56-.46 1.5-.35 1.94.23s3.2 2.08 2.6 2.5c2.3.2 1.7.12 3.9.88-.2.82.52 1.72 1.36 1.7.02.54.04 1.1.07 1.65.55.43 1.1.85 1.67 1.28-.37 1.23-1.87 1.72-3.14 1.65s-2.53-.5-3.8-.34c-2.28.3-4.06 2.48-6.36 2.52-1.18.02-2.32-.55-3.5-.53-1.14.02-2.2.6-3.25 1-4.4 1.65-9.32.53-13.88-.6-1.34-.35-2.94-1-3.02-2.36"/><path fill="#A1887F" d="M4.9 10.4h42.35l5.06 16H0z"/></g></g></svg>