<?xml version="1.0" encoding="iso-8859-1"?>
<!-- Generator: Adobe Illustrator 19.0.1, SVG Export Plug-In . SVG Version: 6.00 Build 0)  -->
<svg version="1.1" xmlns="http://www.w3.org/2000/svg" xmlns:xlink="http://www.w3.org/1999/xlink" x="0px" y="0px"
	 viewBox="0 0 52.31 26.409" enable-background="new 0 0 52.31 26.409" xml:space="preserve">
<g id="_x31_-_Blue_Dog">
	<g id="Layer_2" display="none" opacity="0.4">
	</g>
</g>
<g id="_x32_-_Options">
	<g id="medication">
	</g>
	<g id="talking">
	</g>
	<g id="practical">
		<g id="mirror_2_">
		</g>
	</g>
</g>
<g id="_x33_-_Practical_Intro">
	<g id="List">
	</g>
</g>
<g id="_x34_-_Practical_List">
	<g id="food_4_">
		<path id="food_5_" fill="#4E342E" d="M8.213,11.666C7.841,10.647,7.465,9.533,7.797,8.5c0.332-1.033,1.73-1.752,2.543-1.033
			c-0.106-0.49-0.209-1.012-0.034-1.482s0.749-0.825,1.189-0.587c0.724-1.001,2.021-1.553,3.244-1.382
			c-0.808-0.672-0.333-2.115,0.604-2.592s2.059-0.292,3.091-0.096c0.487,0.092,0.974,0.185,1.461,0.277
			c0.523-0.609,1.081-1.244,1.84-1.508c0.758-0.264,1.766,0.008,2.023,0.769c0.664-0.969,2.493-0.565,2.688,0.593
			c1.109-0.437,2.318-0.618,3.506-0.525c0.08,0.302,0.159,0.604,0.239,0.906c1.203-0.531,2.505-0.836,3.819-0.894
			c0.148,0.316,0.172,0.689,0.067,1.022c0.564-0.456,1.497-0.347,1.941,0.227s3.195,2.083,2.612,2.515
			c2.302,0.202,1.7,0.112,3.882,0.874c-0.205,0.813,0.529,1.717,1.366,1.685c0.023,0.553,0.046,1.107,0.069,1.66
			c0.557,0.428,1.114,0.855,1.672,1.283c-0.367,1.221-1.866,1.711-3.139,1.641s-2.534-0.505-3.798-0.34
			c-2.282,0.297-4.059,2.471-6.36,2.505c-1.184,0.017-2.32-0.551-3.504-0.524c-1.14,0.025-2.185,0.594-3.251,0.997
			c-4.404,1.664-9.313,0.537-13.881-0.605c-1.325-0.331-2.929-0.98-3.006-2.343"/>
		<polygon id="bowl_4_" fill="#A1887F" points="4.909,10.409 47.248,10.409 52.31,26.409 0,26.409 		"/>
	</g>
</g>
<g id="_x35_-_Support_Locations">
</g>
<g id="_x36_-Shy_Dog">
</g>
<g id="_x37_-Better_Dog">
</g>
<g id="_x38_-Therapist_Dog">
</g>
<g id="_x39_-_Therapy_Details">
	<g id="text_6_">
	</g>
</g>
<g id="_x31_0-Combining_Therapies">
	<g id="text_7_">
	</g>
	<g id="Isometric_Grid">
	</g>
	<g id="chair_3_">
	</g>
</g>
<g id="_x31_1-Medication_Script">
</g>
<g id="_x31_2-Dog_With_Medication">
</g>
<g id="_x31_3-Medication_Check_Ups">
</g>
<g id="_x31_4-Medication_Side_Effects">
</g>
</svg>
