<?xml version="1.0" encoding="iso-8859-1"?>
<!-- Generator: Adobe Illustrator 19.0.1, SVG Export Plug-In . SVG Version: 6.00 Build 0)  -->
<svg version="1.1" xmlns="http://www.w3.org/2000/svg" xmlns:xlink="http://www.w3.org/1999/xlink" x="0px" y="0px"
	 viewBox="0 0 184.856 419.594" enable-background="new 0 0 184.856 419.594" xml:space="preserve">
<g id="_x31_-_Blue_Dog">
	<g id="Layer_2" display="none" opacity="0.4">
	</g>
</g>
<g id="_x32_-_Options">
	<g id="medication">
	</g>
	<g id="talking">
	</g>
	<g id="practical">
		<g id="mirror_2_">
		</g>
	</g>
</g>
<g id="_x33_-_Practical_Intro">
	<g id="List">
	</g>
</g>
<g id="_x34_-_Practical_List">
</g>
<g id="_x35_-_Support_Locations">
</g>
<g id="_x36_-Shy_Dog">
</g>
<g id="_x37_-Better_Dog">
</g>
<g id="_x38_-Therapist_Dog">
</g>
<g id="_x39_-_Therapy_Details">
	<g id="text_6_">
	</g>
</g>
<g id="_x31_0-Combining_Therapies">
	<g id="text_7_">
	</g>
	<g id="Isometric_Grid">
	</g>
	<g id="chair_3_">
		<polygon id="left_front_leg_1_" fill="#616161" points="159.749,255.928 168.415,346.594 171.082,348.928 175.415,345.594 
			179.082,239.928 161.082,232.594 		"/>
		<path id="left_side_1_" fill="#D7CCC8" d="M123.213,5.893c-4.615-3.128-10.21-4.763-15.789-5.351
			c-5.585-0.588-11.349-0.901-16.899,0.145c-4.441,0.837-11.693,4.158-14.193,9.908c-0.641,1.475-2.25,6-2.75,12.5
			c-0.385,5.01,0.308,13.392,1.5,17c2.477,7.499,10.971,0.355,12.16,8.08c2.774,18.019,3.309,36.262,4.676,54.413
			c1.544,20.497,2.952,41.005,4.66,61.489c0.7,8.396-0.605,15.631,6.434,21.413c15.038,12.354,30.038,24.755,45.029,37.167
			c7.495,6.206,14.988,12.415,22.484,18.622c2.303,1.908,3.095,3.896,5.566,1.853c2.512-2.077,4.498-5.979,6.466-8.595
			c0.776-1.032,1.566-2.087,1.976-3.312c1.973-5.88-5.604-11.433-9.054-15.134c-5.59-5.996-11.42-11.883-17.389-17.488
			c-1.023-0.961,0.468-5.514-0.007-6.937c-1.221-3.659-7.767-7.392-10.502-10.109c-8.635-8.578-20.176-19.737-21.897-32.312
			c-2.398-17.515,0.03-34.268,1.729-51.63c1.478-15.115,2.998-30.217,5.433-45.132c1.423-8.715,1.422-17.66,0.019-26.378
			c-0.7-4.349-1.723-8.679-3.153-12.848C128.536,9.831,126.206,7.922,123.213,5.893z"/>
		<path id="back_1_" fill="#BCAAA4" stroke="#D7CCC8" stroke-miterlimit="10" d="M83.082,33.094l-58.5,53l3.5,135l12.5,32.5
			l64.974,58.941c0,0,33.026-20.941,68.026-68.941c0,0-28.5-41-69.5-67.5c0,0,6.5-78-1.5-136.5
			C102.582,39.594,100.082,31.594,83.082,33.094z"/>
		<path id="cushion_1_" fill="#EFEBE9" d="M103.082,176.261c0,0-27,16.667-60,59.333l62.333,76.333c0,0,32.333-17,67.667-67.667
			C154.513,218.443,132.557,194.865,103.082,176.261z"/>
		<polygon id="right_front_leg_1_" fill="#616161" points="84.749,311.594 88.749,417.594 91.082,419.594 94.415,417.261 
			103.415,314.928 		"/>
		<path id="back_right_leg_1_" fill="#616161" d="M32.749,266.261c0,0,8,37-10.667,82.667l5.667,4.667l6-5.333
			c0,0,9.249-20.083,17.583-68.416L32.749,266.261z"/>
		<path id="right_side_1_" fill="#D7CCC8" d="M46.213,83.893c-4.615-3.128-10.21-4.763-15.789-5.351
			c-5.585-0.588-11.349-0.901-16.899,0.145C9.084,79.523,0.757,82.552,0.058,87.85c-0.21,1.594,0.187,3.2,0.599,4.754
			c2.972,11.209,7.824,22.129,9.585,33.57c2.774,18.019,3.309,36.262,4.676,54.413c1.544,20.497,2.952,41.005,4.66,61.489
			c0.7,8.396-0.605,15.631,6.434,21.413c15.038,12.354,30.038,24.755,45.029,37.167c7.495,6.206,14.988,12.415,22.484,18.622
			c2.303,1.908,3.095,3.896,5.566,1.853c2.512-2.077,4.498-5.979,6.466-8.595c0.776-1.032,1.566-2.087,1.976-3.312
			c1.973-5.88-5.604-11.433-9.054-15.134c-5.59-5.996-11.42-11.883-17.389-17.488c-1.023-0.961,0.468-5.514-0.007-6.937
			c-1.221-3.659-7.767-7.392-10.502-10.109c-8.635-8.578-20.176-19.737-21.897-32.312c-2.398-17.515,0.03-34.268,1.729-51.63
			c1.478-15.115,2.998-30.217,5.433-45.132c1.423-8.715,1.422-17.66,0.019-26.378c-0.7-4.349-1.723-8.679-3.153-12.848
			C51.536,87.831,49.206,85.922,46.213,83.893z"/>
		<g id="Dog_Bowl_1_">
			<ellipse id="Inner_Bowl_1_" fill="#D7CCC8" cx="107.582" cy="232.594" rx="35.065" ry="17.065"/>
			<path id="Outer_Bowl_1_" fill="#A1887F" d="M144.671,232.97l-4.375-9.916c-1.071-3.777-4.115-7.397-9.149-10.303
				c-12.842-7.414-33.729-7.377-46.652,0.084c-4.086,2.359-6.881,5.177-8.394,8.163l0.105-0.655l-5.691,13.463
				c-4.064,7.687-0.878,16.355,9.603,22.406c15.164,8.755,39.828,8.711,55.088-0.1C146.076,249.838,149.231,240.81,144.671,232.97z
				 M131.001,239.686c-12.923,7.461-33.809,7.499-46.652,0.084c-5.551-3.205-8.685-7.278-9.417-11.473l0.006-0.037
				c1.509-1.365,3.286-2.66,5.352-3.852c15.26-8.81,39.923-8.855,55.088-0.1c1.999,1.154,3.726,2.406,5.195,3.725
				c0.027-0.156,0.038-0.312,0.058-0.468l0.097,0.615c-0.053-0.049-0.102-0.098-0.156-0.147
				C139.844,232.282,136.652,236.424,131.001,239.686z"/>
			<g id="Health_Cross_2_" display="none">
				<path id="Circle_1_" display="inline" fill="#FFFFFF" d="M131.758,243.798c2.478,2.07,4.035,6.343,3.477,9.544
					s-3.018,4.117-5.496,2.047c-2.478-2.07-4.035-6.343-3.477-9.544C126.82,242.645,129.28,241.728,131.758,243.798z"/>
				<g id="Health_Cross_3_" display="inline">
					<defs>
						<path id="SVGID_1_" d="M131.379,245.975c1.547,1.293,2.519,3.961,2.171,5.959c-0.348,1.999-1.884,2.571-3.432,1.278
							c-1.547-1.293-2.519-3.961-2.171-5.959S129.832,244.683,131.379,245.975z"/>
					</defs>
					<use xlink:href="#SVGID_1_"  overflow="visible" fill="#FFFFFF"/>
					<clipPath id="SVGID_2_">
						<use xlink:href="#SVGID_1_"  overflow="visible"/>
					</clipPath>
					<path clip-path="url(#SVGID_2_)" fill="#FF1744" d="M136.877,246.452l-1.136-1.222c-1.277,1.187-2.788,2.271-4.5,3.258
						l-1.632-3.595l-1.519,0.69l1.681,3.701c-1.715,0.872-3.602,1.658-5.678,2.343l0.523,1.584c2.152-0.71,4.089-1.511,5.849-2.399
						l2.212,4.87l1.519-0.69l-2.257-4.97C133.808,248.959,135.453,247.776,136.877,246.452z"/>
				</g>
			</g>
		</g>
		<g id="Pill_2_">
			<path fill="#E91E63" d="M106.758,232.808l-2.784-2.734c-0.659-0.647-0.689-1.728-0.068-2.414c0.621-0.686,1.659-0.718,2.318-0.07
				l2.784,2.734L106.758,232.808z"/>
			<path fill="#9FA8DA" d="M109.009,230.323l3.181,3.125c0.659,0.647,0.689,1.728,0.068,2.414c-0.621,0.686-1.659,0.718-2.318,0.07
				l-3.181-3.125C106.815,231.207,107.539,230.348,109.009,230.323z"/>
		</g>
	</g>
</g>
<g id="_x31_1-Medication_Script">
</g>
<g id="_x31_2-Dog_With_Medication">
</g>
<g id="_x31_3-Medication_Check_Ups">
</g>
<g id="_x31_4-Medication_Side_Effects">
	<g id="shy_dog_1_">
	</g>
</g>
</svg>
