<svg xmlns="http://www.w3.org/2000/svg" viewBox="0 0 184.856 419.594" enable-background="new 0 0 184.856 419.594"><g><g><path fill="#616161" d="M159.75 255.93l8.66 90.66 2.68 2.33 4.33-3.34 3.68-105.67-18-7.34z"/><path fill="#D7CCC8" d="M123.2 5.9C118.6 2.75 113 1.12 107.43.53c-5.58-.6-11.35-.9-16.9.15-4.44.82-11.7 4.15-14.2 9.9-.63 1.47-2.24 6-2.74 12.5-.38 5 .3 13.4 1.5 17 2.48 7.5 10.97.35 12.16 8.07 2.78 18.02 3.3 36.27 4.68 54.42 1.54 20.48 2.95 41 4.66 61.48.7 8.4-.6 15.63 6.43 21.4 15.05 12.36 30.05 24.77 45.04 37.18 7.5 6.2 15 12.4 22.5 18.62 2.3 1.9 3.08 3.9 5.55 1.85 2.5-2.07 4.5-5.98 6.46-8.6.77-1.02 1.56-2.08 1.97-3.3 1.98-5.88-5.6-11.44-9.05-15.14-5.6-6-11.42-11.9-17.4-17.5-1-.96.48-5.5 0-6.93-1.22-3.66-7.76-7.4-10.5-10.1-8.63-8.6-20.18-19.75-21.9-32.33-2.4-17.5.03-34.26 1.73-51.63 1.5-15.1 3-30.2 5.45-45.12 1.42-8.7 1.42-17.66.02-26.37-.7-4.34-1.73-8.67-3.16-12.84-1.16-3.43-3.5-5.34-6.5-7.37z"/><path fill="#BCAAA4" stroke="#D7CCC8" stroke-miterlimit="10" d="M83.08 33.1l-58.5 53 3.5 135 12.5 32.5 64.98 58.94s33.02-20.95 68.02-68.95c0 0-28.5-41-69.5-67.5 0 0 6.5-78-1.5-136.5 0 0-2.5-8-19.5-6.5z"/><path fill="#EFEBE9" d="M103.08 176.26s-27 16.67-60 59.33l62.33 76.33s32.35-17 67.68-67.67c-18.57-25.82-40.52-49.4-70-68z"/><path fill="#616161" d="M84.75 311.6l4 106 2.33 2 3.34-2.34 9-102.33z"/><path fill="#616161" d="M32.75 266.26s8 37-10.67 82.67l5.67 4.66 6-5.34s9.25-20.08 17.58-68.4l-18.58-13.6z"/><path fill="#D7CCC8" d="M46.2 83.9c-4.6-3.14-10.2-4.77-15.78-5.36-5.58-.6-11.35-.9-16.9.15C9.08 79.5.76 82.54.06 87.84c-.2 1.6.18 3.2.6 4.75 2.97 11.2 7.82 22.13 9.58 33.57 2.78 18.02 3.3 36.27 4.68 54.42 1.54 20.48 2.95 41 4.66 61.48.7 8.4-.6 15.63 6.43 21.4 15.05 12.36 30.05 24.76 45.04 37.18 7.5 6.2 15 12.4 22.5 18.62 2.3 1.9 3.08 3.9 5.55 1.85 2.5-2.08 4.5-5.98 6.46-8.6.77-1.03 1.56-2.08 1.97-3.3 1.98-5.9-5.6-11.44-9.05-15.14-5.6-6-11.42-11.9-17.4-17.5-1-.96.48-5.5 0-6.94-1.22-3.65-7.76-7.4-10.5-10.1-8.63-8.58-20.17-19.74-21.9-32.32-2.4-17.5.03-34.26 1.73-51.63 1.5-15.1 3-30.2 5.45-45.12 1.42-8.7 1.42-17.66.02-26.38-.7-4.35-1.73-8.68-3.16-12.84-1.16-3.43-3.5-5.34-6.5-7.37z"/><g><ellipse cx="107.582" cy="232.594" fill="#D7CCC8" rx="35.065" ry="17.065"/><path fill="#A1887F" d="M144.67 232.97l-4.37-9.92c-1.08-3.77-4.12-7.4-9.15-10.3-12.85-7.4-33.73-7.38-46.66.1-4.1 2.34-6.9 5.16-8.4 8.15l.1-.66-5.7 13.47c-4.05 7.7-.86 16.36 9.62 22.4 15.16 8.77 39.83 8.72 55.1-.1 10.86-6.26 14-15.3 9.45-23.13zM131 239.7c-12.92 7.45-33.8 7.5-46.65.07-5.55-3.2-8.7-7.28-9.42-11.47v-.04c1.52-1.36 3.3-2.66 5.36-3.85 15.25-8.8 39.9-8.85 55.08-.1 2 1.16 3.72 2.4 5.2 3.73.02-.15.03-.3.05-.47l.1.62c-.05-.05-.1-.1-.16-.15-.73 4.25-3.92 8.4-9.57 11.66z"/></g><g><path fill="#E91E63" d="M106.76 232.8l-2.8-2.73c-.65-.64-.68-1.72-.05-2.4.63-.7 1.66-.73 2.32-.08l2.8 2.72-2.26 2.5z"/><path fill="#9FA8DA" d="M109 230.32l3.2 3.13c.65.65.68 1.73.06 2.4-.62.7-1.66.73-2.32.08l-3.18-3.12c.05-1.6.78-2.45 2.25-2.48z"/></g></g></g></svg>