<svg xmlns="http://www.w3.org/2000/svg" viewBox="0 0 65 77" enable-background="new 0 0 65 77"><g stroke="#BDBDBD" stroke-miterlimit="10"><path fill="#fff" d="M.5.5h64v76H.5z"/><path fill="#fff" d="M9 12.5h13M10 25.5h43M10 30.5h43M10 35.5h43M10 40.5h43M10 49.5h43"/><path fill="none" d="M11.5 63.53c3.33.4 6.32-1.9 8.9-4.06-.85.12-1.74.38-2.3 1.03-.56.64-.62 1.77.06 2.28.6.45 1.45.27 2.17.06 3.18-.94 6.32-2.04 9.4-3.3-.4.98-1.4 1.5-2.25 2.1-.86.58-1.7 1.52-1.45 2.53 2.93-.62 5.8-1.58 8.5-2.87-.82 1.2-1.55 2.48-2.18 3.8 2.26-.64 4.48-1.44 6.63-2.4"/></g></svg>