<?xml version="1.0" encoding="iso-8859-1"?>
<!-- Generator: Adobe Illustrator 19.0.1, SVG Export Plug-In . SVG Version: 6.00 Build 0)  -->
<svg version="1.1" xmlns="http://www.w3.org/2000/svg" xmlns:xlink="http://www.w3.org/1999/xlink" x="0px" y="0px"
	 viewBox="0 0 65 77" enable-background="new 0 0 65 77" xml:space="preserve">
<g id="_x31_-_Blue_Dog">
	<g id="Layer_2" display="none" opacity="0.4">
	</g>
</g>
<g id="_x32_-_Options">
	<g id="medication">
	</g>
	<g id="talking">
	</g>
	<g id="practical">
		<g id="mirror_2_">
		</g>
	</g>
</g>
<g id="_x33_-_Practical_Intro">
	<g id="List">
	</g>
</g>
<g id="_x34_-_Practical_List">
</g>
<g id="_x35_-_Support_Locations">
</g>
<g id="_x36_-Shy_Dog">
</g>
<g id="_x37_-Better_Dog">
</g>
<g id="_x38_-Therapist_Dog">
</g>
<g id="_x39_-_Therapy_Details">
	<g id="text_6_">
	</g>
</g>
<g id="_x31_0-Combining_Therapies">
	<g id="text_7_">
	</g>
	<g id="Isometric_Grid">
	</g>
	<g id="chair_3_">
	</g>
</g>
<g id="_x31_1-Medication_Script">
	<rect id="script_2_" x="0.5" y="0.5" fill="#FFFFFF" stroke="#BDBDBD" stroke-miterlimit="10" width="64" height="76"/>
	<line fill="#FFFFFF" stroke="#BDBDBD" stroke-miterlimit="10" x1="9" y1="12.5" x2="22" y2="12.5"/>
	<line fill="#FFFFFF" stroke="#BDBDBD" stroke-miterlimit="10" x1="10" y1="25.5" x2="53" y2="25.5"/>
	<line fill="#FFFFFF" stroke="#BDBDBD" stroke-miterlimit="10" x1="10" y1="30.5" x2="53" y2="30.5"/>
	<line fill="#FFFFFF" stroke="#BDBDBD" stroke-miterlimit="10" x1="10" y1="35.5" x2="53" y2="35.5"/>
	<line fill="#FFFFFF" stroke="#BDBDBD" stroke-miterlimit="10" x1="10" y1="40.5" x2="53" y2="40.5"/>
	<line fill="#FFFFFF" stroke="#BDBDBD" stroke-miterlimit="10" x1="10" y1="49.5" x2="53" y2="49.5"/>
	<path fill="none" stroke="#BDBDBD" stroke-miterlimit="10" d="M11.497,63.526c3.333,0.399,6.324-1.894,8.895-4.052
		c-0.846,0.118-1.729,0.377-2.288,1.023c-0.559,0.646-0.625,1.769,0.056,2.284c0.6,0.453,1.447,0.269,2.168,0.056
		c3.183-0.94,6.319-2.038,9.392-3.288c-0.376,0.967-1.385,1.498-2.241,2.085c-0.856,0.588-1.696,1.527-1.452,2.536
		c2.936-0.619,5.8-1.584,8.511-2.87c-0.829,1.204-1.561,2.475-2.188,3.795c2.264-0.633,4.482-1.433,6.628-2.393"/>
</g>
<g id="_x31_2-Dog_With_Medication">
</g>
<g id="_x31_3-Medication_Check_Ups">
</g>
<g id="_x31_4-Medication_Side_Effects">
	<g id="shy_dog_1_">
	</g>
</g>
</svg>
