<?xml version="1.0" encoding="iso-8859-1"?>
<!-- Generator: Adobe Illustrator 19.0.1, SVG Export Plug-In . SVG Version: 6.00 Build 0)  -->
<svg version="1.1" xmlns="http://www.w3.org/2000/svg" xmlns:xlink="http://www.w3.org/1999/xlink" x="0px" y="0px"
	 viewBox="0 0 92.71 216.05" enable-background="new 0 0 92.71 216.05" xml:space="preserve">
<g id="_x31_-_Blue_Dog">
	<g id="Layer_2" display="none" opacity="0.4">
	</g>
</g>
<g id="_x32_-_Options">
	<g id="medication">
	</g>
	<g id="talking">
	</g>
	<g id="practical">
		<g id="mirror_2_">
			<g id="reflection-dog_1_">
				<defs>
					
						<ellipse id="mirror_4_" transform="matrix(0.9771 -0.2126 0.2126 0.9771 -21.7162 12.0889)" cx="45.355" cy="107.025" rx="38.275" ry="107.667"/>
				</defs>
				<clipPath id="mirror_5_">
					<use xlink:href="#mirror_4_"  overflow="visible"/>
				</clipPath>
				<rect x="-59" y="-25.95" clip-path="url(#mirror_5_)" fill="#FFFFFF" width="184" height="280"/>
				<g id="dog-side_5_" clip-path="url(#mirror_5_)">
					<path id="tail_22_" fill="#1E88E5" d="M32.149,188.297c0,0-15.338,1.817-23.862-0.633c0,0,16.934,15.499,26.554,10.508
						L32.149,188.297z"/>
					<path id="body_20_" fill="#0D47A1" d="M66.531,159.242c0.066,0.109,0.132,0.217,0.198,0.324c1.92,3.13,2.96,6.539,3.794,10.016
						c0.905,3.772,1.405,7.566,1.487,11.268c0.058,2.653-0.664,5.094-0.593,7.763c0.023,0.865-0.042,1.929,0.746,2.553
						c1.465,1.161,5.218,0.22,6.679,0.111c2.147-0.16,4.382-0.213,6.604,0.624c1.503,0.566,3.028,1.612,4.117,3.045
						c1.322,1.739,1.372,4.073-0.06,5.059c-0.745,0.513-1.689,0.662-2.614,0.793c-2.345,0.333-4.515,0.842-6.958,0.916
						c-1.475,0.044-2.931-0.35-4.383-0.363c-1.999-0.018-3.983,0.329-5.939,0.501c-3.953,0.348-7.899,0.725-11.836,1.132
						c-4.645,0.48-9.279,1.002-13.902,1.564c-2.554,0.311-5.143,0.487-7.721,0.71c-2.442,0.211-4.283,0.712-6.53,1.512
						c-3.927,1.397-8.058,2.332-12.172,3.226c-1.26,0.274-2.886,0.051-3.859-1.233c-0.563-0.743-0.777-1.675-0.969-2.556
						c-0.18-0.829-0.359-1.708-0.123-2.417c0.17-0.511,0.538-0.871,0.905-1.206c1.657-1.509,3.328-3.021,5.519-3.633
						c2.644-0.738,5.385-1.27,8.07-1.903c-0.007,0.002-1.009-1.71-1.055-1.866c-0.232-0.783-2.505-2.496-3.116-3.178
						c-4.161-4.649-7.531-10.341-8.913-16.335c-1.497-6.494-0.332-12.476-0.865-18.819c-0.641-7.624-2.657-15.332-4.226-22.99
						c-1.284-6.265-2.595-12.593-3.464-18.848c-0.723-5.202-2.308-10.608-0.901-15.369c1.317-4.46,4.826-9.127,8.661-10.99
						c4.339-2.108,11.476-0.541,16.402,1.664c5.543,2.482,10.161,6.646,14.226,11.773c4.715,5.948,7.234,12.843,9.427,19.891
						c1.608,5.17,3.15,10.35,4.625,15.538c1.06,3.73,1.97,7.277,3.338,10.933C62.493,152.107,64.472,155.855,66.531,159.242z"/>
					<path id="tummy_21_" fill="#81D4FA" d="M25.847,168.227c4.702,16.012,14.768,28.191,22.483,27.201s10.158-14.773,5.456-30.785
						s-14.768-28.191-22.483-27.201S21.145,152.215,25.847,168.227z"/>
					<path id="left_leg_19_" fill="#1565C0" d="M56.314,204.515c-2.147-9.672-2.885-19.303-3.856-28.895
						c-0.724-7.153-1.011-5.338-1.738-12.491c-0.772-7.591-0.476-3.726-1.562-11.347c-0.462-3.241-0.731-6.469-0.804-9.654
						c-0.043-1.855-0.157-4.281,0.878-5.671c1.037-1.392,4.304-1.559,5.993-0.421c2.428,1.637,3.159,6.578,3.658,9.099
						c1.362,6.876,2.165,10.681,2.848,17.505c1.129,11.264,1.407,5.283,2.695,16.565c0.923,8.086,1.858,17.459,6.898,24.872
						c0.832,1.224,1.832,2.555,1.805,3.911c-0.016,0.807-0.39,1.429-0.914,1.857c-0.357,0.292-0.743,0.545-1.181,0.702
						c-0.274-0.281-0.548-0.561-0.821-0.842c0,0-0.262-0.269-0.524-0.537c-0.04,0.017-0.078,0.039-0.119,0.054
						c-0.119,0.046-0.24,0.084-0.364,0.118c0.054,0.579,0.108,1.158,0.163,1.737c-0.671,0.122-1.341,0.245-2.01,0.373
						c-0.075,0.014-0.154,0.028-0.233-0.007c-0.091-0.04-0.16-0.135-0.222-0.223c-0.306-0.435-0.614-0.868-0.921-1.302
						c-0.229,0.034-0.46,0.063-0.691,0.09c-0.051,0.577-0.103,1.155-0.153,1.733c-0.269-0.089-0.66,0.011-0.921,0.015
						c-0.509,0.008-1.022-0.01-1.536-0.026c-0.025,0.003-0.437-1.023-0.756-1.825c-0.176-0.037-0.351-0.068-0.527-0.118
						c-0.044-0.012-0.089-0.027-0.135-0.043c-0.194,0.474-0.388,0.948-0.581,1.423c-0.581-0.3-1.186-0.584-1.682-1.091
						C57.549,208.59,56.755,206.505,56.314,204.515z"/>
					<path id="right_leg_19_" fill="#1565C0" d="M15.742,141.441c2.958-0.12,4.725,3.677,6.104,6.187
						c5.025,9.145,4.158,10.276,8.779,19.577c8.363,16.834,10.755,20.261,18.504,37.356c1.121,2.472,2.562,5.866,0.612,7.559
						c-0.281,0.244-0.606,0.457-0.955,0.59c-0.3-0.382-0.635-0.816-0.983-1.148c-0.34-0.326-0.643-0.308-0.987-0.222l-0.015,0.577
						l-0.036,1.397c-0.558,0.125-1.206,0.292-1.904,0.455l-0.771-0.983l-0.436-0.556c-0.207,0.061-0.416,0.117-0.629,0.163
						l-0.046,0.58l-0.093,1.18c-0.718,0.106-1.453,0.165-2.179,0.143l-0.733-1.423l-0.208-0.404
						c-0.285,0.016-0.571,0.008-0.854-0.075l-0.117,0.348l-0.381,1.132c-0.737-0.276-1.427-0.698-2.025-1.336
						c-1.746-1.864-1.252-3.978-1.607-6.11c-0.322-1.934-0.68-3.871-1.128-5.805c-2.366-10.217-0.807-6.947-5.425-16.597
						c-4.581-9.572-5.264-10.408-9.708-20.043C13.561,153.226,9.66,141.688,15.742,141.441z"/>
					<path id="head_26_" fill="#1E88E5" d="M47.611,94.675c-0.891-0.006-1.784-0.128-2.701-0.235
						c-1.012-0.119-2.026-0.268-3.037-0.379c-1.263-0.139-2.516-0.202-3.762-0.226c-0.746,0.174-1.492,0.348-2.238,0.522
						c-3.375,0.788-6.752,1.576-10.214,2.106c-6.239,0.956-12.915,2.779-18.713-2.164c-2.856-2.435-5.024-5.781-6.837-9.183
						c-1.643-3.085-3.049-6.283-4.194-9.535c-0.608-1.727-1.148-3.506-1.196-5.228c-0.043-1.542-0.108-5.119,0.372-6.443
						c1.32-3.64,1.226-6.153,4.185-8.147c4.48-3.019,12.392-3.562,18.167-2.159c1.024,0.249,2.066,0.53,3.039,1.114
						c0.81,0.486,1.54,1.164,2.261,1.835c4.035,3.754,7.128,6.522,11.922,8.52c4.403,1.835,2.231,1.448,6.713,2.155
						c4.013,0.633,8.468,0.713,11.998,3.677c6.036,5.068,9.007,17.429,3.413,21.484c-1.412,1.023-3.192,1.391-4.928,1.707
						c-1.14,0.208-2.271,0.453-3.445,0.551C48.147,94.668,47.879,94.677,47.611,94.675z"/>
					<path id="nose_24_" fill="#263238" d="M54.231,72.067c0.336-0.414,0.824-0.65,1.487-0.578c1.341,0.144,2.877,1.549,3.81,2.736
						c1.013,1.288,1.676,2.883,1.842,4.426c0.167,1.551-0.27,3.637-1.806,3.731c-0.685,0.042-1.426-0.264-2.093-0.696
						c-1.62-1.048-2.529-2.547-3.204-4.353c-0.431-1.154-0.689-2.365-0.62-3.501C53.69,73.146,53.875,72.506,54.231,72.067z"/>
					<path id="eye_12_" fill="#263238" d="M23.612,69.918c0.555,1.89,2.315,3.254,3.931,3.047c1.616-0.207,2.476-1.908,1.921-3.798
						s-2.315-3.254-3.931-3.047C23.917,66.327,23.057,68.028,23.612,69.918z"/>
					<path id="ear_12_" fill="#283593" d="M16.398,56.542c-1.537,1.959-1.759,5.004-1.321,7.942
						c0.437,2.938,0.352,5.083,1.124,8.018c0.589,2.24,2.145,5.279,2.881,7.499c1.392,4.2,3.837,8.332,4.108,12.533
						c0.062,0.964-0.001,1.933-0.379,2.698c-0.715,1.446-2.368,1.871-3.911,2.145c-2.37,0.421-4.803,0.712-7.326,0.433
						s-5.159-1.16-7.464-2.888c-3.062-2.296-5.32-5.955-6.436-9.688s-1.167-7.531-0.617-11.014c0.275-1.741-0.468-7.398-0.41-9.215
						c0.044-1.36-0.118-2.774-0.026-4.119c0.21-3.08,1.825-5.67,4.243-6.801c1.163-0.544,2.477-0.762,3.779-0.976
						c2.958-0.486,6.342-0.33,10.164,1.982c0.641,0.388,1.466,0.573,1.619,1.324"/>
				</g>
			</g>
			<linearGradient id="mirror_6_" gradientUnits="userSpaceOnUse" x1="9.0918" y1="118.0095" x2="83.6184" y2="98.0401">
				<stop  offset="0" style="stop-color:#000000;stop-opacity:0.4"/>
				<stop  offset="0.5314" style="stop-color:#FFFFFF;stop-opacity:0.5"/>
				<stop  offset="1" style="stop-color:#000000;stop-opacity:0.5"/>
			</linearGradient>
			<path id="mirror_3_" fill="url(#mirror_6_)" stroke="#FF9800" stroke-width="5" stroke-miterlimit="10" d="M83.755,99.888
				C96.397,157.991,89.9,208.736,69.245,213.23c-20.656,4.494-47.648-38.965-60.29-97.068S2.81,7.313,23.466,2.819
				S71.114,41.784,83.755,99.888z"/>
			<path fill="#FF9800" d="M6.61,203.659c-0.432,1.884,0.745,3.762,2.629,4.194c0.264,0.06,0.527,0.089,0.786,0.089
				c1.595,0,3.037-1.098,3.409-2.718l9.847-42.926c-1.197-2.25-1.975-4.896-3.427-7.254L6.61,203.659z"/>
		</g>
	</g>
</g>
<g id="_x33_-_Practical_Intro">
	<g id="List">
	</g>
</g>
<g id="_x34_-_Practical_List">
</g>
<g id="_x35_-_Support_Locations">
</g>
<g id="_x36_-Shy_Dog">
</g>
<g id="_x37_-Better_Dog">
</g>
<g id="_x38_-Therapist_Dog">
</g>
<g id="_x39_-_Therapy_Details">
	<g id="text_6_">
	</g>
	<g id="grandad_dog">
	</g>
	<g id="puppy">
	</g>
	<g id="mum_dog">
	</g>
</g>
<g id="_x31_0-Combining_Therapies">
	<g id="text_7_">
	</g>
	<g id="Isometric_Grid">
	</g>
	<g id="chair_3_">
	</g>
</g>
<g id="_x31_1-Medication_Script">
</g>
<g id="_x31_2-Dog_With_Medication">
</g>
<g id="_x31_3-Medication_Check_Ups">
</g>
<g id="_x31_4-Medication_Side_Effects">
	<g id="shy_dog_1_">
	</g>
</g>
</svg>
