<svg xmlns="http://www.w3.org/2000/svg" xmlns:xlink="http://www.w3.org/1999/xlink" viewBox="0 0 92.71 216.05" enable-background="new 0 0 92.71 216.05"><g><g><g><g><defs><ellipse id="a" cx="45.355" cy="107.025" transform="matrix(.977 -.213 .213 .977 -21.716 12.089)" rx="38.275" ry="107.667"/></defs><clipPath id="b"><use xlink:href="#a" overflow="visible"/></clipPath><path fill="#fff" d="M-59-25.95h184v280H-59z" clip-path="url(#b)"/><g clip-path="url(#b)"><path fill="#1E88E5" d="M32.15 188.3s-15.34 1.8-23.86-.64c0 0 16.92 15.5 26.54 10.5l-2.7-9.86z"/><path fill="#0D47A1" d="M66.53 159.24c.07.1.13.22.2.33 1.92 3.13 2.96 6.54 3.8 10 .9 3.78 1.4 7.58 1.48 11.28.07 2.65-.65 5.1-.58 7.76.02.88-.05 1.94.74 2.57 1.47 1.16 5.22.22 6.68.1 2.15-.15 4.38-.2 6.6.63 1.5.57 3.03 1.6 4.12 3.05 1.32 1.73 1.37 4.07-.06 5.05-.74.52-1.7.67-2.6.8-2.36.33-4.53.84-6.97.9-1.47.06-2.93-.34-4.38-.35-2-.02-4 .33-5.94.5-3.94.35-7.9.73-11.83 1.13-4.64.48-9.28 1-13.9 1.57-2.55.3-5.14.48-7.72.7-2.44.22-4.28.72-6.53 1.52-3.93 1.4-8.06 2.33-12.17 3.23-1.26.27-2.9.05-3.86-1.24-.57-.74-.8-1.67-.98-2.55-.18-.82-.36-1.7-.12-2.4.17-.52.53-.88.9-1.22 1.66-1.5 3.33-3.02 5.52-3.63 2.64-.74 5.4-1.27 8.07-1.9-.02 0-1.02-1.7-1.06-1.87-.24-.78-2.5-2.5-3.12-3.18-4.16-4.65-7.53-10.34-8.9-16.33-1.5-6.5-.35-12.48-.88-18.82-.64-7.62-2.66-15.33-4.22-23-1.3-6.26-2.6-12.58-3.47-18.84-.72-5.2-2.3-10.6-.9-15.36 1.32-4.46 4.83-9.12 8.66-11 4.35-2.1 11.5-.53 16.4 1.68 5.56 2.48 10.17 6.64 14.24 11.77 4.7 5.94 7.23 12.83 9.43 19.88 1.6 5.17 3.15 10.35 4.62 15.54 1.05 3.73 1.96 7.28 3.33 10.93 1.36 3.66 3.34 7.4 5.4 10.8z"/><path fill="#81D4FA" d="M25.85 168.23c4.7 16 14.77 28.2 22.48 27.2s10.16-14.78 5.46-30.8-14.78-28.18-22.5-27.2-10.16 14.78-5.45 30.8z"/><path fill="#1565C0" d="M56.3 204.5c-2.13-9.66-2.87-19.3-3.84-28.88-.73-7.15-1-5.34-1.74-12.5-.77-7.58-.48-3.72-1.56-11.34-.46-3.24-.73-6.47-.8-9.65-.05-1.86-.16-4.28.87-5.67 1.04-1.4 4.3-1.56 6-.42 2.42 1.63 3.15 6.57 3.65 9.1 1.37 6.87 2.17 10.68 2.85 17.5 1.13 11.26 1.4 5.28 2.7 16.56.92 8.1 1.85 17.46 6.9 24.88.83 1.22 1.83 2.55 1.8 3.9-.02.8-.4 1.44-.9 1.86-.37.3-.76.55-1.2.7-.27-.27-.54-.55-.82-.84 0 0-.25-.26-.5-.53-.05 0-.1.04-.13.05-.12.05-.24.1-.36.12.06.58.1 1.16.17 1.74-.67.12-1.34.24-2 .37-.1 0-.17.03-.24 0-.1-.05-.16-.14-.23-.23-.3-.44-.6-.87-.92-1.3-.23.03-.46.06-.7.1-.04.56-.1 1.14-.14 1.72-.27-.1-.66 0-.92.02-.5 0-1.02 0-1.54-.03-.02 0-.44-1.02-.75-1.83-.18-.03-.36-.06-.53-.1-.05-.03-.1-.04-.14-.06-.2.48-.38.95-.58 1.43-.58-.3-1.18-.6-1.68-1.1-1.45-1.48-2.24-3.56-2.7-5.56z"/><path fill="#1565C0" d="M15.74 141.44c2.96-.12 4.73 3.68 6.1 6.2 5.03 9.13 4.16 10.26 8.79 19.57 8.36 16.84 10.75 20.27 18.5 37.36 1.12 2.47 2.56 5.87.6 7.56-.27.24-.6.46-.94.6-.3-.4-.65-.83-1-1.16-.34-.32-.64-.3-.98-.22l-.02.58-.03 1.4c-.56.12-1.2.3-1.9.45l-.78-.98-.45-.57c-.2.06-.4.12-.62.16l-.05.57-.1 1.18c-.7.1-1.45.17-2.17.15l-.73-1.43-.2-.4c-.3.02-.57 0-.86-.08l-.1.34-.4 1.13c-.72-.27-1.4-.7-2-1.33-1.76-1.87-1.26-3.98-1.62-6.1-.32-1.95-.68-3.88-1.13-5.82-2.36-10.2-.8-6.94-5.42-16.6-4.58-9.57-5.26-10.4-9.7-20.04-4.97-10.75-8.87-22.3-2.8-22.54z"/><path fill="#1E88E5" d="M47.6 94.67c-.88 0-1.77-.12-2.7-.23-1-.12-2.02-.27-3.03-.38-1.26-.14-2.5-.2-3.76-.23-.74.18-1.48.35-2.23.53-3.37.78-6.75 1.57-10.2 2.1-6.25.96-12.93 2.78-18.72-2.16C4.1 91.86 1.92 88.52.1 85.12c-1.63-3.1-3.04-6.3-4.2-9.54-.6-1.73-1.13-3.5-1.18-5.23-.04-1.54-.1-5.12.37-6.44 1.3-3.63 1.22-6.14 4.18-8.14 4.48-3.02 12.4-3.56 18.16-2.16 1.03.25 2.07.53 3.04 1.12.8.48 1.54 1.16 2.26 1.83 4.04 3.76 7.13 6.53 11.93 8.52 4.4 1.84 2.23 1.45 6.7 2.16 4.02.63 8.48.7 12 3.67 6.04 5.07 9 17.43 3.42 21.5-1.42 1-3.2 1.38-4.94 1.7-1.14.2-2.27.45-3.44.55-.27.02-.54.03-.8.02z"/><path fill="#263238" d="M54.23 72.07c.34-.42.83-.65 1.5-.58 1.33.13 2.87 1.54 3.8 2.72 1 1.3 1.67 2.9 1.84 4.43.17 1.55-.27 3.64-1.8 3.73-.7.04-1.43-.26-2.1-.7-1.62-1.04-2.53-2.54-3.2-4.35-.43-1.15-.7-2.36-.62-3.5.04-.68.23-1.32.58-1.76z"/><path fill="#263238" d="M23.6 69.92c.57 1.9 2.33 3.25 3.94 3.05 1.62-.2 2.48-1.9 1.92-3.8s-2.3-3.26-3.93-3.05c-1.6.2-2.47 1.9-1.92 3.8z"/><path fill="#283593" d="M16.4 56.54c-1.54 1.96-1.76 5-1.32 7.94.43 2.94.35 5.1 1.12 8.02.6 2.24 2.15 5.28 2.88 7.5 1.4 4.2 3.84 8.33 4.1 12.53.07.97 0 1.94-.37 2.7-.7 1.45-2.36 1.87-3.9 2.15-2.37.42-4.8.7-7.33.43S6.4 96.66 4.1 94.93c-3.05-2.3-5.3-5.95-6.43-9.7s-1.16-7.52-.6-11c.26-1.74-.48-7.4-.42-9.21.04-1.36-.12-2.77-.03-4.1.2-3.1 1.83-5.68 4.24-6.82 1.17-.54 2.48-.76 3.78-.97 2.96-.48 6.34-.32 10.17 2 .65.38 1.47.56 1.63 1.3"/></g></g><linearGradient id="c" x1="9.092" x2="83.618" y1="118.01" y2="98.04" gradientUnits="userSpaceOnUse"><stop offset="0" stop-opacity=".4"/><stop offset=".531" stop-color="#fff" stop-opacity=".5"/><stop offset="1" stop-opacity=".5"/></linearGradient><path fill="url(#c)" stroke="#FF9800" stroke-width="5" stroke-miterlimit="10" d="M83.75 99.9C96.4 158 89.9 208.73 69.25 213.22c-20.66 4.5-47.65-38.97-60.3-97.07S2.82 7.3 23.48 2.82 71.1 41.78 83.75 99.9z"/><path fill="#FF9800" d="M6.6 203.66c-.42 1.88.76 3.76 2.64 4.2.26.05.53.08.8.08 1.58 0 3.02-1.1 3.4-2.72l9.84-42.92c-1.2-2.25-1.97-4.9-3.43-7.26L6.6 203.66z"/></g></g></g></svg>