<svg xmlns="http://www.w3.org/2000/svg" viewBox="0 0 63 77" enable-background="new 0 0 63 77"><g><path fill="#F5F5F5" stroke="#BDBDBD" stroke-miterlimit="10" d="M.5.5h62v76H.5z"/><path fill="none" stroke="#BDBDBD" stroke-miterlimit="10" d="M28.8 10.44l1.47 1.75 6.56-4.72" stroke-linecap="round" stroke-linejoin="round"/><path fill="none" stroke="#BDBDBD" stroke-miterlimit="10" d="M19 23.5h34"/><path fill="none" stroke="#BDBDBD" stroke-miterlimit="10" d="M19 33.5h34"/><path fill="none" stroke="#BDBDBD" stroke-miterlimit="10" d="M19 43.5h34"/><path fill="none" stroke="#BDBDBD" stroke-miterlimit="10" d="M19 53.5h34"/><path fill="none" stroke="#BDBDBD" stroke-miterlimit="10" d="M19 63.5h34"/><path fill="#BDBDBD" d="M10 23.28c0 .4-.32.72-.72.72H7.72c-.4 0-.72-.32-.72-.72v-1.56c0-.4.32-.72.72-.72h1.56c.4 0 .72.32.72.72v1.56z"/><path fill="#BDBDBD" d="M10 34.28c0 .4-.32.72-.72.72H7.72c-.4 0-.72-.32-.72-.72v-1.56c0-.4.32-.72.72-.72h1.56c.4 0 .72.32.72.72v1.56z"/><path fill="#BDBDBD" d="M10 44.28c0 .4-.32.72-.72.72H7.72c-.4 0-.72-.32-.72-.72v-1.56c0-.4.32-.72.72-.72h1.56c.4 0 .72.32.72.72v1.56z"/><path fill="#BDBDBD" d="M10 54.28c0 .4-.32.72-.72.72H7.72c-.4 0-.72-.32-.72-.72v-1.56c0-.4.32-.72.72-.72h1.56c.4 0 .72.32.72.72v1.56z"/><path fill="#BDBDBD" d="M10 64.28c0 .4-.32.72-.72.72H7.72c-.4 0-.72-.32-.72-.72v-1.56c0-.4.32-.72.72-.72h1.56c.4 0 .72.32.72.72v1.56z"/></g></svg>