<?xml version="1.0" encoding="iso-8859-1"?>
<!-- Generator: Adobe Illustrator 19.0.1, SVG Export Plug-In . SVG Version: 6.00 Build 0)  -->
<svg version="1.1" xmlns="http://www.w3.org/2000/svg" xmlns:xlink="http://www.w3.org/1999/xlink" x="0px" y="0px"
	 viewBox="0 0 399 446" enable-background="new 0 0 399 446" xml:space="preserve">
<g id="_x31_-_Blue_Dog">
	<g id="Layer_2" display="none" opacity="0.4">
	</g>
</g>
<g id="_x32_-_Options">
	<g id="medication">
	</g>
	<g id="talking">
	</g>
	<g id="practical">
		<g id="mirror_2_">
		</g>
	</g>
</g>
<g id="_x33_-_Practical_Intro">
	<g id="List">
	</g>
</g>
<g id="_x34_-_Practical_List">
	<g id="List_2_">
		<rect id="Paper_1_" x="0.5" y="0.5" fill="#FAFAFA" stroke="#BDBDBD" stroke-miterlimit="10" width="398" height="445"/>
		<g id="todo_text_1_">
			<path fill="#78909C" d="M105.093,47.924h-6.812l-3.955,19.834h-1.699l3.955-19.834H89.8l0.293-1.494h15.293L105.093,47.924z"/>
			<path fill="#78909C" d="M103.203,59.599c0.381-2.422,1.276-4.358,2.688-5.808c1.41-1.45,3.112-2.175,5.104-2.175
				c1.895,0,3.337,0.754,4.329,2.263c0.99,1.509,1.301,3.416,0.93,5.72l-0.073,0.483c-0.391,2.432-1.289,4.37-2.695,5.815
				s-3.101,2.168-5.083,2.168c-1.904,0-3.354-0.752-4.351-2.256s-1.304-3.413-0.923-5.728L103.203,59.599z M104.829,60.075
				c-0.312,1.902-0.142,3.46,0.513,4.675s1.753,1.822,3.296,1.822c1.436,0,2.695-0.631,3.779-1.895
				c1.084-1.263,1.772-2.797,2.065-4.602l0.073-0.483c0.293-1.873,0.114-3.421-0.535-4.646c-0.649-1.224-1.735-1.836-3.259-1.836
				c-1.455,0-2.728,0.637-3.815,1.91c-1.09,1.273-1.771,2.797-2.044,4.572L104.829,60.075z"/>
			<path fill="#78909C" d="M119.243,59.672c0.537-2.705,1.387-4.724,2.549-6.057s2.646-2,4.453-2c0.977,0,1.836,0.227,2.578,0.681
				s1.309,1.091,1.699,1.912l1.86-9.302h1.685l-4.57,22.852h-1.494l0.293-2.109c-0.615,0.771-1.328,1.367-2.139,1.787
				s-1.699,0.63-2.666,0.63c-1.65,0-2.896-0.769-3.735-2.307s-1.03-3.464-0.571-5.779L119.243,59.672z M120.898,59.98
				c-0.41,2.031-0.34,3.637,0.212,4.819c0.552,1.182,1.556,1.772,3.011,1.772c0.938,0,1.787-0.274,2.549-0.824
				s1.426-1.295,1.992-2.236l1.494-7.489c-0.225-0.854-0.651-1.552-1.282-2.097c-0.629-0.544-1.496-0.816-2.6-0.816
				c-1.318,0-2.437,0.596-3.354,1.788c-0.918,1.192-1.572,2.783-1.963,4.774L120.898,59.98z"/>
			<path fill="#78909C" d="M134.609,59.599c0.381-2.422,1.276-4.358,2.688-5.808c1.41-1.45,3.112-2.175,5.104-2.175
				c1.895,0,3.337,0.754,4.329,2.263c0.99,1.509,1.301,3.416,0.93,5.72l-0.073,0.483c-0.391,2.432-1.289,4.37-2.695,5.815
				s-3.101,2.168-5.083,2.168c-1.904,0-3.354-0.752-4.351-2.256s-1.304-3.413-0.923-5.728L134.609,59.599z M136.235,60.075
				c-0.312,1.902-0.142,3.46,0.513,4.675s1.753,1.822,3.296,1.822c1.436,0,2.695-0.631,3.779-1.895
				c1.084-1.263,1.772-2.797,2.065-4.602l0.073-0.483c0.293-1.873,0.114-3.421-0.535-4.646c-0.649-1.224-1.735-1.836-3.259-1.836
				c-1.455,0-2.728,0.637-3.815,1.91c-1.09,1.273-1.771,2.797-2.044,4.572L136.235,60.075z"/>
			<path fill="#78909C" d="M159.365,63.722c0.117-0.77-0.059-1.425-0.527-1.965s-1.411-0.986-2.827-1.337
				c-1.699-0.41-2.92-0.952-3.662-1.626s-1.011-1.626-0.806-2.856c0.195-1.26,0.832-2.295,1.911-3.105s2.41-1.216,3.992-1.216
				c1.602,0,2.834,0.447,3.699,1.34c0.863,0.894,1.169,1.995,0.915,3.303l-0.029,0.088h-1.582c0.137-0.898-0.081-1.663-0.651-2.292
				c-0.572-0.63-1.434-0.945-2.586-0.945c-1.123,0-2.039,0.279-2.746,0.838c-0.709,0.559-1.116,1.197-1.224,1.916
				c-0.127,0.749,0.024,1.356,0.454,1.822s1.382,0.879,2.856,1.239c1.689,0.421,2.912,0.997,3.669,1.727s1.038,1.722,0.843,2.976
				c-0.225,1.372-0.894,2.454-2.007,3.248c-1.113,0.794-2.5,1.19-4.16,1.19c-1.719,0-3.035-0.464-3.947-1.392
				c-0.914-0.928-1.243-2.017-0.989-3.267l0.029-0.088h1.567c-0.117,1.138,0.181,1.964,0.894,2.479
				c0.713,0.516,1.606,0.773,2.681,0.773c1.113,0,2.065-0.28,2.856-0.84C158.779,65.171,159.238,64.501,159.365,63.722z"/>
		</g>
		<g id="Checklist_1_">
			<g id="tickboxes_1_">
				
					<rect id="Tickbox_9_" x="53.5" y="113.5" fill="none" stroke="#B0BEC5" stroke-width="3" stroke-miterlimit="10" width="34" height="34"/>
				
					<rect id="Tickbox_8_" x="53.5" y="191.5" fill="none" stroke="#B0BEC5" stroke-width="3" stroke-miterlimit="10" width="34" height="33"/>
				
					<rect id="Tickbox_7_" x="53.5" y="268.5" fill="none" stroke="#B0BEC5" stroke-width="3" stroke-miterlimit="10" width="34" height="34"/>
				
					<rect id="Tickbox_6_" x="53.5" y="346.5" fill="none" stroke="#B0BEC5" stroke-width="3" stroke-miterlimit="10" width="34" height="33"/>
				<polyline id="Tickbox_4_" fill="none" stroke="#B0BEC5" stroke-width="3" stroke-miterlimit="10" points="53.5,444 53.5,425.5 
					87.5,425.5 87.5,444 				"/>
			</g>
			<g id="Health_2_">
				<path fill="#FF3D00" d="M174.431,107.713c-0.766-0.075-1.414-0.111-2.086-0.111c-5.385,0-7.933,2.327-10.889,5.85
					c-2.957-3.523-5.523-5.85-10.906-5.85c-0.672,0-1.234,0.036-1.999,0.111c-4.66,0.455-9.55,4.721-10.55,12.896v2.721
					c0,7.824,6.303,17.475,23.565,29.583c1.4-0.982,2.627-2.049,4.065-3.009c1.56-1.042,3.076-2.119,4.555-3.274
					c3.662-2.859,6.979-6.273,9.563-10.139c2.492-3.73,5.253-8.554,5.253-13.162c0-0.003,0-2.721,0-2.721
					C185,112.434,179.09,108.168,174.431,107.713z"/>
				<g>
					<polygon fill="#448AFF" points="167,152 167,143 159,143 159,133 167,133 167,125 177,125 177,133 186,133 186,143 177,143 
						177,152 					"/>
					<g>
						<path fill="#FFFFFF" d="M176,127v8h8v7h-8v8h-7v-8h-9v-7h9v-8H176 M179,124h-3.243h-7.079H166v2.501V132h-5.58H157v2.759
							v7.079V145h3.42H166v5.096V153h2.678h7.079H179v-2.904V145h5.016H187v-3.162v-7.079V132h-2.984H179v-5.499V124L179,124z"/>
					</g>
				</g>
			</g>
			<g>
				<path fill="#FFF176" d="M181,442.591l-8.201,0.835c-0.359-0.966-0.883-1.872-1.472-2.697l6.31-4.88l-3.483-3.598l-5.693,5.678
					c-1.476-1.029-3.205-1.513-5.073-1.765L163.82,430h-5l0.591,6.299c-1.336,0.282-2.581,0.698-3.704,1.395l-4.731-5.392
					l-3.472,3.573l5.242,4.347c-0.756,0.944-1.272,2.004-1.706,3.156L144,442.591V446h37V442.591z"/>
			</g>
			<path id="Music_2_" fill="#7E57C2" d="M180.78,216H181v-31.387l0.014-0.104L181,184.511v-0.002l-0.123,0.232L150.669,189H151
				v24.006c-1-0.381-2.7-0.535-4.099-0.399c-4.425,0.43-7.823,3.58-7.487,7.036c0.336,3.457,4.153,5.911,8.577,5.482
				c4.426-0.43,7.719-3.537,7.383-6.994c-0.006-0.059-0.041-0.13-0.049-0.13H156v-21.301l20-3.032v16.99
				c-1-0.381-2.472-0.535-3.871-0.399c-4.425,0.43-7.709,3.581-7.374,7.037c0.336,3.457,4.21,5.911,8.634,5.482
				c4.426-0.43,7.748-3.364,7.412-6.821C180.795,215.897,180.788,216,180.78,216z"/>
			<g id="Sleep_2_">
				<g id="Kennel_2_">
					<polygon opacity="0.5" fill="#FFCA28" points="162.62,335.763 183,358.002 183,390 142,390 142,357.739 					"/>
					<polyline fill="none" stroke="#8D6E63" stroke-width="3" stroke-miterlimit="10" points="137.03,362.745 162.618,337.157 
						187.878,362.418 					"/>
					<g>
						<path fill="#212121" d="M171,372.105c0-4.984-3.13-9.062-8-9.062s-8,4.078-8,9.062V389h16V372.105z"/>
					</g>
				</g>
				<polyline fill="none" stroke="#212121" stroke-linecap="round" stroke-linejoin="round" stroke-miterlimit="10" points="
					129,330.5 134.352,330.5 130.04,334.5 136,334.5 				"/>
				<polyline fill="none" stroke="#212121" stroke-linecap="round" stroke-linejoin="round" stroke-miterlimit="10" points="
					136,343.5 138.664,343.5 135.789,346.5 139,346.5 				"/>
				<polyline fill="none" stroke="#212121" stroke-linecap="round" stroke-linejoin="round" stroke-miterlimit="10" points="
					143,336.5 146.055,336.5 143.18,339.5 147,339.5 				"/>
			</g>
			<g id="food_6_">
				<path id="food_7_" fill="#4E342E" d="M144.503,281.848c-0.372-1.019-0.748-2.133-0.416-3.166s1.73-1.752,2.543-1.033
					c-0.106-0.49-0.209-1.012-0.034-1.482s0.749-0.825,1.189-0.587c0.724-1.001,2.021-1.553,3.244-1.382
					c-0.808-0.672-0.333-2.115,0.604-2.592s2.059-0.292,3.091-0.096c0.487,0.092,0.974,0.185,1.461,0.277
					c0.523-0.609,1.081-1.244,1.839-1.508s1.766,0.008,2.023,0.769c0.664-0.969,2.493-0.565,2.688,0.593
					c1.109-0.437,2.318-0.618,3.506-0.525c0.08,0.302,0.159,0.604,0.239,0.906c1.203-0.531,2.505-0.836,3.819-0.894
					c0.148,0.316,0.172,0.689,0.067,1.022c0.564-0.456,1.497-0.347,1.941,0.227c0.444,0.574,3.195,2.083,2.612,2.515
					c2.302,0.202,1.7,0.112,3.882,0.874c-0.205,0.813,0.529,1.717,1.366,1.685c0.023,0.553,0.046,1.107,0.069,1.66
					c0.557,0.428,1.114,0.855,1.671,1.283c-0.367,1.221-1.866,1.711-3.139,1.641c-1.273-0.07-2.534-0.505-3.798-0.34
					c-2.282,0.297-4.059,2.471-6.36,2.505c-1.184,0.017-2.32-0.551-3.504-0.524c-1.14,0.025-2.185,0.594-3.251,0.997
					c-4.404,1.664-9.313,0.537-13.881-0.605c-1.325-0.331-2.929-0.98-3.006-2.343"/>
				<polygon id="bowl_5_" fill="#A1887F" points="141.199,281 183.538,281 188.6,297 136.29,297 				"/>
			</g>
		</g>
		<g id="Paragraphs_1_">
			<line fill="none" stroke="#B0BEC5" stroke-width="3" stroke-miterlimit="10" x1="264" y1="33.5" x2="366" y2="33.5"/>
			<line fill="none" stroke="#B0BEC5" stroke-width="3" stroke-miterlimit="10" x1="264" y1="50.5" x2="366" y2="50.5"/>
			<line fill="none" stroke="#B0BEC5" stroke-width="3" stroke-miterlimit="10" x1="264" y1="67.5" x2="366" y2="67.5"/>
			<line fill="none" stroke="#B0BEC5" stroke-width="3" stroke-miterlimit="10" x1="264" y1="84.5" x2="366" y2="84.5"/>
			<line fill="none" stroke="#B0BEC5" stroke-width="3" stroke-miterlimit="10" x1="264" y1="144.5" x2="366" y2="144.5"/>
			<line fill="none" stroke="#B0BEC5" stroke-width="3" stroke-miterlimit="10" x1="264" y1="161.5" x2="366" y2="161.5"/>
			<line fill="none" stroke="#B0BEC5" stroke-width="3" stroke-miterlimit="10" x1="264" y1="178.5" x2="366" y2="178.5"/>
			<line fill="none" stroke="#B0BEC5" stroke-width="3" stroke-miterlimit="10" x1="264" y1="195.5" x2="366" y2="195.5"/>
			<line fill="none" stroke="#B0BEC5" stroke-width="3" stroke-miterlimit="10" x1="264" y1="251.5" x2="366" y2="251.5"/>
			<line fill="none" stroke="#B0BEC5" stroke-width="3" stroke-miterlimit="10" x1="264" y1="268.5" x2="366" y2="268.5"/>
			<line fill="none" stroke="#B0BEC5" stroke-width="3" stroke-miterlimit="10" x1="264" y1="285.5" x2="366" y2="285.5"/>
			<line fill="none" stroke="#B0BEC5" stroke-width="3" stroke-miterlimit="10" x1="264" y1="302.5" x2="366" y2="302.5"/>
			<line fill="none" stroke="#B0BEC5" stroke-width="3" stroke-miterlimit="10" x1="264" y1="321.5" x2="366" y2="321.5"/>
			<line fill="none" stroke="#B0BEC5" stroke-width="3" stroke-miterlimit="10" x1="264" y1="340.5" x2="366" y2="340.5"/>
			<line fill="none" stroke="#B0BEC5" stroke-width="3" stroke-miterlimit="10" x1="264" y1="391.5" x2="366" y2="391.5"/>
			<line fill="none" stroke="#B0BEC5" stroke-width="3" stroke-miterlimit="10" x1="264" y1="411.5" x2="366" y2="411.5"/>
			<line fill="none" stroke="#B0BEC5" stroke-width="3" stroke-miterlimit="10" x1="264" y1="431.5" x2="366" y2="431.5"/>
		</g>
	</g>
</g>
<g id="_x35_-_Support_Locations">
</g>
<g id="_x36_-Shy_Dog">
</g>
<g id="_x37_-Better_Dog">
</g>
<g id="_x38_-Therapist_Dog">
</g>
<g id="_x39_-_Therapy_Details">
	<g id="text_6_">
	</g>
</g>
<g id="_x31_0-Combining_Therapies">
	<g id="text_7_">
	</g>
	<g id="Isometric_Grid">
	</g>
	<g id="chair_3_">
	</g>
</g>
<g id="_x31_1-Medication_Script">
</g>
<g id="_x31_2-Dog_With_Medication">
</g>
<g id="_x31_3-Medication_Check_Ups">
</g>
<g id="_x31_4-Medication_Side_Effects">
	<g id="shy_dog_1_">
	</g>
</g>
</svg>
