<svg xmlns="http://www.w3.org/2000/svg" viewBox="0 0 399 446" enable-background="new 0 0 399 446"><g><g><path fill="#FAFAFA" stroke="#BDBDBD" stroke-miterlimit="10" d="M.5.5h398v445H.5z"/><g fill="#78909C"><path d="M105.1 47.92h-6.82l-3.95 19.84h-1.7l3.95-19.84H89.8l.3-1.5h15.3l-.3 1.5zM103.2 59.6c.38-2.42 1.28-4.36 2.7-5.8 1.4-1.46 3.1-2.18 5.1-2.18 1.9 0 3.33.75 4.32 2.26 1 1.5 1.3 3.4.93 5.72l-.07.48c-.4 2.43-1.3 4.37-2.7 5.82s-3.1 2.16-5.08 2.16c-1.9 0-3.35-.75-4.35-2.25s-1.3-3.4-.92-5.72l.07-.48zm1.63.48c-.3 1.9-.14 3.46.5 4.67s1.77 1.82 3.3 1.82c1.44 0 2.7-.63 3.8-1.9 1.07-1.26 1.76-2.8 2.05-4.6l.07-.48c.3-1.88.12-3.43-.53-4.65-.65-1.23-1.74-1.84-3.26-1.84-1.45 0-2.73.65-3.8 1.92-1.1 1.27-1.78 2.8-2.06 4.57l-.07.48zM119.24 59.67c.54-2.7 1.4-4.72 2.55-6.06s2.64-2 4.45-2c.97 0 1.83.24 2.57.7s1.3 1.1 1.7 1.9l1.86-9.3h1.7l-4.58 22.86H128l.3-2.1c-.62.76-1.33 1.36-2.14 1.78s-1.7.63-2.67.63c-1.66 0-2.9-.77-3.74-2.3s-1.03-3.47-.57-5.8l.04-.3zm1.66.3c-.4 2.04-.34 3.65.2 4.83.56 1.18 1.57 1.77 3.02 1.77.94 0 1.8-.27 2.55-.82s1.43-1.3 2-2.24l1.5-7.48c-.24-.85-.66-1.55-1.3-2.1-.63-.54-1.5-.8-2.6-.8-1.3 0-2.43.6-3.35 1.78-.92 1.2-1.57 2.78-1.96 4.77l-.06.3zM134.6 59.6c.4-2.42 1.3-4.36 2.7-5.8 1.4-1.46 3.1-2.18 5.1-2.18 1.9 0 3.34.75 4.33 2.26 1 1.5 1.3 3.4.93 5.72l-.07.48c-.4 2.43-1.3 4.37-2.7 5.82s-3.1 2.16-5.1 2.16c-1.9 0-3.34-.75-4.34-2.25s-1.3-3.4-.92-5.72l.07-.48zm1.64.48c-.32 1.9-.15 3.46.5 4.67s1.76 1.82 3.3 1.82c1.44 0 2.7-.63 3.78-1.9 1.1-1.26 1.78-2.8 2.07-4.6l.06-.48c.3-1.88.12-3.43-.53-4.65-.65-1.23-1.74-1.84-3.26-1.84-1.46 0-2.73.65-3.82 1.92-1.1 1.27-1.77 2.8-2.04 4.57l-.06.48zM159.37 63.72c.1-.77-.06-1.42-.53-1.96s-1.4-1-2.83-1.34c-1.7-.4-2.9-.95-3.65-1.63s-1-1.63-.8-2.86c.2-1.26.82-2.3 1.9-3.1s2.4-1.22 4-1.22 2.83.44 3.7 1.34c.86.9 1.16 2 .9 3.3l-.02.1h-1.58c.14-.9-.08-1.68-.65-2.3-.57-.63-1.44-.95-2.6-.95-1.1 0-2.03.3-2.73.85-.7.56-1.12 1.2-1.23 1.9-.13.76.03 1.37.46 1.84s1.38.87 2.85 1.23c1.7.42 2.9 1 3.67 1.72s1.04 1.72.84 2.98c-.22 1.37-.9 2.45-2 3.25-1.12.8-2.5 1.2-4.16 1.2-1.72 0-3.04-.48-3.95-1.4-.9-.93-1.24-2.02-1-3.27l.04-.08h1.56c-.12 1.14.18 1.96.9 2.48.7.5 1.6.77 2.67.77 1.12 0 2.07-.28 2.86-.84.78-.56 1.24-1.23 1.37-2z"/></g><g><g fill="none" stroke="#B0BEC5" stroke-width="3" stroke-miterlimit="10"><path d="M53.5 113.5h34v34h-34z"/><path d="M53.5 191.5h34v33h-34z"/><path d="M53.5 268.5h34v34h-34z"/><path d="M53.5 346.5h34v33h-34z"/><path d="M53.5 444v-18.5h34V444"/></g><g><path fill="#FF3D00" d="M174.43 107.7c-.76-.06-1.4-.1-2.08-.1-5.4 0-7.94 2.33-10.9 5.85-2.95-3.52-5.52-5.85-10.9-5.85-.67 0-1.23.04-2 .1-4.66.47-9.55 4.73-10.55 12.9v2.73c0 7.82 6.3 17.48 23.57 29.58 1.4-.97 2.62-2.04 4.06-3 1.56-1.04 3.08-2.1 4.56-3.27 3.65-2.86 6.96-6.27 9.55-10.14 2.5-3.74 5.25-8.56 5.25-13.17 0 0 0-2.72 0-2.72 0-8.17-5.9-12.43-10.57-12.9z"/><path fill="#448AFF" d="M167 152v-9h-8v-10h8v-8h10v8h9v10h-9v9z"/><path fill="#fff" d="M176 127v8h8v7h-8v8h-7v-8h-9v-7h9v-8h7m3-3h-13v8h-9v13h9v8h13v-8h8v-13h-8v-8z"/></g><path fill="#FFF176" d="M181 442.6l-8.2.83c-.36-.97-.88-1.88-1.47-2.7l6.3-4.88-3.48-3.6-5.7 5.68c-1.47-1.03-3.2-1.5-5.06-1.77l.42-6.16h-5l.6 6.3c-1.34.28-2.6.7-3.7 1.4l-4.74-5.4-3.48 3.57 5.25 4.35c-.76.95-1.28 2-1.7 3.16l-7.05-.8V446h37v-3.4z"/><path fill="#7E57C2" d="M180.78 216h.22v-31.5l-.12.24-30.2 4.26h.32v24c-1-.37-2.7-.53-4.1-.4-4.42.44-7.82 3.6-7.5 7.04.35 3.46 4.17 5.9 8.6 5.5 4.42-.44 7.7-3.55 7.37-7 0-.07-.04-.14-.04-.14h.67v-21.3l20-3.03v17c-1-.4-2.47-.55-3.87-.4-4.43.42-7.7 3.57-7.38 7.03.34 3.45 4.2 5.9 8.64 5.48 4.42-.43 7.74-3.37 7.4-6.82 0-.06 0 .04-.02.04z"/><g><g><path fill="#FFCA28" d="M162.62 335.76L183 358v32h-41v-32.26z" opacity=".5"/><path fill="none" stroke="#8D6E63" stroke-width="3" stroke-miterlimit="10" d="M137.03 362.75l25.6-25.6 25.25 25.27"/><path fill="#212121" d="M171 372.1c0-4.98-3.13-9.06-8-9.06s-8 4.08-8 9.06V389h16v-16.9z"/></g><path fill="none" stroke="#212121" stroke-miterlimit="10" d="M129 330.5h5.35l-4.3 4H136M136 343.5h2.66l-2.87 3h3.2M143 336.5h3.06l-2.88 3H147" stroke-linecap="round" stroke-linejoin="round"/></g><g><path fill="#4E342E" d="M144.5 281.85c-.37-1.02-.75-2.14-.4-3.17s1.72-1.75 2.53-1.03c-.1-.5-.2-1-.03-1.48s.75-.83 1.2-.6c.7-1 2-1.54 3.23-1.37-.8-.67-.33-2.12.6-2.6s2.06-.3 3.1-.1c.48.1.97.2 1.46.3.5-.62 1.07-1.26 1.82-1.52s1.77 0 2.03.77c.66-.97 2.5-.57 2.7.6 1.1-.45 2.3-.63 3.5-.53.07.3.15.6.23.9 1.2-.53 2.5-.83 3.82-.9.15.32.17.7.07 1.03.56-.46 1.5-.35 1.94.23.45.57 3.2 2.08 2.62 2.5 2.3.2 1.7.12 3.88.9-.2.8.53 1.7 1.37 1.67.02.55.04 1.1.07 1.66.55.44 1.1.87 1.67 1.3-.36 1.22-1.86 1.7-3.13 1.64-1.28-.07-2.54-.5-3.8-.34-2.28.3-4.06 2.47-6.36 2.5-1.17.02-2.3-.55-3.5-.52-1.13.02-2.18.6-3.24 1-4.4 1.66-9.32.53-13.9-.6-1.3-.34-2.92-1-3-2.35"/><path fill="#A1887F" d="M141.2 281h42.34l5.06 16h-52.3z"/></g></g><g fill="none" stroke="#B0BEC5" stroke-width="3" stroke-miterlimit="10"><path d="M264 33.5h102M264 50.5h102M264 67.5h102M264 84.5h102M264 144.5h102M264 161.5h102M264 178.5h102M264 195.5h102M264 251.5h102M264 268.5h102M264 285.5h102M264 302.5h102M264 321.5h102M264 340.5h102M264 391.5h102M264 411.5h102M264 431.5h102"/></g></g></g></svg>