<svg xmlns="http://www.w3.org/2000/svg" viewBox="0 0 147.131 143.032" enable-background="new 0 0 147.131 143.032"><g><g><path fill="#A1887F" d="M103.72 64c13.14 0 26.28.3 39.42.2 2.32-.02 3.04.32 3.02 2.8-.1 22.05-.02 44 0 66-48.38 0-96.75 0-145.12 0 .02-22 .1-43.85 0-65.88-.02-2.5.7-3.05 3.02-3.03 13.14.1 26.28-.1 39.4-.1 20.1 0 40.18 0 60.26 0zM34.1 110.95c0-3.08-.04-6.16.02-9.24.02-1.2-.2-1.78-1.62-1.76-6.24.07-12.48.06-18.73 0-1.3 0-1.7.36-1.7 1.7.06 6.23.05 12.47 0 18.72 0 1.1.2 1.65 1.5 1.63 6.32-.06 12.65-.07 18.98 0 1.46.02 1.58-.66 1.56-1.8-.04-3.1 0-6.17 0-9.25zm22.38 11.02c3.08 0 6.16-.05 9.24.02 1.3.02 1.93-.18 1.9-1.73-.07-6.24-.04-12.48 0-18.73 0-1.15-.3-1.6-1.53-1.6-6.34.06-12.66.06-19 0-1.22 0-1.53.45-1.52 1.6.04 6.25.07 12.5 0 18.74-.03 1.54.6 1.75 1.9 1.72 3-.08 6-.03 9-.03zM101.6 111c0-3.08-.07-6.16.03-9.24.05-1.43-.4-1.84-1.83-1.82-6.15.07-12.32.06-18.48 0-1.22 0-1.77.25-1.75 1.64.07 6.24.06 12.48 0 18.73 0 1.32.4 1.7 1.7 1.7 6.16-.06 12.32-.1 18.48 0 1.64.04 1.92-.58 1.87-2-.1-3-.02-6-.02-9zm22.62-11.03c-3.08 0-6.16.05-9.24-.02-1.3-.04-1.93.17-1.9 1.72.07 6.24.04 12.48 0 18.73 0 1.15.3 1.6 1.53 1.6 6.34-.06 12.66-.06 19 0 1.22 0 1.53-.45 1.52-1.6-.05-6.25-.07-12.5 0-18.73.03-1.55-.6-1.76-1.9-1.72-3 .07-6 .02-9 .02zm-.06-27c-3.16 0-6.32.04-9.5-.02-1.14-.02-1.6.3-1.58 1.53.05 6.16.05 12.32 0 18.48 0 1.23.44 1.54 1.6 1.53 6.23-.05 12.48-.06 18.72 0 1.26 0 1.74-.3 1.73-1.66-.07-6.08-.07-12.16 0-18.23 0-1.35-.46-1.68-1.73-1.65-3.08.07-6.16.02-9.24.02zm-33.63 21.5c3.17 0 6.33-.04 9.5.02 1.15 0 1.6-.3 1.6-1.54-.06-6.16-.06-12.32 0-18.48 0-1.23-.45-1.54-1.6-1.53-6.25.04-12.5.05-18.73 0-1.27-.02-1.75.3-1.73 1.65.07 6.08.07 12.16 0 18.23 0 1.36.46 1.7 1.73 1.66 3.07-.08 6.16-.03 9.23-.03zm-34.06 0c3.08 0 6.16-.05 9.24.02 1.3.02 1.96-.18 1.93-1.73-.08-6.07-.05-12.15 0-18.23 0-1.15-.3-1.6-1.54-1.6-6.34.06-12.66.06-19 0-1.22 0-1.53.44-1.52 1.6.04 6.08.07 12.15 0 18.23-.04 1.54.6 1.76 1.9 1.72 3-.08 6-.03 9-.03zm-33.33 0c3.08 0 6.16-.05 9.24.02 1.23.02 1.76-.26 1.75-1.64-.07-6.08-.07-12.16 0-18.23 0-1.33-.4-1.7-1.7-1.7-6.25.07-12.5.06-18.73.02-1.13 0-1.63.24-1.62 1.5.05 6.17.05 12.33 0 18.5 0 1.2.4 1.56 1.57 1.54 3.16-.07 6.33-.03 9.5-.03zM103.72 64c-20.08 0-40.16 0-60.25 0 0-11 0-21.6 0-32.5 9.6-6.15 19.2-12.17 28.8-18.34.96-.63 1.64-.62 2.65.03 9.58 6.16 19.2 12.1 28.8 18.23 0 10.92 0 21.57 0 32.57zM83.6 36.28c0-5.57-4.36-10.04-9.9-10.14-5.54-.1-10.13 4.55-10.1 10.2.03 5.56 4.5 10 10.04 9.97 5.56 0 9.96-4.44 9.96-10.02z"/><path fill="#6D4C41" d="M1.04 133c48.37 0 96.75 0 145.12 0 .24 0 .67.3.7.4.5 2.88.16 5.9.2 8.78 0 .54-.4.72-.86.72-.66 0-1.33.04-2 .04-47.07 0-94.13 0-141.2.08-2.44 0-3.24-.58-2.94-3 .2-1.7.05-3.7.04-5.45 0-.68-.06-1.57.94-1.57zM103.72 31.66c-9.6-6.13-19.22-12.25-28.8-18.42-1-.65-1.7-.6-2.66.02-9.58 6.18-19.2 12.3-28.8 18.44-1.04.6-2.1 1.2-3.46 1.96 0-3.7.03-7.1-.02-10.47 0-.94.57-1.32 1.2-1.73 10.4-7 20.8-14 31.18-21.05.84-.58 1.4-.54 2.2 0 10.55 7.07 21.12 14.12 31.7 21.18.58.38.96.82.95 1.6-.02 3.37 0 6.75 0 10.46-1.37-.78-2.43-1.4-3.48-2z"/><path fill="#455A64" d="M34.1 110.95c0 3.08-.03 6.16.02 9.24.02 1.14-.1 1.82-1.57 1.8-6.33-.07-12.65-.06-18.98 0-1.3 0-1.5-.54-1.5-1.65.05-6.24.07-12.48 0-18.73 0-1.32.4-1.7 1.7-1.68 6.25.06 12.5.07 18.73 0 1.4-.02 1.65.56 1.62 1.77-.06 3.1-.02 6.17-.02 9.25zM56.48 121.97c-3 0-6-.05-9 .02-1.3.02-1.94-.18-1.9-1.73.07-6.24.04-12.48 0-18.73 0-1.15.3-1.6 1.53-1.6 6.33.06 12.66.06 19 0 1.22 0 1.53.45 1.52 1.6-.04 6.24-.07 12.5 0 18.73.03 1.54-.6 1.75-1.9 1.72-3.08-.08-6.16-.03-9.24-.03zM101.6 111c0 3-.07 6 .03 9 .04 1.42-.23 2.04-1.88 2-6.16-.1-12.32-.06-18.48 0-1.3 0-1.7-.38-1.7-1.7.06-6.24.07-12.48 0-18.72 0-1.4.53-1.64 1.76-1.63 6.16.05 12.32.06 18.48 0 1.42-.03 1.88.38 1.83 1.8-.1 3.08-.03 6.17-.03 9.25zM124.22 99.97c3 0 6 .05 9-.02 1.3-.04 1.93.17 1.9 1.72-.07 6.24-.05 12.48 0 18.73 0 1.15-.3 1.6-1.53 1.6-6.34-.06-12.66-.06-19 0-1.22 0-1.53-.45-1.52-1.6.04-6.24.07-12.5 0-18.73-.04-1.54.6-1.75 1.9-1.72 3.08.07 6.16.02 9.24.02zM124.16 72.97c3.08 0 6.16.05 9.24-.02 1.27-.04 1.74.3 1.73 1.66-.07 6.08-.07 12.16 0 18.24 0 1.35-.47 1.66-1.73 1.65-6.24-.06-12.5-.05-18.73 0-1.16 0-1.6-.3-1.6-1.54.06-6.16.06-12.32 0-18.48 0-1.23.45-1.55 1.6-1.53 3.16.06 6.33.02 9.5.02zM90.53 94.47c-3.08 0-6.16-.05-9.23.02-1.27.02-1.74-.3-1.73-1.67.07-6.07.07-12.15 0-18.23 0-1.35.47-1.66 1.73-1.65 6.24.05 12.5.04 18.73 0 1.15 0 1.6.3 1.6 1.53-.06 6.16-.06 12.32 0 18.48 0 1.23-.45 1.55-1.6 1.53-3.17-.07-6.33-.03-9.5-.03zM56.47 94.47c-3 0-6-.05-9 .02-1.3.03-1.93-.2-1.9-1.73.08-6.07.05-12.15 0-18.23 0-1.16.3-1.6 1.54-1.6 6.34.06 12.66.06 19 0 1.22 0 1.53.45 1.52 1.6-.04 6.08-.07 12.16 0 18.23.04 1.55-.62 1.75-1.9 1.72-3.1-.08-6.17-.03-9.25-.03zM23.14 94.47c-3.16 0-6.33-.04-9.5.02-1.17 0-1.57-.36-1.56-1.56.05-6.16.05-12.32 0-18.48-.02-1.26.5-1.52 1.6-1.5 6.26.03 12.5.04 18.74-.02 1.3 0 1.72.36 1.7 1.7-.06 6.06-.06 12.14 0 18.22.03 1.38-.5 1.66-1.74 1.63-3.08-.08-6.16-.03-9.24-.03z"/><circle cx="73.764" cy="35.896" r="10.438" fill="#6E89A0"/><path fill="none" stroke="#263238" stroke-width="2" stroke-miterlimit="10" d="M72.13 28v8.46l6.44-3.23"/></g></g></svg>