<?xml version="1.0" encoding="iso-8859-1"?>
<!-- Generator: Adobe Illustrator 19.0.1, SVG Export Plug-In . SVG Version: 6.00 Build 0)  -->
<svg version="1.1" xmlns="http://www.w3.org/2000/svg" xmlns:xlink="http://www.w3.org/1999/xlink" x="0px" y="0px"
	 viewBox="0 0 147.131 143.032" enable-background="new 0 0 147.131 143.032" xml:space="preserve">
<g id="_x31_-_Blue_Dog">
	<g id="Layer_2" display="none" opacity="0.4">
	</g>
</g>
<g id="_x32_-_Options">
	<g id="medication">
	</g>
	<g id="talking">
	</g>
	<g id="practical">
		<g id="mirror_2_">
		</g>
	</g>
</g>
<g id="_x33_-_Practical_Intro">
	<g id="List">
	</g>
</g>
<g id="_x34_-_Practical_List">
</g>
<g id="_x35_-_Support_Locations">
	<g id="school_2_">
		<path fill="#A1887F" d="M103.725,64c13.138,0,26.276,0.304,39.413,0.2c2.326-0.018,3.038,0.321,3.027,2.811
			C146.071,89.045,146.138,111,146.158,133c-48.373,0-96.745,0-145.118,0c0.02-22,0.087-43.848-0.007-65.882
			c-0.011-2.49,0.701-3.047,3.027-3.028C17.197,64.193,30.335,64,43.473,64C63.557,64,83.641,64,103.725,64z M34.098,110.948
			c0-3.08-0.042-6.161,0.021-9.24c0.025-1.211-0.209-1.784-1.615-1.768c-6.243,0.07-12.487,0.062-18.73,0.004
			c-1.296-0.012-1.716,0.355-1.703,1.682c0.063,6.243,0.047,12.487,0.01,18.73c-0.007,1.104,0.2,1.649,1.486,1.638
			c6.326-0.056,12.654-0.066,18.98,0.006c1.46,0.017,1.587-0.657,1.568-1.811C34.065,117.109,34.099,114.028,34.098,110.948z
			 M56.475,121.97c3.08,0,6.161-0.05,9.24,0.024c1.297,0.031,1.939-0.178,1.918-1.722c-0.083-6.242-0.058-12.486-0.014-18.729
			c0.008-1.155-0.301-1.604-1.531-1.594c-6.326,0.051-12.653,0.051-18.979,0c-1.233-0.01-1.537,0.444-1.529,1.596
			c0.043,6.243,0.069,12.487-0.014,18.73c-0.021,1.547,0.626,1.752,1.92,1.72C50.48,121.919,53.478,121.97,56.475,121.97z
			 M101.599,110.998c0-3.08-0.069-6.162,0.03-9.239c0.046-1.427-0.41-1.835-1.825-1.819c-6.159,0.07-12.32,0.056-18.48,0.008
			c-1.226-0.01-1.77,0.238-1.755,1.629c0.069,6.243,0.064,12.487,0.002,18.729c-0.013,1.316,0.39,1.702,1.696,1.689
			c6.16-0.06,12.321-0.088,18.479,0.015c1.647,0.027,1.923-0.588,1.879-2.023C101.534,116.993,101.599,113.995,101.599,110.998z
			 M124.223,99.97c-3.08,0-6.161,0.05-9.24-0.024c-1.297-0.031-1.938,0.178-1.918,1.722c0.083,6.242,0.058,12.486,0.014,18.73
			c-0.008,1.155,0.301,1.604,1.531,1.594c6.326-0.051,12.653-0.051,18.979,0c1.233,0.01,1.537-0.444,1.529-1.596
			c-0.043-6.243-0.069-12.487,0.014-18.73c0.021-1.547-0.626-1.752-1.92-1.72C130.218,100.02,127.22,99.97,124.223,99.97z
			 M124.162,72.971c-3.163,0-6.327,0.04-9.489-0.021c-1.154-0.022-1.607,0.296-1.596,1.529c0.052,6.16,0.052,12.32,0,18.48
			c-0.01,1.231,0.44,1.539,1.594,1.531c6.243-0.043,12.487-0.049,18.73,0.004c1.263,0.011,1.742-0.301,1.727-1.658
			c-0.067-6.076-0.067-12.154,0-18.23c0.015-1.355-0.457-1.691-1.725-1.66C130.324,73.022,127.242,72.97,124.162,72.971z
			 M90.535,94.469c3.163,0,6.327-0.04,9.489,0.021c1.154,0.022,1.607-0.295,1.597-1.529c-0.052-6.16-0.052-12.32,0-18.48
			c0.01-1.23-0.439-1.539-1.594-1.531c-6.243,0.043-12.487,0.049-18.73-0.004c-1.263-0.011-1.742,0.3-1.727,1.658
			c0.067,6.076,0.067,12.154,0,18.23c-0.015,1.354,0.457,1.692,1.725,1.66C84.374,94.418,87.455,94.469,90.535,94.469z
			 M56.472,94.47c3.08,0,6.161-0.048,9.24,0.023c1.291,0.03,1.943-0.169,1.921-1.718c-0.085-6.076-0.058-12.153-0.015-18.23
			c0.008-1.151-0.294-1.607-1.528-1.597c-6.326,0.051-12.653,0.051-18.979,0c-1.229-0.01-1.54,0.437-1.532,1.593
			c0.044,6.077,0.07,12.154-0.014,18.23c-0.021,1.543,0.62,1.755,1.917,1.723C50.477,94.419,53.476,94.47,56.472,94.47z
			 M23.139,94.469c3.08,0,6.161-0.046,9.24,0.023c1.235,0.028,1.765-0.251,1.75-1.635c-0.069-6.076-0.065-12.154-0.002-18.23
			c0.014-1.325-0.404-1.695-1.702-1.683c-6.243,0.059-12.486,0.047-18.73,0.007c-1.126-0.007-1.63,0.244-1.619,1.506
			c0.054,6.16,0.051,12.32,0.002,18.48c-0.01,1.203,0.389,1.578,1.572,1.554C16.811,94.426,19.976,94.469,23.139,94.469z"/>
		<path fill="#A1887F" d="M103.725,64c-20.084,0-40.168,0-60.252,0c0-11,0-21.604,0.001-32.512
			c9.599-6.139,19.207-12.157,28.783-18.331c0.973-0.627,1.656-0.621,2.663,0.029c9.578,6.177,19.194,12.107,28.8,18.241
			C103.721,42.346,103.723,53,103.725,64z M83.601,36.282c0.004-5.575-4.364-10.046-9.905-10.138
			c-5.538-0.092-10.126,4.545-10.098,10.205c0.028,5.556,4.496,9.991,10.041,9.965C79.202,46.288,83.597,41.863,83.601,36.282z"/>
		<path fill="#6D4C41" d="M1.04,133c48.373,0,96.745,0,145.118,0c0.24,0,0.673,0.309,0.691,0.41c0.504,2.874,0.17,5.883,0.208,8.772
			c0.007,0.535-0.404,0.717-0.856,0.722c-0.666,0.007-1.333,0.038-1.999,0.038c-47.068,0-94.137-0.007-141.205,0.076
			c-2.436,0.004-3.232-0.581-2.938-2.985c0.211-1.724,0.048-3.711,0.039-5.461C0.094,133.888,0.039,133,1.04,133z"/>
		<path fill="#6D4C41" d="M103.719,31.665c-9.605-6.134-19.222-12.25-28.8-18.427c-1.007-0.65-1.689-0.603-2.663,0.024
			C62.681,19.437,53.073,25.562,43.474,31.7c-1.055,0.595-2.109,1.191-3.474,1.961c0-3.714,0.029-7.094-0.019-10.472
			c-0.013-0.933,0.568-1.305,1.186-1.722C51.568,14.458,61.98,7.465,72.356,0.418c0.848-0.576,1.403-0.536,2.197-0.004
			C85.11,7.49,95.683,14.542,106.256,21.595c0.583,0.389,0.963,0.821,0.956,1.599c-0.031,3.377-0.013,6.754-0.013,10.468
			C105.826,32.875,104.773,32.27,103.719,31.665z"/>
		<path fill="#455A64" d="M34.099,110.948c0,3.08-0.033,6.161,0.017,9.24c0.019,1.154-0.108,1.828-1.568,1.811
			c-6.326-0.072-12.653-0.061-18.98-0.006c-1.286,0.011-1.492-0.534-1.486-1.638c0.037-6.243,0.053-12.487-0.01-18.73
			c-0.013-1.327,0.407-1.694,1.703-1.682c6.243,0.059,12.487,0.066,18.73-0.004c1.406-0.016,1.64,0.557,1.615,1.768
			C34.056,104.787,34.098,107.868,34.099,110.948z"/>
		<path fill="#455A64" d="M56.475,121.97c-2.997,0-5.995-0.05-8.99,0.023c-1.295,0.032-1.941-0.173-1.92-1.72
			c0.084-6.242,0.058-12.486,0.014-18.73c-0.008-1.152,0.296-1.606,1.529-1.596c6.326,0.051,12.653,0.051,18.979,0
			c1.23-0.01,1.539,0.439,1.531,1.594c-0.043,6.243-0.069,12.487,0.014,18.729c0.021,1.544-0.621,1.753-1.918,1.722
			C62.637,121.92,59.555,121.97,56.475,121.97z"/>
		<path fill="#455A64" d="M101.599,110.998c0,2.997-0.065,5.996,0.028,8.99c0.044,1.435-0.232,2.05-1.879,2.023
			c-6.158-0.102-12.32-0.075-18.479-0.015c-1.306,0.013-1.709-0.373-1.696-1.689c0.061-6.243,0.066-12.487-0.002-18.729
			c-0.015-1.39,0.528-1.638,1.755-1.629c6.16,0.048,12.321,0.062,18.48-0.008c1.414-0.016,1.871,0.392,1.825,1.819
			C101.53,104.835,101.599,107.918,101.599,110.998z"/>
		<path fill="#455A64" d="M124.223,99.97c2.997,0,5.995,0.05,8.99-0.023c1.294-0.032,1.941,0.172,1.92,1.72
			c-0.084,6.242-0.058,12.486-0.014,18.73c0.008,1.152-0.295,1.606-1.529,1.596c-6.326-0.051-12.653-0.051-18.979,0
			c-1.23,0.01-1.539-0.439-1.531-1.594c0.043-6.243,0.069-12.487-0.014-18.73c-0.021-1.544,0.621-1.753,1.918-1.722
			C118.061,100.02,121.143,99.97,124.223,99.97z"/>
		<path fill="#455A64" d="M124.162,72.971c3.08,0,6.161,0.051,9.239-0.025c1.268-0.031,1.74,0.305,1.725,1.66
			c-0.067,6.076-0.067,12.154,0,18.23c0.015,1.357-0.464,1.669-1.727,1.658c-6.243-0.054-12.487-0.047-18.73-0.004
			c-1.155,0.008-1.605-0.3-1.594-1.531c0.052-6.16,0.052-12.32,0-18.48c-0.01-1.233,0.443-1.551,1.596-1.529
			C117.835,73.01,120.999,72.971,124.162,72.971z"/>
		<path fill="#455A64" d="M90.535,94.469c-3.08,0-6.161-0.051-9.239,0.025c-1.268,0.031-1.74-0.306-1.725-1.66
			c0.067-6.076,0.067-12.154,0-18.23c-0.015-1.357,0.464-1.668,1.727-1.658c6.243,0.054,12.487,0.047,18.73,0.004
			c1.155-0.008,1.604,0.301,1.594,1.531c-0.052,6.16-0.052,12.32,0,18.48c0.01,1.233-0.443,1.551-1.597,1.529
			C96.863,94.429,93.699,94.469,90.535,94.469z"/>
		<path fill="#455A64" d="M56.472,94.47c-2.997,0-5.995-0.051-8.99,0.024c-1.298,0.032-1.939-0.18-1.917-1.723
			c0.084-6.076,0.058-12.153,0.014-18.23c-0.008-1.156,0.303-1.603,1.532-1.593c6.326,0.051,12.653,0.051,18.979,0
			c1.234-0.01,1.536,0.446,1.528,1.597c-0.043,6.077-0.07,12.154,0.015,18.23c0.022,1.549-0.63,1.748-1.921,1.718
			C62.634,94.421,59.552,94.47,56.472,94.47z"/>
		<path fill="#455A64" d="M23.139,94.469c-3.163,0-6.327-0.043-9.489,0.022c-1.183,0.024-1.582-0.351-1.572-1.554
			c0.049-6.16,0.053-12.32-0.002-18.48c-0.011-1.261,0.493-1.513,1.619-1.506c6.243,0.04,12.487,0.051,18.73-0.007
			c1.298-0.012,1.716,0.359,1.702,1.683c-0.063,6.076-0.067,12.154,0.002,18.23c0.016,1.384-0.514,1.662-1.75,1.635
			C29.3,94.423,26.219,94.469,23.139,94.469z"/>
		<circle fill="#6E89A0" cx="73.764" cy="35.896" r="10.438"/>
		<polyline fill="none" stroke="#263238" stroke-width="2" stroke-miterlimit="10" points="72.131,28 72.131,36.459 78.568,33.229 
					"/>
	</g>
</g>
<g id="_x36_-Shy_Dog">
</g>
<g id="_x37_-Better_Dog">
</g>
<g id="_x38_-Therapist_Dog">
</g>
<g id="_x39_-_Therapy_Details">
	<g id="text_6_">
	</g>
</g>
<g id="_x31_0-Combining_Therapies">
	<g id="text_7_">
	</g>
	<g id="Isometric_Grid">
	</g>
	<g id="chair_3_">
	</g>
</g>
<g id="_x31_1-Medication_Script">
</g>
<g id="_x31_2-Dog_With_Medication">
</g>
<g id="_x31_3-Medication_Check_Ups">
</g>
<g id="_x31_4-Medication_Side_Effects">
	<g id="shy_dog_1_">
	</g>
</g>
</svg>
