<svg xmlns="http://www.w3.org/2000/svg" viewBox="0 0 20.44 55.438" enable-background="new 0 0 20.44 55.438"><g><g><g><path fill="#D50000" d="M7.86 41.66l-1.9-.6.3-.96 1.9.6.92-2.85-1.9-.6.3-.96 1.9.6.92-2.86-1.9-.6.3-.96 1.9.6.9-2.85-1.9-.6.3-.96 1.92.6.9-2.85-1.9-.6.3-.96 1.92.6.9-2.85-1.9-.6.3-.95 1.9.6.93-2.85-1.9-.6.3-.97 1.9.6.9-2.84-1.9-.62.3-.96 1.92.6.9-2.85-1.9-.6.3-.96 1.9.62.92-2.86-1.9-.6.3-.96 1.9.6 1.22-3.8c.33-1.05-.25-2.18-1.3-2.5s-2.17.24-2.5 1.3l-12.8 40 3.82 1.22.3-.96z"/><path fill="#fff" d="M1.4 55.34c1.04.34 2.17-.24 2.5-1.3l1.53-4.76-1.9-.6.3-.96 1.9.6.9-2.85-1.9-.6.3-.96 1.92.62.6-1.9-3.8-1.22L.1 52.83c-.34 1.05.24 2.18 1.3 2.5z"/><path d="M9.08 37.85l-1.9-.6.3-.96 1.9.6zM7.86 41.66l-1.9-.6.3-.96 1.9.6zM6.64 45.48l-1.9-.6.3-.97 1.9.62zM5.43 49.3l-1.9-.62.3-.96 1.9.6zM10.3 34.04l-1.9-.6.3-.96 1.9.6zM11.52 30.23l-1.9-.6.3-.96 1.9.6zM12.73 26.42l-1.9-.6.3-.96 1.9.6zM13.95 22.6l-1.9-.6.3-.95 1.9.6zM15.17 18.8l-1.9-.6.3-.96 1.9.6zM16.4 15l-1.92-.62.3-.95 1.9.6zM17.6 11.18l-1.9-.6.3-.96 1.9.6zM18.82 7.37l-1.9-.6.3-.96 1.9.62z"/></g></g></g></svg>