<?xml version="1.0" encoding="iso-8859-1"?>
<!-- Generator: Adobe Illustrator 19.0.1, SVG Export Plug-In . SVG Version: 6.00 Build 0)  -->
<svg version="1.1" xmlns="http://www.w3.org/2000/svg" xmlns:xlink="http://www.w3.org/1999/xlink" x="0px" y="0px"
	 viewBox="0 0 20.44 55.438" enable-background="new 0 0 20.44 55.438" xml:space="preserve">
<g id="_x31_-_Blue_Dog">
	<g id="Layer_2" display="none" opacity="0.4">
	</g>
</g>
<g id="_x32_-_Options">
	<g id="medication">
	</g>
	<g id="talking">
	</g>
	<g id="practical">
		<g id="mirror_2_">
		</g>
	</g>
</g>
<g id="_x33_-_Practical_Intro">
	<g id="List">
	</g>
</g>
<g id="_x34_-_Practical_List">
</g>
<g id="_x35_-_Support_Locations">
</g>
<g id="_x36_-Shy_Dog">
</g>
<g id="_x37_-Better_Dog">
</g>
<g id="_x38_-Therapist_Dog">
</g>
<g id="_x39_-_Therapy_Details">
	<g id="text_6_">
	</g>
</g>
<g id="_x31_0-Combining_Therapies">
	<g id="text_7_">
	</g>
	<g id="Isometric_Grid">
	</g>
	<g id="chair_3_">
	</g>
</g>
<g id="_x31_1-Medication_Script">
</g>
<g id="_x31_2-Dog_With_Medication">
</g>
<g id="_x31_3-Medication_Check_Ups">
</g>
<g id="_x31_4-Medication_Side_Effects">
	<g id="shy_dog_1_">
		<g id="thermometer_1_">
			<path fill="#D50000" d="M7.863,41.663l-1.905-0.609l0.304-0.953l1.905,0.609l0.913-2.858l-1.905-0.609l0.304-0.953l1.905,0.609
				l0.913-2.858l-1.905-0.609l0.304-0.953l1.905,0.609l0.913-2.858l-1.905-0.609l0.304-0.953l1.905,0.609l0.913-2.858l-1.905-0.609
				l0.304-0.953l1.905,0.609l0.913-2.858l-1.905-0.609l0.304-0.953l1.905,0.609l0.913-2.858l-1.905-0.609l0.304-0.953l1.905,0.609
				l0.913-2.858l-1.905-0.609l0.304-0.953l1.905,0.609l0.913-2.858l-1.905-0.609l0.304-0.953l1.905,0.609l0.913-2.858l-1.905-0.609
				l0.304-0.953l1.905,0.609l1.218-3.81c0.336-1.052-0.244-2.178-1.296-2.514S16.87,0.34,16.534,1.392L3.748,41.398l3.81,1.218
				L7.863,41.663z"/>
			<path fill="#FFFFFF" d="M1.392,55.343c1.052,0.336,2.178-0.244,2.514-1.296l1.522-4.763l-1.905-0.609l0.304-0.953l1.905,0.609
				l0.913-2.858L4.74,44.865l0.304-0.953l1.905,0.609l0.609-1.905l-3.81-1.218l-3.653,11.43C-0.241,53.881,0.34,55.006,1.392,55.343
				z"/>
			<rect x="7.28" y="36.573" transform="matrix(-0.9525 -0.3044 0.3044 -0.9525 4.8822 74.9063)" width="2" height="1"/>
			<rect x="6.063" y="40.383" transform="matrix(-0.9525 -0.3044 0.3044 -0.9525 1.3447 81.9751)" width="2" height="1"/>
			<rect x="4.845" y="44.193" transform="matrix(-0.9525 -0.3044 0.3044 -0.9525 -2.1927 89.0439)" width="2" height="1"/>
			<rect x="3.627" y="48.003" transform="matrix(-0.9525 -0.3044 0.3044 -0.9525 -5.7302 96.1126)" width="2" height="1"/>
			<rect x="8.498" y="32.762" transform="matrix(-0.9525 -0.3044 0.3044 -0.9525 8.4196 67.8375)" width="2" height="1"/>
			<rect x="9.716" y="28.952" transform="matrix(-0.9525 -0.3044 0.3044 -0.9525 11.9571 60.7688)" width="2" height="1"/>
			<rect x="10.933" y="25.142" transform="matrix(-0.9525 -0.3044 0.3044 -0.9525 15.4946 53.7)" width="2" height="1"/>
			<rect x="12.151" y="21.332" transform="matrix(-0.9525 -0.3044 0.3044 -0.9525 19.032 46.6312)" width="2" height="1"/>
			<rect x="13.369" y="17.522" transform="matrix(-0.9525 -0.3044 0.3044 -0.9525 22.5695 39.5624)" width="2" height="1"/>
			<rect x="14.587" y="13.712" transform="matrix(-0.9525 -0.3044 0.3044 -0.9525 26.1069 32.4937)" width="2" height="1"/>
			<rect x="15.804" y="9.902" transform="matrix(-0.9525 -0.3044 0.3044 -0.9525 29.6444 25.4249)" width="2" height="1"/>
			<rect x="17.022" y="6.091" transform="matrix(-0.9525 -0.3044 0.3044 -0.9525 33.1819 18.3561)" width="2" height="1"/>
		</g>
	</g>
</g>
</svg>
