<svg xmlns="http://www.w3.org/2000/svg" viewBox="0 0 170.593 186.342" enable-background="new 0 0 170.593 186.342"><g><path fill="none" d="M65.02 181.04c0-3.2-.02-6.4-.02-9.58 0 3.2 0 6.4.02 9.58zM61.78 181c-2.12-.05-4.24-.16-6.36-.27 2.12.1 4.24.22 6.36.27zM64.97 181.04c0 .26.05.5.1.73-.05-.23-.1-.47-.1-.73-1.07 0-2.13 0-3.2-.04 1.07.03 2.13.04 3.2.04zM64.95 171.34c0-.05 0-.1 0-.1s0 .05 0 .1zM41.82 168.05c.2 0 .37 0 .55 0-.18 0-.36 0-.55 0zM65.08 181.78c.1.46.3.9.52 1.3-.23-.4-.4-.84-.52-1.3zM69.1 172.77c13.26.06 26.52.05 39.77.05-11.94 0-27.22-.02-39.82-.07l.06.02z"/><path fill="#3C4141" d="M106.8 125.5c-6.06 0-12.1 0-18.16 0 6.05 0 12.1 0 18.15 0z"/><path fill="#6E89A0" d="M68.4 125.43c-1.06 0-2.93.87-3.12-.9-.18-1.76.95-3.32 2.9-3.72 1.1-.2 2.28-.2 3.4-.2 9.5-.06 18.98-.1 28.46-.13-.05-2.15-.1-4.3-.14-6.46.05-.3.1-.62.1-.94V97.23c0-3.44-2.83-6.23-6.27-6.23H13.05C10.9 91 9 92.1 7.88 93.75c-.3.4-.54.9-.72 1.46-.16.48-.27.97-.3 1.47-.14.95-.2 2.07-.2 3.4-.07 12.12-.04 24.25 0 36.38.03 5.96 1.55 7.44 7.63 7.46 15.1.04 30.2 0 45.3.03 6.04 0 5.28-.75 5.35 5.23 0 .57-.02 1.14-.03 1.72 0 5.7 0 11.43 0 17.15.02 1.07.03 2.13.04 3.2 0 0 0 .06 0 .1 0 .07 0 .13 0 .13 14.38-.05 29.5 0 43.9-.05 0-15.3 0-30.6 0-45.9-.7 0-1.38 0-2.06 0-6.06 0-12.1 0-18.16 0-6.75-.02-13.5-.03-20.23-.07z"/><path fill="#3C4141" d="M106.33 92.17c0-3.96-2.77-7.17-6.73-7.17H8c-1.48 0-2.85.43-4 1.2C1.58 87.16.45 89.27.08 93 0 93.8 0 94.6 0 95.4c0 17.24 0 34.5.02 51.74 0 1.24.25 2.48.38 3.73 21.5 0 43.02 0 64.52 0 0-.56.03-1.14.03-1.7-.07-6 .7-5.23-5.35-5.24-15.1-.04-30.2 0-45.3-.02-6.1 0-7.6-1.5-7.63-7.45-.05-12.13-.08-24.25 0-36.38 0-1.33.05-2.45.18-3.4.04-.5.15-1 .3-1.45.2-.58.43-1.07.73-1.47C9 92.1 10.9 91 13.05 91h80.68c3.44 0 6.27 2.8 6.27 6.23v15.83c0 .32-.05.64-.1.95.05 2.16.1 4.32.15 6.47 2.26.07 4.52.14 6.8.2-.02-9-.4-18-.43-27.02l-.1-1.48z"/><path fill="#EFF1F1" d="M41.82 168.05c.2 0 .37 0 .55 0 .56.05 1.1.12 1.65.1 6.97-.08 13.94-.1 20.9-.12 0-5.72 0-11.44 0-17.15-21.5 0-43 0-64.52-.02 0 3.87-.03 7.74.02 11.6.04 3.04 1.62 5 4.6 5.47 2.9.45 5.8.85 8.77.8 8.63-.1 17.28-.02 25.92 0 .66-.54 1.37-.68 2.1-.68z"/><path fill="#D0D3D1" d="M108.87 172.82c-13.25 0-26.5 0-39.76-.05l-.05-.02c-1.4 0-2.75 0-4.07-.02 0 0 0 0-.03-1.27 0 3.2 0 6.4 0 9.58.03.26.07.5.13.73.1.47.3.9.52 1.3.56 1.03 1.4 1.9 2.1 2.8 3.88 0 7.12.1 10.97.37 7.63.06 15.82.16 23.44.06 5.03-.07 6.76-1.62 6.78-6.65 0-2.28 0-4.55 0-6.83zm-19.53 8.2c-.8 0-1.6 0-2.4 0-.34 0-.7 0-1.03 0-1.84.02-4.12.17-4.12-2.35 0-2.57 2.33-2.28 4.15-2.3 1.14 0 2.28 0 3.42 0 1.54.04 2.83.63 2.8 2.32 0 1.64-1.26 2.28-2.8 2.3z"/><path fill="#828687" d="M65.08 181.78c-.06-.24-.1-.48-.12-.74-1.06 0-2.12 0-3.18-.04-2.12-.05-4.24-.16-6.36-.27-5.3-.28-10.6-.62-15.9-.37-4.46 0-8.92.03-13.37 0-2.18 0-4.36.07-4.4 2.97-.05 2.88 2.23 2.75 4.17 2.75 13.93-.04 27.86-.13 41.8-.2-.73-.92-1.56-1.78-2.12-2.8-.23-.4-.4-.84-.52-1.3z"/><path fill="#A7ABAB" d="M55.42 180.73c2.12.1 4.24.22 6.36.27 1.06.03 2.15.04 3.2.04 0-3.2.02-6.4.02-9.58 0 0 0-.46 0-.46h.12s-.1.17-.08.1c0-.04-.04.02-.04.02-8.32.37-16.66.3-24.98.13-.8 2.98-.03 6.08-.5 9.08 5.32-.25 10.6.12 15.9.4z"/><path fill="#D0D3D1" d="M100.04 120.47c-9.48.04-18.96.07-28.45.13-1.14 0-2.3-.02-3.4.2-1.97.4-3.1 1.97-2.92 3.72.2 1.78 2.06.9 3.13.9 6.75.05 13.5.06 20.23.07 6.06 0 12.1 0 18.16 0 .68 0 1.37 0 2.06 0 .22-2-1.06-3.34-2.03-4.82-2.26-.07-4.53-.14-6.8-.2z"/><path fill="#828687" d="M64.96 171.23c0-1.07-.02-2.13-.03-3.2-6.97.04-13.94.04-20.9.13-.55 0-1.1-.06-1.66-.1-.18 0-.36-.02-.54 0-.74 0-1.45.12-2.1.66.08.86.18 1.72.27 2.58 8.32.17 16.64.3 24.96-.07z"/><path fill="#EFF1F1" d="M65 171s0 .46 0 .46c0 1.27 0 1.28 0 1.28 1.32 0 2.67 0 4.06 0 12.6.06 27.88.08 39.82.08 0-.47 0-1.17-.02-1.64-14.4.04-29.33-.18-43.73-.18H65z"/><path fill="#828687" d="M89.35 176.38c-1.14-.03-2.28-.02-3.42 0-1.82 0-4.15-.28-4.15 2.3 0 2.5 2.28 2.36 4.13 2.34.35 0 .7 0 1.04 0 .8 0 1.6 0 2.4 0 1.55-.04 2.8-.68 2.82-2.33.02-1.7-1.27-2.3-2.8-2.32z"/><g fill="#F9A857"><path d="M157.56 80h13.03C167.8 37 133 2.78 90 0v13.03C126 15.77 154.82 44 157.56 80zM130.9 80H144c-2.67-28-25-50.73-54-53.4v13.08C111 42.24 128.35 59 130.9 80zM103.9 80h13.34C114.88 67 104 55.7 90 53.35v13.33c7 1.9 12 7.32 13.9 13.32z"/><circle cx="85.045" cy="84.548" r="7.5"/></g></g></svg>