<?xml version="1.0" encoding="iso-8859-1"?>
<!-- Generator: Adobe Illustrator 19.0.1, SVG Export Plug-In . SVG Version: 6.00 Build 0)  -->
<svg version="1.1" xmlns="http://www.w3.org/2000/svg" xmlns:xlink="http://www.w3.org/1999/xlink" x="0px" y="0px"
	 viewBox="0 0 170.593 186.342" enable-background="new 0 0 170.593 186.342" xml:space="preserve">
<g id="_x31_-_Blue_Dog">
	<g id="Layer_2" display="none" opacity="0.4">
	</g>
</g>
<g id="_x32_-_Options">
	<g id="medication">
	</g>
	<g id="talking">
	</g>
	<g id="practical">
		<g id="mirror_2_">
		</g>
	</g>
</g>
<g id="_x33_-_Practical_Intro">
	<g id="List">
	</g>
</g>
<g id="_x34_-_Practical_List">
</g>
<g id="_x35_-_Support_Locations">
	<g>
		<path fill="none" d="M65.019,181.04c-0.006-3.193-0.019-6.386-0.019-9.579c0-0.001,0-0.001,0-0.002
			C65,174.653,65.013,177.846,65.019,181.04z"/>
		<path fill="none" d="M61.782,181.001c-2.121-0.054-4.241-0.159-6.36-0.271C57.541,180.842,59.661,180.946,61.782,181.001z"/>
		<path fill="none" d="M64.965,181.04c0.019,0.256,0.058,0.5,0.115,0.735C65.023,181.54,64.984,181.296,64.965,181.04
			c-1.061,0.003-2.122-0.012-3.183-0.039C62.842,181.028,63.903,181.043,64.965,181.04z"/>
		<path fill="none" d="M64.95,171.344c0.003-0.056,0.005-0.113,0.005-0.113S64.953,171.287,64.95,171.344z"/>
		<path fill="none" d="M41.824,168.046c0.183-0.001,0.366,0.006,0.55,0.018C42.191,168.053,42.007,168.045,41.824,168.046z"/>
		<path fill="none" d="M65.079,181.775c0.113,0.469,0.294,0.9,0.518,1.306C65.373,182.675,65.192,182.244,65.079,181.775z"/>
		<path fill="none" d="M69.107,172.773c13.254,0.06,26.509,0.043,39.764,0.046c-11.941-0.003-27.22-0.02-39.824-0.068
			L69.107,172.773z"/>
		<path fill="#3C4141" d="M106.794,125.5L106.794,125.5c-6.053-0.003-12.106-0.003-18.159-0.009
			C94.688,125.497,100.741,125.497,106.794,125.5z"/>
		<path fill="#6E89A0" d="M68.413,125.429c-1.07-0.006-2.947,0.869-3.129-0.905c-0.18-1.753,0.947-3.313,2.903-3.713
			c1.105-0.225,2.27-0.208,3.408-0.215c9.481-0.053,18.963-0.086,28.445-0.124c-0.053-2.155-0.086-4.31-0.139-6.465
			c0.048-0.311,0.099-0.626,0.099-0.95V97.231C100,93.788,97.171,91,93.729,91H13.055c-2.154,0-4.052,1.091-5.172,2.752
			c-0.307,0.401-0.544,0.884-0.722,1.463c-0.159,0.465-0.267,0.952-0.312,1.46c-0.13,0.943-0.184,2.061-0.191,3.393
			c-0.064,12.127-0.038,24.255,0.009,36.382c0.023,5.959,1.547,7.444,7.62,7.456c15.103,0.031,30.206-0.012,45.309,0.021
			c6.048,0.013,5.282-0.746,5.351,5.234c0.007,0.572-0.014,1.144-0.022,1.716c0.001,5.717,0.002,11.435,0.003,17.152
			c0.009,1.067,0.019,2.134,0.028,3.201c0,0-0.003,0.056-0.005,0.113c-0.003,0.056-0.005,0.113-0.005,0.113
			c14.396-0.047,29.518-0.003,43.914-0.05c-0.001-15.302-0.001-30.604-0.002-45.906c-0.688,0-1.375-0.001-2.063-0.001
			c-6.053-0.003-12.106-0.003-18.159-0.009C81.894,125.484,75.154,125.468,68.413,125.429z"/>
		<path fill="#3C4141" d="M106.333,92.167c0-3.957-2.777-7.167-6.733-7.167H7.99c-1.469,0-2.838,0.429-3.98,1.193
			c-2.444,0.978-3.572,3.091-3.939,6.804c-0.078,0.793-0.067,1.592-0.068,2.391C0,112.64-0.007,129.89,0.018,147.143
			c0.002,1.241,0.248,2.481,0.381,3.723c21.508,0.004,43.017,0.008,64.525,0.012c0.008-0.572,0.029-1.144,0.022-1.716
			c-0.069-5.98,0.697-5.221-5.351-5.234c-15.103-0.033-30.206,0.01-45.309-0.021c-6.072-0.013-7.597-1.497-7.62-7.456
			c-0.047-12.127-0.073-24.255-0.009-36.382c0.007-1.332,0.062-2.451,0.191-3.393c0.045-0.507,0.153-0.995,0.312-1.46
			c0.178-0.58,0.415-1.062,0.722-1.463C9.003,92.091,10.901,91,13.055,91h80.674c3.443,0,6.271,2.788,6.271,6.231v15.826
			c0,0.324-0.051,0.64-0.099,0.95c0.053,2.155,0.096,4.31,0.149,6.465c2.263,0.07,4.522,0.14,6.785,0.21
			c-0.002-9.011-0.375-18.022-0.414-27.033L106.333,92.167z"/>
		<path fill="#EFF1F1" d="M41.824,168.046c0.183-0.001,0.366,0.006,0.55,0.018c0.552,0.034,1.106,0.104,1.644,0.097
			c6.969-0.092,13.939-0.096,20.909-0.131c-0.001-5.717-0.002-11.435-0.003-17.152c-21.508-0.004-43.016-0.009-64.525-0.013
			c0.003,3.867-0.032,7.734,0.02,11.601c0.041,3.03,1.623,4.999,4.59,5.464c2.897,0.454,5.802,0.855,8.782,0.814
			c8.642-0.119,17.286-0.03,25.93-0.022c0,0,0,0,0,0C40.377,168.185,41.093,168.05,41.824,168.046z"/>
		<path fill="#D0D3D1" d="M108.871,172.819c-13.255-0.004-26.509,0.014-39.764-0.046l-0.06-0.022
			c-1.387-0.005-2.75-0.011-4.064-0.017c0,0,0-0.001-0.037-1.274c0.006,3.193,0.013,6.386,0.019,9.579
			c0.019,0.256,0.058,0.5,0.115,0.735c0.113,0.469,0.294,0.9,0.518,1.306c0.561,1.015,1.395,1.875,2.115,2.801
			c3.872,0,7.106,0.077,10.958,0.354c7.625,0.062,15.824,0.168,23.438,0.062c5.024-0.069,6.748-1.62,6.769-6.645
			C108.886,177.375,108.873,175.097,108.871,172.819z M89.336,181.011c-0.798,0.015-1.597,0.003-2.396,0.008
			c-0.342,0.005-0.685,0.003-1.027,0.005c-1.854,0.012-4.134,0.167-4.133-2.355c0.001-2.572,2.334-2.284,4.152-2.301
			c1.141-0.011,2.282-0.013,3.423,0.011c1.537,0.033,2.829,0.617,2.806,2.309C92.138,180.339,90.889,180.982,89.336,181.011z"/>
		<path fill="#828687" d="M65.079,181.775c-0.056-0.235-0.096-0.479-0.115-0.735c-1.061,0.003-2.122-0.012-3.183-0.039
			c-2.121-0.054-4.241-0.159-6.36-0.271c-5.299-0.283-10.596-0.62-15.909-0.374c-4.454,0.007-8.909,0.037-13.363,0.01
			c-2.184-0.013-4.362,0.064-4.406,2.967c-0.044,2.877,2.236,2.75,4.174,2.744c13.932-0.042,27.863-0.124,41.795-0.194
			c-0.719-0.925-1.553-1.786-2.115-2.801C65.373,182.675,65.192,182.244,65.079,181.775z"/>
		<path fill="#A7ABAB" d="M55.421,180.729c2.12,0.113,4.239,0.217,6.36,0.271c1.061,0.027,2.149,0.042,3.21,0.039
			c-0.006-3.194,0.008-6.387,0.008-9.581c0-0.001,0-0.459,0-0.459h0.121c0,0-0.085,0.172-0.083,0.116
			c0.003-0.056-0.039,0.001-0.039,0.001c-8.319,0.377-16.661,0.292-24.979,0.13c-0.801,2.982-0.031,6.079-0.497,9.08
			C44.836,180.08,50.123,180.447,55.421,180.729z"/>
		<path fill="#D0D3D1" d="M100.04,120.472c-9.482,0.039-18.963,0.072-28.445,0.124c-1.138,0.006-2.303-0.011-3.408,0.215
			c-1.957,0.399-3.083,1.96-2.903,3.713c0.182,1.774,2.059,0.899,3.129,0.905c6.741,0.039,13.481,0.055,20.222,0.062
			c6.053,0.006,12.106,0.006,18.159,0.009c0.688,0,1.375,0.001,2.063,0.001c0.226-1.986-1.055-3.337-2.028-4.819
			C104.567,120.612,102.303,120.542,100.04,120.472z"/>
		<path fill="#828687" d="M64.956,171.231c-0.009-1.067-0.019-2.134-0.028-3.201c-6.97,0.035-13.94,0.039-20.909,0.131
			c-0.538,0.007-1.092-0.063-1.644-0.097c-0.184-0.011-0.368-0.019-0.55-0.018c-0.731,0.004-1.447,0.139-2.103,0.675c0,0,0,0,0,0
			c0.092,0.86,0.186,1.721,0.277,2.582C48.316,171.466,56.637,171.608,64.956,171.231z"/>
		<path fill="#EFF1F1" d="M65,171c0,0,0,0.458,0,0.459s0,0.001,0,0.002c0,1.273,0.01,1.274,0.01,1.274
			c1.314,0.006,2.663,0.011,4.05,0.017c12.604,0.047,27.876,0.064,39.817,0.068c-0.004-0.471-0.011-1.17-0.015-1.641
			C94.466,171.225,79.528,171,65.131,171H65z"/>
		<path fill="#828687" d="M89.354,176.38c-1.14-0.025-2.282-0.023-3.423-0.011c-1.818,0.018-4.151-0.271-4.152,2.301
			c-0.001,2.522,2.279,2.367,4.133,2.355c0.342-0.002,0.685,0,1.027-0.005c0.799-0.005,1.598,0.007,2.396-0.008
			c1.554-0.029,2.802-0.673,2.825-2.322C92.183,176.997,90.891,176.413,89.354,176.38z"/>
	</g>
	<g>
		<g>
			<path fill="#F9A857" d="M157.559,80h13.034C167.813,37,133,2.78,90,0v13.034C126,15.768,154.825,44,157.559,80z"/>
			<path fill="#F9A857" d="M130.911,80h13.078C141.326,52,119,29.267,90,26.605v13.078C111,42.239,128.354,59,130.911,80z"/>
			<path fill="#F9A857" d="M103.912,80h13.328C114.882,67,104,55.711,90,53.353v13.328C97,68.593,102,74,103.912,80z"/>
		</g>
		<circle fill="#F9A857" cx="85.045" cy="84.548" r="7.5"/>
	</g>
</g>
<g id="_x36_-Shy_Dog">
</g>
<g id="_x37_-Better_Dog">
</g>
<g id="_x38_-Therapist_Dog">
</g>
<g id="_x39_-_Therapy_Details">
	<g id="text_6_">
	</g>
</g>
<g id="_x31_0-Combining_Therapies">
	<g id="text_7_">
	</g>
	<g id="Isometric_Grid">
	</g>
	<g id="chair_3_">
	</g>
</g>
<g id="_x31_1-Medication_Script">
</g>
<g id="_x31_2-Dog_With_Medication">
</g>
<g id="_x31_3-Medication_Check_Ups">
</g>
<g id="_x31_4-Medication_Side_Effects">
</g>
</svg>
