<svg xmlns="http://www.w3.org/2000/svg" viewBox="0 0 77.53 47.557" enable-background="new 0 0 77.53 47.557">
    <g>
        <g><path
            fill="#D7CCC8"
            d="M21.92 47.47c1.05-.12 2.06-.36 3.1-.6 1.16-.24 2.3-.52 3.45-.76 1.45-.3 2.9-.52 4.36-.7.94.07 1.88.15 2.82.23 4.25.36 8.5.7 12.77.8 7.7.16 16.2 1.13 21.32-4.6 2.52-2.82 3.92-6.47 4.88-10.14.86-3.33 1.42-6.74 1.64-10.16.12-1.82.14-3.68-.4-5.43-.48-1.55-1.65-5.16-2.67-6.43-2.83-3.5-3.6-6.05-7.76-7.67-6.33-2.47-15.85-2-22.17.17-1.12.38-2.25.8-3.2 1.5-.78.6-1.4 1.4-2.03 2.16-3.45 4.3-6.14 7.5-11.1 10.13-4.56 2.4-2.13 1.74-7.17 3.04-4.5 1.15-9.74 1.8-12.87 5.25-5.37 5.9-4.6 18.74 3.4 22.1 2.03.85 4.26 1 6.4 1.08 1.43.07 2.85.17 4.26.1.33 0 .65-.02.96-.06z"/><path fill="#263238" d="M6.3 25.54c-.55-.38-1.2-.55-1.96-.4C2.8 25.48 1.48 27.1.8 28.4c-.76 1.43-1 3.12-.65 4.7.34 1.58 1.58 3.63 3.42 3.52.83-.04 1.6-.45 2.23-.97 1.55-1.26 2.1-2.9 2.27-4.8.1-1.22 0-2.47-.48-3.6-.3-.7-.74-1.32-1.3-1.7z"/><circle cx="38.066" cy="19.41" r="3.58" fill="#263238"/><path
            fill="#5D4037"
            d="M45.52 5c2.5 1.77 3.8 4.8 4.3 7.83s1.35 5.17 1.46 8.22c.08 2.34-.7 5.6-.8 7.94-.2 4.4-1.64 8.88-.5 13.15.25.98.66 1.95 1.37 2.67 1.35 1.37 3.44 1.58 5.36 1.66 2.95.12 5.92.1 8.8-.5s5.68-1.85 7.8-3.9c2.8-2.7 4.2-6.68 4.23-10.6s-1.23-7.73-3.1-11.17c-.9-1.7-2-7.5-2.7-9.33-.5-1.37-.8-2.8-1.4-4.16-1.3-3.06-4.1-5.47-7.34-6.3-1.57-.4-3.2-.44-4.8-.5-3.66-.1-7.6.5-11.3 3.32-.63.48-1.53.77-1.46 1.55"/></g>
    </g>
</svg>
