<svg xmlns="http://www.w3.org/2000/svg" viewBox="0 0 101.026 98.334" enable-background="new 0 0 101.026 98.334">
    <g><path
        fill="#A1887F"
        d="M27.1 65.93c-.1.55-.2 1.1-.3 1.67-.6 3.37-1.2 6.82-2.46 10.02-1.23 3.07-3.4 5.72-5.4 8.3-1.45 1.9-2.4 5.06-4.44 6.32-2.27 1.42-5.24 1.47-7.83 1.27-1.34-.1-2.7-.3-4-.62-.85-.2-2.12-.73-2.5-1.53-.47-1.04.08-2.4.77-3.22.68-.8 1.3-1.48 2.3-1.6 1.16-.16 2.32-.08 3.48-.13.87-.03 1.83.16 2.57-.4.44-.32.77-.8 1.1-1.25 1.03-1.55 2.12-3.1 2.83-4.84 1-2.44.94-5.26 1.38-7.85.73-4.27 2.16-8.94 1.48-13.28-.28-1.75-.72-3.47-.95-5.22-.38-2.87-.67-5.74-1.02-8.6-.18-1.6-.3-3.2.04-4.77.33-1.56 1.14-3.08 2.48-3.95 6.03-3.96 9.03 8.32 9.9 12 1.4 5.8 1.44 11.83.57 17.7z"/><path
        fill="#A1887F"
        d="M80.7 80.58c2.3-.6 5.74.44 8.1.68 4.2.42 8.17.82 12.23 1.9-1.07-.3-3.52.76-4.64.97-1.73.32-3.46.6-5.2.84-2.2.3-4.33 1.02-6.4 1.82-1.4.52-3.75 1.6-5.27 1.32-1.35-.25-1.85-2.63-1.9-3.78-.1-1.82 1.1-2.96 2.67-3.63.13-.04.26-.1.4-.12z"/><path
        fill="#D7CCC8"
        d="M33.56 7.06c.74.97 1.33 1.7 1.5 1.87 1.75 1.72 3.74 3.12 5.5 4.8 2 1.9 4 3.82 6 5.73 5.54 5.27 10.68 12.28 15.84 17.92 10.25 11.2 18.14 22.55 20.8 37.55.36 2.04.7 4.08 1.05 6.1.26 1.52.5 3.07.23 4.58-.37 2-1.68 3.08-3.4 3.94-5.45 2.78-11.7 3.25-17.73 3.34-4.36.07-8.73.27-13.1.5-3.64.17-8.42 1.3-11.73-.7-2.02-1.23-4.86-3.18-2.68-5.42.82-.85 3.2-1.2 4.25-1.63 1.38-.54 7.15-.1 8.5-.75-1.43-2.63-8.43-8.37-10.52-10.54-2.14-2.2-4.5-4.18-6.57-6.47-4.88-5.38-8.95-11.44-12.46-17.8-2.26-4.1-4.5-8.26-6.1-12.7-.77-2.18-1.46-4.48-1.75-6.8-.3-2.37.14-4.8-.36-7.16-.44-2.1-1.4-4-2.3-5.93-.46-.97-1.3-1.9-1.48-2.94-.24-1.3.5-2.75 1.34-3.66 1.1-1.2 2.62-1.96 4.08-2.68 5.6-2.75 11.16-5.55 16.8-8.2-.66.3 2.33 4.52 4.28 7.06z"/><path
        fill="#ECEFF1"
        d="M11.03 30.83l9.2-.14s4.78 1.12 5.7 1.54c.9.42 4.65 3.1 4.65 3.1s3.75 3.5 4.8 4.64c1.03 1.12 6.72 9.98 6.98 10.4.26.43 3.63 5.5 4.15 6.06.52.56 5.48 12.6 5.5 12.63-.02-.07-2.77.53-3.02.6-1.3.3-2.62.82-3.62 1.75s-1.42 2.18-1.43 3.53c0 1.54 0 3.1.8 4.46.8 1.38 3.44 3.7 3.8 5.3-.66.32-1.86-.47-2.4-.78-.92-.5-1.84-1.05-2.75-1.58-1.2-.7-2.38-1.5-3.4-2.45-.96-.92-1.43-1.93-2.13-3-1.02-1.56-2.2-3.92-3.77-5-1.04-.7-7.26-8.15-7.26-8.15L21.9 54.2s-6.6-9.3-6.6-9.72-2.98-7.3-2.98-7.3l-1.3-6.35z"/><path
        fill="#A1887F"
        d="M42.13 48.28c.07 1.18.02 2.37-.12 3.54-.24 2.15-.9 4.22-1.4 6.3-.48 2-.78 3.95-1.05 5.98-.6 4.52-1.2 9.04-1.8 13.56-.77 5.73-2.6 11.28-4.67 16.65-.93 2.4-2.04 2.44-4.5 3-3.47.8-6.94.7-10.43-.3 0 0-1.23 0-1.23 0-1.6 0-1.22-1.52-.67-2.72.48-1.05.95-2.16 1.83-2.95 1.08-.96 2.7-.15 4.05-.92 1.13-.63 1.75-1.68 2.26-2.82.67-1.55 1.26-2.38 1.47-4.1.26-2.03.5-4.04.7-6.07.27-2.73.5-5.47.7-8.22.15-2.3.7-4.8.47-7.1-.6-5.53-2.96-11.05-2.46-16.7.18-2.03.9-4.13 2.3-5.66 1.78-1.96 4.9-2.1 7.3-1.52 2.9.68 4.94 2.58 6.13 5.3.68 1.5 1.02 3.13 1.13 4.78z"/></g>
</svg>
