<svg xmlns="http://www.w3.org/2000/svg" viewBox="0 0 77.53 47.557" enable-background="new 0 0 77.53 47.557">
    <g>
        <g><path
            fill="#D7CCC8"
            d="M55.6 47.47c-1.04-.12-2.05-.36-3.1-.6-1.15-.24-2.3-.52-3.45-.76-1.44-.3-2.9-.52-4.35-.7-.94.07-1.88.15-2.82.23-4.25.36-8.5.7-12.77.8-7.68.16-16.18 1.13-21.3-4.6C5.26 39 3.86 35.36 2.9 31.7c-.86-3.33-1.4-6.74-1.63-10.16-.12-1.82-.14-3.68.4-5.43.48-1.55 1.64-5.16 2.67-6.43C7.14 6.17 7.9 3.62 12.1 2c6.32-2.47 15.84-2 22.16.17 1.12.38 2.25.8 3.2 1.5.78.6 1.4 1.4 2.02 2.16 3.46 4.3 6.15 7.5 11.1 10.13 4.57 2.4 2.14 1.74 7.18 3.04 4.5 1.15 9.74 1.8 12.87 5.25 5.36 5.9 4.6 18.74-3.4 22.1-2.03.85-4.26 1-6.4 1.08-1.43.07-2.85.17-4.27.1-.32 0-.64-.02-.95-.06z"/><path fill="#263238" d="M71.24 25.54c.54-.38 1.2-.55 1.95-.4 1.52.33 2.85 1.94 3.54 3.26.74 1.43.97 3.12.64 4.7-.34 1.58-1.58 3.63-3.42 3.52-.83-.04-1.6-.45-2.23-.97-1.55-1.26-2.1-2.9-2.27-4.8-.1-1.22 0-2.47.48-3.6.3-.7.73-1.32 1.3-1.7z"/><circle cx="39.463" cy="19.41" r="3.58" fill="#263238"/><path
            fill="#5D4037"
            d="M32 5c-2.48 1.77-3.8 4.8-4.3 7.83-.5 3.02-1.34 5.17-1.45 8.22-.08 2.34.7 5.6.8 7.94.2 4.4 1.64 8.88.5 13.15-.25.98-.66 1.95-1.37 2.67-1.35 1.37-3.44 1.58-5.36 1.66-2.94.12-5.9.1-8.78-.5s-5.7-1.85-7.8-3.9C1.4 39.4 0 35.4 0 31.5s1.23-7.73 3.08-11.17c.93-1.7 2-7.5 2.7-9.33.53-1.37.83-2.8 1.4-4.16C8.5 3.75 11.3 1.34 14.55.5c1.56-.4 3.2-.44 4.8-.5 3.65-.1 7.6.5 11.3 3.32.62.48 1.52.77 1.44 1.55"/></g>
    </g>
</svg>
