<svg xmlns="http://www.w3.org/2000/svg" viewBox="0 0 156.253 215.725" enable-background="new 0 0 156.253 215.725">
    <g><path
        fill="#D7CCC8"
        d="M25 129.06c-.08.2-.15.4-.2.58-1.95 5.6-2.03 11.46-1.67 17.4.4 6.44 1.6 12.83 3.53 18.98 1.4 4.4 4.2 8.3 5.57 12.73.45 1.44 1.18 3.2 0 4.4-2.17 2.23-9.98 1.46-12.87 1.6-4.25.18-8.6.57-12.44 2.43-2.6 1.26-4.95 3.3-6.24 5.92-1.58 3.16-.34 7.04 3 8.37 1.73.7 3.64.73 5.5.75 4.74.06 9.24.44 14 .04 2.9-.24 5.5-1.2 8.3-1.53 3.86-.46 7.9-.3 11.8-.43 7.85-.27 15.7-.48 23.56-.64 9.28-.2 18.55-.3 27.83-.36 5.12-.03 10.24-.3 15.36-.47 4.85-.17 8.7.27 13.5 1.12 8.4 1.48 16.95 2.15 25.43 2.76 2.6.2 5.62-.52 6.77-2.86.67-1.35.55-2.94.42-4.44-.12-1.4-.27-2.9-1.13-4.03-.62-.8-1.54-1.33-2.44-1.8-4.07-2.15-8.17-4.3-12.76-4.85-5.55-.66-11.16-.96-16.72-1.43 0 0 .98-3.06.98-3.33 0-1.35 3.44-4.67 4.23-5.93 5.43-8.58 8.72-18.72 8-28.95-.8-11.08-6.47-20.74-9.04-31.36-3.1-12.77-3.58-25.96-4.9-38.98-1.07-10.65-2.13-21.4-4-31.96-1.56-8.77-1.57-18.06-7-25.64-5.1-7.1-14.54-14.1-23.03-16.37C78.73-1.8 65.8 2.32 57.5 7.02c-9.33 5.3-15.9 13.17-20.87 22.53-5.75 10.85-6.7 22.8-6.94 34.95-.2 8.9-.23 17.82-.13 26.73.06 6.4.32 12.47-.25 18.82-.57 6.34-2.27 12.97-4.33 19.02z"/>
        <ellipse cx="80.834" cy="135.303" fill="#ECEFF1" rx="28.083" ry="49.833"/>
        <path
        fill="#A1887F"
        d="M70.53 201.88c-1.34-16.47-5.4-32.58-8.96-48.68-2.67-12-1.08-9.05-3.74-21.06-2.82-12.74-1.2-6.27-3.43-19.13-.95-5.45-2.26-10.86-3.93-16.15-.98-3.08-2.14-7.12-4.93-9.2-2.8-2.1-9.23-1.67-11.85.57-3.8 3.23-2.4 11.57-1.92 15.85 1.27 11.68 1.88 18.15 4.44 29.6 4.22 18.9.28 9.05 4.2 28 2.8 13.6 6.33 29.33.78 42.68-.9 2.2-2.1 4.62-1.27 6.86.5 1.34 1.57 2.3 2.83 2.9.86.4 1.75.73 2.7.9.36-.52.73-1.05 1.1-1.57 0 0 .35-.5.7-1 .1.02.18.05.27.07.26.05.5.08.77.1.22.98.45 1.95.67 2.92 1.37.06 2.74.12 4.1.2.16 0 .32 0 .46-.07.15-.08.23-.25.3-.4.34-.8.7-1.58 1.04-2.36.47 0 .93 0 1.4 0 .42.93.85 1.88 1.27 2.83.48-.2 1.3-.13 1.8-.17 1-.1 1.97-.24 2.96-.37.05 0 .26-1.8.42-3.2.32-.1.65-.18.96-.3.08-.03.16-.07.23-.1.66.74 1.3 1.48 1.95 2.23.95-.62 1.97-1.22 2.64-2.16 1.96-2.77 2.3-6.4 2.03-9.8z"/><path
        fill="#A1887F"
        d="M113.26 88.8c-5.8.42-7.07 7.08-8.3 11.53-4.54 16.22-2.22 17.9-5.88 34.3-6.63 29.66-9.3 35.84-14.6 65.8-.77 4.34-1.63 10.26 3.1 12.65.7.35 1.45.63 2.2.78.36-.7.77-1.5 1.25-2.1.47-.62 1.07-.66 1.8-.6l.34.96.87 2.3c1.15.1 2.5.24 3.94.36l.94-1.8.53-1c.43.05.87.1 1.3.13l.43.96.85 1.94c1.45.02 2.9-.04 4.3-.23l.6-2.5.2-.73c.55-.03 1.1-.1 1.6-.3l.42.55 1.4 1.78c1.26-.6 2.35-1.46 3.15-2.64 2.32-3.46.16-6.86-.36-10.46-.48-3.28-.9-6.56-1.12-9.86-1.23-17.42-2.4-11.68 1.07-28.64 3.42-16.83 4.27-18.36 7.4-35.26 3.5-18.88 4.48-38.82-7.44-37.93z"/></g>
</svg>
