<svg xmlns="http://www.w3.org/2000/svg" viewBox="0 0 135.372 105.606" enable-background="new 0 0 135.372 105.606">
    <g>
        <g><path
            fill="#5D4037"
            d="M54.6 7.16c-5.18 0-19.3.8-24.22 2.5-6.73 2.35-10.04 10.1-16.3 13.67C9.42 25.97 4.4 28.6 1.7 33.2-1.9 39.3.9 45.56 4.1 51.15 7.6 57.34 10.93 63.63 14.3 69.9c2 3.73 4.05 7.52 7 10.57 3.85 4 11.46 7.93 16.66 4.13 4.3-3.15 3.47-8.92 2.3-13.44-1.7-6.62-5-12.7-6.4-19.46-1.47-7.03-1.94-15.22 1.47-21.72C39.2 22.6 51.23 14.77 54.6 7.16z"/><path
            fill="#5D4037"
            d="M79.94 7.5c2.5 1.63 8.1 6.15 9.67 8.66 2.58 4.1 8.94 8.22 11.5 12.33 5.4 8.63 3.44 15.7 1.75 24.88-.84 4.56-2.06 8.96-3.16 13.47-1.1 4.4-3.2 11.25.46 14.94 2.1 2.13 5.36 2.93 8.34 2.46 3.68-.6 7.1-2.94 9.28-5.93 5.47-7.53 10.77-15.2 15.1-23.46 2.05-3.87 2.3-6.32 2.44-10.6.2-5.38 0-9.04-3.46-13.7-5.3-7.13-13.63-10.94-19.24-17.87-1.08-1.34-2.1-2.75-3.45-3.82-4.95-3.96-23.6-2.4-29.23-1.4z"/><path
            fill="#D7CCC8"
            d="M49.88 7.92c-5.4 4.9-11.6 10.95-14.98 17.43-3.72 7.12-4.34 15.56-3.2 23.4 1.03 6.96 3.75 13.45 5.9 20.07 2.1 6.38 3.26 12.53 4.37 19.18 1.04 6.14 4.05 15.87 11.3 17.33 3.98.8 8.47-.27 12.3-1.2 5.74-1.43 10.37 2.28 16.1 1.3 4.3-.76 8.27-3.2 10.9-6.67 3.06-4 3.15-8.6 4.03-13.34 1.42-7.67 3.1-15.3 5.07-22.86 1.5-5.77 3-11.53 4.65-17.28 1.97-6.92-.24-14.66-4.4-20.34-2.74-3.75-6.34-6.5-9.47-9.87C85.8 7.92 80.75 1.14 70.18.1 62.38-.64 55.68 2.7 50 7.8c-.03.04-.08.08-.13.12z"/><circle cx="49.526" cy="48.327" r="5.75" fill="#263238"/><circle cx="85.026" cy="48.077" r="5.25" fill="#263238"/><path fill="#263238" d="M71.45 76.64c-4.27-.74-9.6-1.48-12.78 2.22-2.4 2.78-2.18 7.22-.08 10.24 2.1 3.02 5.68 4.73 9.3 5.33 4.52.74 9.54-.23 12.7-3.53 2.57-2.68 3.7-7.63 1.56-10.9-2.54-3.83-7.94-2.87-11.9-3.36"/></g>
    </g>
</svg>
