<?xml version="1.0" encoding="iso-8859-1"?>
<!-- Generator: Adobe Illustrator 19.0.1, SVG Export Plug-In . SVG Version: 6.00 Build 0)  -->
<svg version="1.1" xmlns="http://www.w3.org/2000/svg" xmlns:xlink="http://www.w3.org/1999/xlink" x="0px" y="0px"
	 viewBox="0 0 156.253 215.725" enable-background="new 0 0 156.253 215.725" xml:space="preserve">
<g id="_x31_-_Blue_Dog">
	<g id="Layer_2" display="none" opacity="0.4">
	</g>
	<path id="body_17_" fill="#0D47A1" d="M24.986,129.065c-0.066,0.194-0.132,0.387-0.199,0.58
		c-1.939,5.592-2.015,11.459-1.653,17.396c0.392,6.44,1.582,12.83,3.53,18.98c1.396,4.406,4.185,8.297,5.565,12.732
		c0.448,1.438,1.178,3.186,0.007,4.388c-2.177,2.235-9.985,1.474-12.876,1.603c-4.251,0.191-8.61,0.578-12.439,2.436
		c-2.59,1.257-4.949,3.314-6.244,5.918c-1.572,3.161-0.34,7.038,2.995,8.367c1.735,0.691,3.649,0.737,5.517,0.759
		c4.732,0.054,9.226,0.436,14.002,0.039c2.883-0.24,5.48-1.203,8.286-1.533c3.862-0.455,7.904-0.302,11.792-0.432
		c7.857-0.264,15.715-0.477,23.574-0.639c9.273-0.192,18.548-0.312,27.823-0.363c5.124-0.028,10.242-0.286,15.361-0.465
		c4.851-0.17,8.702,0.269,13.511,1.116c8.404,1.48,16.939,2.15,25.418,2.758c2.597,0.186,5.62-0.529,6.775-2.863
		c0.668-1.35,0.553-2.939,0.423-4.44c-0.122-1.411-0.276-2.906-1.137-4.03c-0.62-0.81-1.538-1.329-2.44-1.805
		c-4.068-2.148-8.166-4.298-12.759-4.845c-5.543-0.66-11.155-0.959-16.717-1.437c0.014,0.001,0.982-3.047,0.983-3.315
		c0.003-1.347,3.433-4.666,4.229-5.926c5.418-8.584,8.707-18.729,7.975-28.951c-0.794-11.075-6.455-20.737-9.029-31.356
		c-3.094-12.765-3.575-25.96-4.89-38.978c-1.076-10.65-2.137-21.411-4.011-31.955c-1.559-8.77-1.564-18.062-6.996-25.649
		c-5.089-7.107-14.541-14.092-23.031-16.363c-9.605-2.569-22.542,1.542-30.83,6.242C48.17,12.322,41.592,20.2,36.634,29.558
		c-5.75,10.854-6.71,22.811-6.948,34.95c-0.175,8.905-0.215,17.813-0.121,26.719c0.068,6.404,0.324,12.472-0.247,18.819
		C28.749,116.389,27.048,123.016,24.986,129.065z"/>
	<ellipse id="tummy_17_" fill="#81D4FA" cx="80.834" cy="135.303" rx="28.083" ry="49.833"/>
	<path id="left_leg_17_" fill="#1565C0" d="M70.535,201.884c-1.343-16.478-5.392-32.587-8.966-48.681
		c-2.666-12.001-1.078-9.057-3.739-21.06c-2.824-12.738-1.198-6.272-3.43-19.128c-0.949-5.467-2.264-10.87-3.934-16.161
		c-0.973-3.082-2.132-7.125-4.928-9.207c-2.8-2.085-9.227-1.669-11.851,0.576c-3.773,3.227-2.378,11.567-1.911,15.848
		c1.273,11.679,1.882,18.152,4.44,29.601c4.222,18.898,0.28,9.05,4.202,28.01c2.811,13.59,6.333,29.314,0.786,42.664
		c-0.916,2.204-2.096,4.621-1.273,6.862c0.49,1.333,1.567,2.284,2.827,2.881c0.858,0.407,1.75,0.745,2.688,0.912
		c0.371-0.523,0.742-1.046,1.112-1.569c0,0,0.355-0.501,0.71-1.001c0.087,0.02,0.173,0.048,0.261,0.065
		c0.256,0.05,0.513,0.088,0.771,0.117c0.224,0.97,0.449,1.941,0.673,2.911c1.369,0.06,2.737,0.121,4.106,0.192
		c0.152,0.008,0.314,0.014,0.447-0.061c0.153-0.086,0.233-0.257,0.303-0.417c0.345-0.786,0.695-1.569,1.044-2.352
		c0.463,0.008,0.926,0.007,1.39,0.002c0.428,0.946,0.857,1.891,1.281,2.838c0.471-0.205,1.285-0.121,1.793-0.17
		c0.99-0.095,1.974-0.234,2.96-0.37c0.051,0,0.264-1.787,0.427-3.183c0.319-0.099,0.641-0.187,0.954-0.307
		c0.078-0.03,0.157-0.064,0.236-0.1c0.645,0.744,1.292,1.488,1.935,2.234c0.954-0.621,1.966-1.219,2.639-2.164
		C70.46,208.895,70.812,205.274,70.535,201.884z"/>
	<path id="right_leg_17_" fill="#1565C0" d="M113.256,88.787c-5.799,0.43-7.062,7.095-8.306,11.545
		c-4.532,16.215-2.211,17.904-5.872,34.293c-6.627,29.661-9.311,35.846-14.598,65.809c-0.765,4.333-1.627,10.261,3.114,12.65
		c0.682,0.344,1.435,0.628,2.185,0.775c0.365-0.696,0.767-1.487,1.25-2.111c0.474-0.612,1.07-0.646,1.786-0.577l0.357,0.952
		l0.865,2.307c1.152,0.089,2.502,0.228,3.948,0.349l0.934-1.792l0.528-1.014c0.435,0.058,0.872,0.105,1.311,0.137l0.419,0.951
		l0.852,1.935c1.451,0.023,2.908-0.035,4.303-0.225l0.611-2.513l0.174-0.713c0.562-0.034,1.111-0.107,1.611-0.306l0.425,0.551
		l1.382,1.794c1.271-0.614,2.368-1.459,3.164-2.644c2.322-3.458,0.163-6.855-0.363-10.463c-0.477-3.272-0.885-6.556-1.117-9.855
		c-1.227-17.426-2.388-11.678,1.069-28.643c3.429-16.829,4.277-18.359,7.406-35.262C124.187,107.844,125.181,87.904,113.256,88.787z
		"/>
</g>
<g id="_x32_-_Options">
	<g id="medication">
	</g>
	<g id="talking">
	</g>
	<g id="practical">
		<g id="mirror_2_">
		</g>
	</g>
</g>
<g id="_x33_-_Practical_Intro">
	<g id="List">
	</g>
</g>
<g id="_x34_-_Practical_List">
</g>
<g id="_x35_-_Support_Locations">
</g>
<g id="_x36_-Shy_Dog">
</g>
<g id="_x37_-Better_Dog">
</g>
<g id="_x38_-Therapist_Dog">
</g>
<g id="_x39_-_Therapy_Details">
	<g id="text_6_">
	</g>
</g>
<g id="_x31_0-Combining_Therapies">
	<g id="text_7_">
	</g>
	<g id="Isometric_Grid">
	</g>
	<g id="chair_3_">
	</g>
</g>
<g id="_x31_1-Medication_Script">
</g>
<g id="_x31_2-Dog_With_Medication">
</g>
<g id="_x31_3-Medication_Check_Ups">
</g>
<g id="_x31_4-Medication_Side_Effects">
</g>
</svg>
