<svg xmlns="http://www.w3.org/2000/svg" viewBox="0 0 101.026 97.665" enable-background="new 0 0 101.026 97.665"><g><path fill="#1565C0" d="M73.94 65.93c.08.55.17 1.1.27 1.67.62 3.37 1.2 6.82 2.5 10.02 1.22 3.07 3.37 5.72 5.4 8.3 1.44 1.9 2.4 5.06 4.43 6.32 2.27 1.42 5.24 1.47 7.82 1.27 1.34-.1 2.7-.3 4.02-.62.84-.2 2.1-.73 2.48-1.53.48-1.04-.08-2.4-.76-3.22-.7-.8-1.3-1.48-2.32-1.6-1.16-.16-2.32-.08-3.47-.13-.86-.03-1.82.16-2.57-.4-.45-.32-.78-.8-1.1-1.25-1.03-1.55-2.12-3.1-2.84-4.84-1-2.44-.95-5.26-1.38-7.85-.72-4.27-2.16-8.94-1.47-13.28.27-1.75.72-3.47.95-5.22.37-2.87.67-5.74 1-8.6.2-1.6.3-3.2 0-4.77-.34-1.56-1.16-3.08-2.5-3.95-6.02-3.96-9.03 8.32-9.9 12-1.4 5.8-1.44 11.83-.56 17.7z"/><path fill="#1E88E5" d="M4.64 84.13c1.72.32 3.44.6 5.17.84 2.23.3 4.35 1.02 6.43 1.82 1.4.52 3.75 1.6 5.26 1.32 1.35-.25 1.85-2.63 1.9-3.78.08-1.82-1.1-2.96-2.68-3.63-.12-.04-.25-.1-.38-.12-2.32-.6-5.75.44-8.12.68-4.2.42-8.16.82-12.22 1.9"/><path fill="#0D47A1" d="M67.47 7.06c-.74.97-1.33 1.7-1.5 1.87-1.75 1.72-3.74 3.12-5.5 4.8-2 1.9-4 3.82-6.02 5.73-5.52 5.27-10.67 12.28-15.83 17.92-10.24 11.2-18.14 22.55-20.8 37.55-.36 2.04-.7 4.08-1.04 6.1-.26 1.52-.5 3.07-.23 4.58.37 2 1.68 3.08 3.4 3.94 5.45 2.78 11.7 3.25 17.73 3.34 4.36.07 8.72.27 13.08.5 3.65.17 8.44 1.3 11.75-.7 2.03-1.23 4.87-3.18 2.7-5.42-.83-.85-3.2-1.2-4.26-1.63-1.4-.54-7.16-.1-8.5-.75 1.42-2.63 8.42-8.37 10.5-10.54 2.15-2.2 4.5-4.18 6.58-6.47 4.9-5.38 8.96-11.44 12.46-17.8 2.27-4.1 4.52-8.26 6.1-12.7.78-2.18 1.46-4.48 1.76-6.8.3-2.37-.15-4.8.35-7.16.43-2.1 1.38-4 2.3-5.93.45-.97 1.28-1.9 1.47-2.94.24-1.3-.5-2.75-1.35-3.66-1.1-1.2-2.6-1.96-4.08-2.68-5.6-2.75-11.16-5.55-16.8-8.2.66.3-2.33 4.52-4.27 7.06z"/><path fill="#81D4FA" d="M90 30.83l-9.2-.14s-4.8 1.12-5.7 1.54c-.9.42-4.65 3.1-4.65 3.1s-3.76 3.5-4.8 4.64c-1.03 1.12-6.73 9.98-7 10.4-.25.43-3.6 5.5-4.13 6.06-.52.56-5.48 12.6-5.5 12.63.03-.07 2.77.53 3.03.6 1.3.3 2.6.82 3.62 1.75 1 .93 1.42 2.18 1.42 3.53 0 1.54-.02 3.1-.82 4.46-.8 1.38-3.42 3.7-3.78 5.3.66.32 1.86-.47 2.4-.78.92-.5 1.83-1.05 2.74-1.58 1.2-.7 2.4-1.5 3.4-2.45.97-.92 1.43-1.93 2.14-3 1.02-1.56 2.2-3.92 3.77-5 1.03-.7 7.25-8.15 7.25-8.15l4.92-9.56s6.6-9.3 6.6-9.72 2.98-7.3 2.98-7.3l1.3-6.35z"/><path fill="#1565C0" d="M84.1 97.67c1.62 0 1.22-1.86.68-3.06-.48-1.04-.95-2.32-1.84-3.1-1.08-.97-2.7-.24-4.04-1-1.13-.65-1.75-1.73-2.26-2.88-.68-1.55-1.27-2.4-1.5-4.12-.24-2.03-.47-4.05-.68-6.08-.27-2.74-.5-5.5-.7-8.23-.15-2.32-.7-4.8-.48-7.1.6-5.55 2.97-11.07 2.46-16.7-.18-2.05-.9-4.14-2.3-5.68-1.77-1.95-4.9-2.1-7.3-1.52-2.9.68-4.93 2.58-6.13 5.3-.66 1.5-1 3.13-1.1 4.8-.07 1.16-.02 2.35.1 3.52.27 2.15.94 4.22 1.43 6.32.47 1.97.78 3.93 1.05 5.96.6 4.52 1.2 9.04 1.8 13.56.77 5.73 2.6 11.28 4.67 16.65.92 2.4 2.04 2.77 4.5 3.35"/></g></svg>