<?xml version="1.0" encoding="iso-8859-1"?>
<!-- Generator: Adobe Illustrator 19.0.1, SVG Export Plug-In . SVG Version: 6.00 Build 0)  -->
<svg version="1.1" xmlns="http://www.w3.org/2000/svg" xmlns:xlink="http://www.w3.org/1999/xlink" x="0px" y="0px"
	 viewBox="0 0 101.026 98.334" enable-background="new 0 0 101.026 98.334" xml:space="preserve">
<g id="_x31_-_Blue_Dog">
	<g id="Layer_2" display="none" opacity="0.4">
	</g>
</g>
<g id="_x32_-_Options">
	<g id="medication">
	</g>
	<g id="talking">
	</g>
	<g id="practical">
		<g id="mirror_2_">
		</g>
	</g>
</g>
<g id="_x33_-_Practical_Intro">
	<g id="List">
	</g>
</g>
<g id="_x34_-_Practical_List">
</g>
<g id="_x35_-_Support_Locations">
</g>
<g id="_x36_-Shy_Dog">
</g>
<g id="_x37_-Better_Dog">
</g>
<g id="_x38_-Therapist_Dog">
	<path id="front_left_leg_3_" fill="#1565C0" d="M27.088,65.927c-0.083,0.558-0.175,1.114-0.274,1.669
		c-0.606,3.377-1.2,6.82-2.478,10.02c-1.229,3.079-3.383,5.723-5.398,8.319c-1.451,1.87-2.408,5.042-4.439,6.306
		c-2.273,1.415-5.239,1.473-7.824,1.264c-1.342-0.108-2.709-0.293-4.017-0.62c-0.841-0.211-2.111-0.738-2.478-1.534
		c-0.48-1.043,0.075-2.403,0.76-3.223c0.677-0.809,1.289-1.473,2.31-1.605c1.152-0.149,2.312-0.069,3.469-0.118
		c0.87-0.037,1.827,0.153,2.572-0.392c0.453-0.331,0.783-0.8,1.097-1.266c1.042-1.546,2.13-3.1,2.843-4.833
		c1.009-2.455,0.941-5.276,1.377-7.866c0.718-4.267,2.156-8.94,1.47-13.28c-0.276-1.747-0.722-3.464-0.951-5.22
		c-0.373-2.866-0.667-5.742-1.013-8.611c-0.191-1.582-0.302-3.2,0.026-4.759c0.328-1.56,1.143-3.073,2.476-3.947
		c6.033-3.957,9.036,8.324,9.915,12.002C27.914,54.02,27.963,60.058,27.088,65.927z"/>
	<path id="tail_19_" fill="#1E88E5" d="M80.689,80.581c2.315-0.587,5.747,0.435,8.121,0.675c4.194,0.424,8.158,0.827,12.216,1.899
		c-1.066-0.282-3.516,0.76-4.639,0.972c-1.718,0.324-3.443,0.609-5.175,0.845c-2.216,0.302-4.339,1.019-6.42,1.814
		c-1.404,0.536-3.743,1.614-5.26,1.336c-1.353-0.249-1.854-2.627-1.907-3.78c-0.082-1.819,1.109-2.961,2.679-3.632
		C80.426,80.658,80.555,80.615,80.689,80.581z"/>
	<path id="body_18_" fill="#0D47A1" d="M33.556,7.059c0.744,0.973,1.335,1.702,1.51,1.875c1.744,1.72,3.734,3.111,5.5,4.795
		c2.002,1.91,4.004,3.821,6.007,5.731c5.527,5.273,10.67,12.277,15.829,17.92C72.65,48.592,80.542,59.935,83.203,74.935
		c0.361,2.034,0.707,4.072,1.048,6.109c0.255,1.509,0.51,3.057,0.227,4.562c-0.373,1.982-1.682,3.069-3.389,3.937
		c-5.457,2.775-11.714,3.244-17.738,3.338c-4.365,0.069-8.727,0.274-13.087,0.489c-3.65,0.18-8.435,1.305-11.742-0.694
		c-2.022-1.222-4.867-3.18-2.683-5.42c0.822-0.844,3.189-1.21,4.25-1.625c1.387-0.543,7.163-0.095,8.5-0.75
		c-1.417-2.633-8.418-8.375-10.512-10.538c-2.139-2.21-4.493-4.186-6.57-6.472c-4.888-5.378-8.96-11.445-12.464-17.799
		c-2.267-4.11-4.515-8.263-6.097-12.694c-0.781-2.188-1.463-4.483-1.757-6.794c-0.303-2.38,0.147-4.799-0.35-7.169
		c-0.443-2.112-1.396-4.001-2.301-5.94c-0.457-0.979-1.286-1.898-1.479-2.949c-0.237-1.286,0.503-2.741,1.344-3.659
		c1.106-1.207,2.612-1.955,4.081-2.676C18.075,5.447,23.645,2.654,29.279,0C28.625,0.308,31.613,4.517,33.556,7.059z"/>
	<path id="tummy_18_" fill="#81D4FA" d="M11.026,30.834l9.194-0.141c0,0,4.791,1.125,5.698,1.547
		c0.906,0.422,4.662,3.095,4.662,3.095s3.755,3.517,4.791,4.642c1.036,1.125,6.734,9.987,6.993,10.409
		c0.259,0.422,3.626,5.486,4.144,6.049c0.517,0.562,5.473,12.599,5.488,12.633c-0.017-0.068-2.765,0.534-3.018,0.595
		c-1.312,0.314-2.614,0.83-3.62,1.755c-1.012,0.93-1.421,2.181-1.427,3.53c-0.007,1.538,0.014,3.092,0.814,4.464
		c0.797,1.366,3.421,3.702,3.781,5.282c-0.659,0.326-1.859-0.464-2.405-0.77c-0.914-0.513-1.827-1.056-2.739-1.588
		c-1.208-0.704-2.384-1.486-3.402-2.449c-0.962-0.91-1.427-1.916-2.13-2.989c-1.022-1.561-2.192-3.915-3.773-4.988
		c-1.036-0.703-7.252-8.159-7.252-8.159l-4.921-9.565c0,0-6.604-9.284-6.604-9.706s-2.978-7.315-2.978-7.315L11.026,30.834z"/>
	<path id="front_right_leg_3_" fill="#1565C0" d="M42.126,48.285c0.073,1.178,0.025,2.369-0.113,3.539
		c-0.253,2.143-0.925,4.218-1.421,6.311c-0.468,1.976-0.771,3.931-1.041,5.961c-0.603,4.522-1.205,9.044-1.808,13.566
		c-0.764,5.732-2.595,11.273-4.667,16.65c-0.922,2.391-2.041,2.429-4.506,3C25.11,98.115,21.635,98,18.152,97c0,0-1.232,0-1.232,0
		c-1.612,0-1.215-1.525-0.672-2.718c0.479-1.052,0.949-2.165,1.834-2.953c1.082-0.963,2.708-0.149,4.047-0.914
		c1.126-0.644,1.749-1.691,2.256-2.837c0.684-1.546,1.273-2.377,1.489-4.101c0.254-2.025,0.483-4.041,0.689-6.071
		c0.277-2.739,0.509-5.477,0.697-8.224c0.158-2.312,0.72-4.787,0.483-7.095c-0.592-5.539-2.963-11.061-2.462-16.692
		c0.182-2.047,0.897-4.141,2.299-5.679c1.78-1.952,4.895-2.088,7.301-1.52c2.893,0.683,4.939,2.586,6.134,5.296
		C41.682,45.004,42.023,46.632,42.126,48.285z"/>
</g>
<g id="_x39_-_Therapy_Details">
	<g id="text_6_">
	</g>
</g>
<g id="_x31_0-Combining_Therapies">
	<g id="text_7_">
	</g>
	<g id="Isometric_Grid">
	</g>
	<g id="chair_3_">
	</g>
</g>
<g id="_x31_1-Medication_Script">
</g>
<g id="_x31_2-Dog_With_Medication">
</g>
<g id="_x31_3-Medication_Check_Ups">
</g>
<g id="_x31_4-Medication_Side_Effects">
</g>
</svg>
