<?xml version="1.0" encoding="iso-8859-1"?>
<!-- Generator: Adobe Illustrator 19.0.1, SVG Export Plug-In . SVG Version: 6.00 Build 0)  -->
<svg version="1.1" xmlns="http://www.w3.org/2000/svg" xmlns:xlink="http://www.w3.org/1999/xlink" x="0px" y="0px"
	 viewBox="0 0 77.53 47.557" enable-background="new 0 0 77.53 47.557" xml:space="preserve">
<g id="_x31_-_Blue_Dog">
	<g id="Layer_2" display="none" opacity="0.4">
	</g>
</g>
<g id="_x32_-_Options">
	<g id="medication">
	</g>
	<g id="talking">
	</g>
	<g id="practical">
		<g id="mirror_2_">
		</g>
	</g>
</g>
<g id="_x33_-_Practical_Intro">
	<g id="dog-side_2_">
		<path id="head_23_" fill="#1E88E5" d="M55.607,47.468c-1.048-0.122-2.059-0.359-3.103-0.587c-1.151-0.251-2.296-0.532-3.449-0.775
			c-1.441-0.304-2.896-0.529-4.357-0.714c-0.94,0.079-1.88,0.158-2.82,0.237c-4.251,0.358-8.506,0.715-12.771,0.803
			c-7.687,0.157-16.189,1.132-21.313-4.601c-2.524-2.824-3.922-6.476-4.881-10.14c-0.869-3.322-1.42-6.727-1.644-10.154
			c-0.119-1.82-0.14-3.682,0.4-5.424c0.483-1.56,1.645-5.174,2.669-6.446c2.816-3.498,3.576-6.043,7.754-7.671
			c6.327-2.464,15.843-1.988,22.165,0.172c1.121,0.383,2.252,0.801,3.197,1.516c0.787,0.595,1.413,1.373,2.03,2.142
			c3.458,4.306,6.146,7.496,11.107,10.129c4.556,2.419,2.13,1.748,7.169,3.04c4.512,1.157,9.737,1.814,12.872,5.258
			c5.362,5.889,4.585,18.733-3.414,22.097c-2.019,0.849-4.245,0.989-6.401,1.083c-1.416,0.062-2.834,0.163-4.253,0.11
			C56.242,47.531,55.923,47.505,55.607,47.468z"/>
		<path id="nose_21_" fill="#263238" d="M71.238,25.536c0.539-0.374,1.196-0.548,1.954-0.39c1.531,0.319,2.856,1.933,3.545,3.25
			c0.748,1.429,0.978,3.123,0.64,4.7c-0.34,1.585-1.577,3.631-3.421,3.528c-0.822-0.046-1.589-0.45-2.227-0.972
			c-1.546-1.266-2.1-2.894-2.271-4.802c-0.109-1.219,0.007-2.473,0.481-3.609C70.227,26.553,70.667,25.932,71.238,25.536z"/>
		<circle id="eye_10_" fill="#263238" cx="39.463" cy="19.41" r="3.58"/>
		<path id="ear_10_" fill="#283593" d="M32.01,4.994c-2.491,1.776-3.806,4.816-4.307,7.834c-0.501,3.018-1.345,5.169-1.45,8.227
			c-0.081,2.334,0.701,5.598,0.8,7.932c0.187,4.413,1.639,8.895,0.505,13.164c-0.26,0.98-0.67,1.948-1.381,2.67
			c-1.344,1.365-3.44,1.58-5.354,1.656c-2.939,0.118-5.909,0.096-8.787-0.511S6.354,44.13,4.234,42.09
			C1.419,39.38,0.023,35.4,0,31.492s1.231-7.742,3.085-11.182c0.927-1.719,2.009-7.517,2.707-9.341
			c0.522-1.365,0.822-2.811,1.395-4.156c1.314-3.077,4.115-5.479,7.357-6.307c1.56-0.398,3.184-0.448,4.793-0.495
			c3.656-0.108,7.591,0.488,11.297,3.312c0.622,0.474,1.53,0.767,1.451,1.544"/>
	</g>
	<g id="List">
	</g>
</g>
<g id="_x34_-_Practical_List">
</g>
<g id="_x35_-_Support_Locations">
</g>
<g id="_x36_-Shy_Dog">
</g>
<g id="_x37_-Better_Dog">
</g>
<g id="_x38_-Therapist_Dog">
</g>
<g id="_x39_-_Therapy_Details">
	<g id="text_6_">
	</g>
</g>
<g id="_x31_0-Combining_Therapies">
	<g id="text_7_">
	</g>
	<g id="Isometric_Grid">
	</g>
	<g id="chair_3_">
	</g>
</g>
<g id="_x31_1-Medication_Script">
</g>
<g id="_x31_2-Dog_With_Medication">
</g>
<g id="_x31_3-Medication_Check_Ups">
</g>
<g id="_x31_4-Medication_Side_Effects">
</g>
</svg>
