<?xml version="1.0" encoding="iso-8859-1"?>
<!-- Generator: Adobe Illustrator 19.0.1, SVG Export Plug-In . SVG Version: 6.00 Build 0)  -->
<svg version="1.1" xmlns="http://www.w3.org/2000/svg" xmlns:xlink="http://www.w3.org/1999/xlink" x="0px" y="0px"
	 viewBox="0 0 101.026 97.665" enable-background="new 0 0 101.026 97.665" xml:space="preserve">
<g id="_x31_-_Blue_Dog">
	<g id="Layer_2" display="none" opacity="0.4">
	</g>
</g>
<g id="_x32_-_Options">
	<g id="medication">
	</g>
	<g id="talking">
	</g>
	<g id="practical">
		<g id="mirror_2_">
		</g>
	</g>
</g>
<g id="_x33_-_Practical_Intro">
	<g id="List">
	</g>
</g>
<g id="_x34_-_Practical_List">
</g>
<g id="_x35_-_Support_Locations">
</g>
<g id="_x36_-Shy_Dog">
</g>
<g id="_x37_-Better_Dog">
</g>
<g id="_x38_-Therapist_Dog">
	<path id="front_left_leg_4_" fill="#1565C0" d="M73.938,65.927c0.083,0.558,0.175,1.114,0.274,1.669
		c0.606,3.377,1.2,6.82,2.478,10.02c1.229,3.079,3.383,5.723,5.398,8.319c1.451,1.87,2.408,5.042,4.439,6.306
		c2.273,1.415,5.239,1.473,7.824,1.264c1.342-0.108,2.709-0.293,4.017-0.62c0.841-0.211,2.111-0.738,2.478-1.534
		c0.48-1.043-0.075-2.403-0.76-3.223c-0.677-0.809-1.289-1.473-2.31-1.605c-1.152-0.149-2.312-0.069-3.469-0.118
		c-0.87-0.037-1.827,0.153-2.572-0.392c-0.453-0.331-0.783-0.8-1.097-1.266c-1.042-1.546-2.13-3.1-2.843-4.833
		c-1.009-2.455-0.941-5.276-1.377-7.866c-0.718-4.267-2.156-8.94-1.47-13.28c0.276-1.747,0.722-3.464,0.951-5.22
		c0.373-2.866,0.667-5.742,1.013-8.611c0.191-1.582,0.302-3.2-0.026-4.759c-0.328-1.56-1.143-3.073-2.476-3.947
		c-6.033-3.957-9.036,8.324-9.915,12.002C73.112,54.02,73.063,60.058,73.938,65.927z"/>
	<path id="tail_20_" fill="#1E88E5" d="M4.639,84.127c1.718,0.324,3.443,0.609,5.175,0.845c2.216,0.302,4.339,1.019,6.42,1.814
		c1.404,0.536,3.743,1.614,5.26,1.336c1.353-0.249,1.854-2.627,1.907-3.78c0.082-1.819-1.109-2.961-2.679-3.632
		c-0.123-0.052-0.251-0.095-0.386-0.129c-2.315-0.587-5.747,0.435-8.121,0.675C8.022,81.68,4.058,82.084,0,83.155"/>
	<path id="body_19_" fill="#0D47A1" d="M67.47,7.059c-0.744,0.973-1.335,1.702-1.51,1.875c-1.744,1.72-3.734,3.111-5.5,4.795
		c-2.002,1.91-4.004,3.821-6.007,5.731c-5.527,5.273-10.67,12.277-15.829,17.92C28.376,48.592,20.484,59.935,17.824,74.935
		c-0.361,2.034-0.707,4.072-1.048,6.109c-0.255,1.509-0.51,3.057-0.227,4.562c0.373,1.982,1.682,3.069,3.389,3.937
		c5.457,2.775,11.714,3.244,17.738,3.338c4.365,0.069,8.727,0.274,13.087,0.489c3.65,0.18,8.435,1.305,11.742-0.694
		c2.022-1.222,4.867-3.18,2.683-5.42c-0.822-0.844-3.189-1.21-4.25-1.625c-1.387-0.543-7.163-0.095-8.5-0.75
		c1.417-2.633,8.418-8.375,10.512-10.538c2.139-2.21,4.493-4.186,6.57-6.472c4.888-5.378,8.96-11.445,12.464-17.799
		c2.267-4.11,4.515-8.263,6.097-12.694c0.781-2.188,1.463-4.483,1.757-6.794c0.303-2.38-0.147-4.799,0.35-7.169
		c0.443-2.112,1.396-4.001,2.301-5.94c0.457-0.979,1.286-1.898,1.479-2.949c0.237-1.286-0.503-2.741-1.344-3.659
		c-1.106-1.207-2.612-1.955-4.081-2.676C82.952,5.447,77.382,2.654,71.747,0C72.401,0.308,69.413,4.517,67.47,7.059z"/>
	<path id="tummy_19_" fill="#81D4FA" d="M90,30.834l-9.194-0.141c0,0-4.791,1.125-5.698,1.547c-0.906,0.422-4.662,3.095-4.662,3.095
		s-3.755,3.517-4.791,4.642c-1.036,1.125-6.734,9.987-6.993,10.409c-0.259,0.422-3.626,5.486-4.144,6.049
		c-0.517,0.562-5.473,12.599-5.488,12.633c0.017-0.068,2.765,0.534,3.018,0.595c1.312,0.314,2.614,0.83,3.62,1.755
		c1.012,0.93,1.421,2.181,1.427,3.53c0.007,1.538-0.014,3.092-0.814,4.464c-0.797,1.366-3.421,3.702-3.781,5.282
		c0.659,0.326,1.859-0.464,2.405-0.77c0.914-0.513,1.827-1.056,2.739-1.588c1.208-0.704,2.384-1.486,3.402-2.449
		c0.962-0.91,1.427-1.916,2.13-2.989c1.022-1.561,2.192-3.915,3.773-4.988c1.036-0.703,7.252-8.159,7.252-8.159l4.921-9.565
		c0,0,6.604-9.284,6.604-9.706s2.978-7.315,2.978-7.315L90,30.834z"/>
	<path id="front_right_leg_4_" fill="#1565C0" d="M84.106,97.665c1.612,0,1.215-1.858,0.672-3.051
		c-0.479-1.052-0.949-2.332-1.834-3.119c-1.082-0.963-2.708-0.232-4.047-0.997c-1.126-0.644-1.749-1.732-2.256-2.879
		c-0.684-1.546-1.273-2.398-1.489-4.121c-0.254-2.025-0.483-4.051-0.689-6.081c-0.277-2.739-0.509-5.482-0.697-8.229
		c-0.158-2.312-0.72-4.79-0.483-7.098c0.592-5.539,2.963-11.062,2.462-16.693c-0.182-2.047-0.897-4.142-2.299-5.68
		c-1.78-1.952-4.895-2.088-7.301-1.521c-2.893,0.683-4.939,2.586-6.134,5.296c-0.666,1.512-1.008,3.14-1.11,4.793
		c-0.073,1.178-0.025,2.369,0.113,3.539c0.253,2.143,0.925,4.218,1.421,6.311c0.468,1.976,0.771,3.931,1.041,5.961
		c0.603,4.522,1.205,9.044,1.808,13.566c0.764,5.732,2.595,11.273,4.668,16.65c0.922,2.391,2.041,2.762,4.506,3.333"/>
</g>
<g id="_x39_-_Therapy_Details">
	<g id="text_6_">
	</g>
</g>
<g id="_x31_0-Combining_Therapies">
	<g id="text_7_">
	</g>
	<g id="Isometric_Grid">
	</g>
	<g id="chair_3_">
	</g>
</g>
<g id="_x31_1-Medication_Script">
</g>
<g id="_x31_2-Dog_With_Medication">
</g>
<g id="_x31_3-Medication_Check_Ups">
</g>
<g id="_x31_4-Medication_Side_Effects">
</g>
</svg>
