<?xml version="1.0" encoding="iso-8859-1"?>
<!-- Generator: Adobe Illustrator 19.0.1, SVG Export Plug-In . SVG Version: 6.00 Build 0)  -->
<svg version="1.1" xmlns="http://www.w3.org/2000/svg" xmlns:xlink="http://www.w3.org/1999/xlink" x="0px" y="0px"
	 viewBox="0 0 135.372 105.606" enable-background="new 0 0 135.372 105.606" xml:space="preserve">
<g id="_x31_-_Blue_Dog">
	<g id="Layer_2" display="none" opacity="0.4">
	</g>
	<g id="dog">
		<path id="left_ear_19_" fill="#283593" d="M54.609,7.16c-5.192,0.002-19.308,0.801-24.232,2.512
			c-6.726,2.336-10.041,10.097-16.312,13.659c-4.64,2.635-9.648,5.264-12.36,9.859c-3.621,6.133-0.824,12.375,2.374,17.972
			c3.529,6.177,6.846,12.472,10.218,18.736c2.01,3.735,4.057,7.521,7.002,10.574c3.852,3.994,11.459,7.926,16.657,4.123
			c4.298-3.145,3.478-8.913,2.311-13.436c-1.706-6.617-5.015-12.686-6.42-19.463c-1.458-7.03-1.926-15.217,1.481-21.712
			C39.195,22.611,51.231,14.765,54.609,7.16z"/>
		<path id="right_ear_10_" fill="#283593" d="M79.943,7.493c2.51,1.632,8.096,6.153,9.667,8.667
			c2.569,4.111,8.929,8.223,11.5,12.333c5.402,8.638,3.427,15.704,1.736,24.886c-0.84,4.56-2.061,8.963-3.158,13.47
			c-1.074,4.415-3.175,11.255,0.47,14.943c2.116,2.141,5.365,2.939,8.338,2.464c3.688-0.589,7.104-2.935,9.28-5.928
			c5.47-7.525,10.774-15.209,15.114-23.454c2.04-3.875,2.285-6.328,2.434-10.6c0.187-5.382,0.004-9.04-3.468-13.705
			c-5.305-7.13-13.628-10.938-19.235-17.872c-1.081-1.337-2.107-2.744-3.449-3.818C104.218,4.917,85.565,6.471,79.943,7.493z"/>
		<path id="head_22_" fill="#1E88E5" d="M49.875,7.918C44.465,12.813,38.284,18.866,34.9,25.35
			c-3.718,7.124-4.345,15.562-3.19,23.409c1.023,6.948,3.737,13.436,5.903,20.064c2.083,6.377,3.245,12.525,4.361,19.175
			c1.032,6.146,4.048,15.876,11.302,17.327c3.975,0.795,8.462-0.261,12.294-1.208c5.74-1.418,10.365,2.294,16.108,1.298
			c4.29-0.744,8.262-3.196,10.903-6.652c3.05-3.993,3.141-8.598,4.018-13.339c1.421-7.678,3.113-15.306,5.072-22.865
			c1.495-5.77,3.003-11.533,4.644-17.284c1.974-6.919-0.234-14.656-4.386-20.331c-2.748-3.755-6.347-6.508-9.479-9.878
			C85.806,7.918,80.765,1.136,70.178,0.107C62.39-0.65,55.667,2.685,50.012,7.794C49.967,7.835,49.921,7.876,49.875,7.918z"/>
		<circle id="left_ear_18_" fill="#263238" cx="49.526" cy="48.327" r="5.75"/>
		<circle id="right_eye_9_" fill="#263238" cx="85.026" cy="48.077" r="5.25"/>
		<path id="nose_20_" fill="#263238" d="M71.446,76.643c-4.263-0.742-9.585-1.482-12.777,2.216
			c-2.401,2.782-2.177,7.223-0.079,10.241c2.098,3.018,5.689,4.732,9.315,5.33c4.512,0.745,9.539-0.228,12.703-3.531
			c2.564-2.677,3.706-7.625,1.547-10.892c-2.534-3.834-7.938-2.873-11.891-3.365"/>
	</g>
</g>
<g id="_x32_-_Options">
	<g id="medication">
	</g>
	<g id="talking">
	</g>
	<g id="practical">
		<g id="mirror_2_">
		</g>
	</g>
</g>
<g id="_x33_-_Practical_Intro">
	<g id="dog-side_2_">
	</g>
	<g id="List">
	</g>
</g>
<g id="_x34_-_Practical_List">
</g>
<g id="_x35_-_Support_Locations">
</g>
<g id="_x36_-Shy_Dog">
</g>
<g id="_x37_-Better_Dog">
</g>
<g id="_x38_-Therapist_Dog">
</g>
<g id="_x39_-_Therapy_Details">
	<g id="text_6_">
	</g>
</g>
<g id="_x31_0-Combining_Therapies">
	<g id="text_7_">
	</g>
	<g id="Isometric_Grid">
	</g>
	<g id="chair_3_">
	</g>
</g>
<g id="_x31_1-Medication_Script">
</g>
<g id="_x31_2-Dog_With_Medication">
</g>
<g id="_x31_3-Medication_Check_Ups">
</g>
<g id="_x31_4-Medication_Side_Effects">
</g>
</svg>
