<svg xmlns="http://www.w3.org/2000/svg" viewBox="0 0 149.995 127.784" enable-background="new 0 0 149.995 127.784"><g><g><path fill="#1E88E5" d="M104.13 95.63s30.75.25 45.86 6.12c0 0-24-29.27-45.47-23.05l-.4 16.93z"/><path fill="#0D47A1" d="M130.75 97.7c-5.55-.66-11.08-1.93-16.66-2.4 1.42-6.75 8.02-11.3 10.18-17.85 1.26-3.8.9-8.04-.5-11.8-2.75-7.45-8.3-13.8-15.08-17.9-7.97-4.8-17.65-5.14-26.73-5.88-16.36-1.3-34.88-2.33-50.27 4.5-6.2 2.78-11.74 7.22-14.33 13.67-2 4.96-2.16 10.6-.6 15.7 1.6 5.25 4.83 9.84 6.46 15.08.45 1.44 1.18 3.18 0 4.4-2.17 2.22-.98 1.46-3.87 1.6-4.25.18-8.6.57-12.44 2.43-2.6 1.25-4.95 3.3-6.24 5.9-1.58 3.17-.34 7.05 3 8.38 1.73.7 3.64.74 5.5.76 4.74.04.24.43 5 .03 2.9-.24 5.5-1.2 8.3-1.53 3.86-.46 7.9-.3 11.8-.44 7.85-.26 15.7-.47 23.56-.64 9.4-.2 18.8-.3 28.2-.36 4.7-.02 9.4-.2 14.08-.43 5.3-.26 9.3.18 14.42 1.08 8.5 1.5 10.1 2.18 18.67 2.8 1.37.1 2.74-.1 4-.63 3.34-1.5 3.17-4.22 2.95-6.7-.12-1.4-.27-2.9-1.13-4.03-1.38-2.73-4.33-3.97-8.27-5.74z"/><ellipse cx="71.834" cy="69.451" fill="#81D4FA" rx="28.083" ry="27.75"/><path fill="#1565C0" d="M61.53 113.95c-1.3-16.14-1.4-11.8-4.75-26.74-.52-5.65-5.32-10.08-11.16-10.08-6.18 0-11.2 4.98-11.2 11.12 0 .78.08 1.53.23 2.26-.02.12-.03.23 0 .35.2 1.15.47 2.43.77 3.9 2.8 13.6 2.33 8.3-3.22 21.66-.9 2.22-2.1 4.63-1.27 6.87.5 1.34 1.57 2.3 2.83 2.88.64.3 1.3.58 2 .76.4.12.85-.06 1.1-.4.23-.34.46-.67.7-1 0 0 .35-.5.7-1 .1.02.18.04.27.06.25.05.5.1.77.12.16.7.33 1.42.5 2.13.1.47.5.8.98.82 1.1.05 2.2.1 3.3.16.15 0 .3 0 .45-.06.15-.1.23-.26.3-.42.25-.57.5-1.12.76-1.7.16-.38.54-.6.96-.6 0 0 0 0 .02 0 .42 0 .8.22.97.6.22.48.44.96.66 1.45.2.4.6.64 1.03.6.4 0 .8 0 1.1-.03.74-.07 1.47-.16 2.2-.26.47-.07.84-.44.9-.9.1-.66.2-1.6.3-2.4.3-.1.63-.18.95-.3.07-.03.15-.06.23-.1.46.5.9 1.02 1.34 1.54.35.4.94.48 1.4.2.68-.47 1.35-.98 1.85-1.67 1.96-2.77 2.3-6.4 2.03-9.78z"/><path fill="#1565C0" d="M76.73 112.95c1.32-16.14 1.4-11.8 4.76-26.74.5-5.65 5.3-10.08 11.15-10.08 6.2 0 11.2 4.98 11.2 11.12 0 .78-.08 1.53-.23 2.26.02.12.03.23 0 .35-.2 1.15-.46 2.43-.77 3.9-2.8 13.6-2.33 8.3 3.22 21.66.9 2.22 2.1 4.63 1.27 6.87-.5 1.34-1.57 2.3-2.83 2.88-.63.3-1.3.58-1.98.76-.42.12-.86-.06-1.1-.4-.24-.34-.47-.67-.7-1 0 0-.36-.5-.72-1-.08.02-.17.04-.26.06-.25.05-.5.1-.77.12-.16.7-.33 1.42-.5 2.13-.1.47-.5.8-.98.82-1.1.05-2.2.1-3.3.16-.16 0-.32 0-.46-.06-.15-.1-.23-.26-.3-.42-.25-.57-.5-1.12-.76-1.7-.17-.38-.55-.6-.97-.6-.43 0-.8.22-.97.6-.22.48-.44.96-.66 1.45-.2.4-.6.64-1.03.6-.4 0-.8 0-1.1-.03-.74-.07-1.47-.16-2.2-.26-.47-.07-.84-.44-.9-.9-.1-.66-.2-1.6-.3-2.4-.3-.1-.63-.18-.95-.3-.08-.03-.16-.06-.24-.1-.45.5-.9 1.02-1.33 1.54-.35.4-.94.48-1.4.2-.68-.47-1.35-.98-1.85-1.67-1.97-2.77-2.32-6.4-2.05-9.78z"/><path fill="#283593" d="M56.25 2.7c-5.1 0-19 .77-23.86 2.43-6.64 2.26-9.9 9.75-16.08 13.2-4.56 2.54-9.5 5.08-12.17 9.52C.6 33.78 3.35 39.8 6.5 45.22c3.47 5.96 6.73 12.05 10.05 18.1 1.98 3.6 4 7.27 6.9 10.22 3.8 3.86 11.28 7.66 16.4 3.98 4.23-3.04 3.42-8.6 2.28-12.98-1.68-6.4-4.94-12.26-6.33-18.8-1.43-6.8-1.9-14.7 1.46-21 3.8-7.1 15.66-14.7 19-22.04z"/><path fill="#283593" d="M82.42 2.58c2.5 1.6 8.1 5.98 9.66 8.42 2.57 4 8.93 8 11.5 11.98 5.4 8.4 3.43 15.25 1.74 24.17-.84 4.43-2.06 8.7-3.16 13.08-1.07 4.3-3.17 10.93.47 14.5 2.12 2.1 5.37 2.87 8.34 2.4 3.7-.57 7.1-2.85 9.28-5.75 5.47-7.3 10.77-14.77 15.1-22.78 2.05-3.76 2.3-6.15 2.45-10.3.18-5.22 0-8.77-3.47-13.3-5.3-6.93-13.63-10.63-19.23-17.36-1.1-1.3-2.1-2.67-3.45-3.7-4.96-3.86-23.6-2.35-29.23-1.36z"/><path fill="#1E88E5" d="M37.37 21.26c-3.7 6.86-4.34 14.98-3.2 22.53 1.04 6.67 3.75 12.9 5.92 19.3 2.07 6.13 3.23 12.04 4.35 18.44 1.03 5.9 4.05 15.27 11.3 16.67 3.98.78 8.46-.24 12.3-1.15 5.73-1.37 10.36 2.2 16.1 1.25 4.3-.72 8.26-3.08 10.9-6.4 3.06-3.84 3.15-8.28 4.02-12.84 1.42-7.38 3.12-14.72 5.08-22 1.5-5.55 3-11.1 4.64-16.63 1.96-6.65-.24-14.1-4.4-19.56-2.74-3.6-6.34-6.26-9.48-9.5C88.28 4.5 82.04.37 71.42.03c-8.57-.27-14.52 1.1-20.17 6-5.26 4.1-9.77 9.35-13.88 15.23z"/><path fill="#263238" d="M47.06 51.48c.02.43.12.85.32 1.24 1 1.96 4.12 2.37 6.94.9 2.82-1.45 4.28-4.23 3.27-6.2-.2-.38-.5-.7-.85-.97-3.7 1.15-6.63 2.7-9.7 5.03zM85.34 46.68c-.07-.02-.14-.08-.2-.12-.3.23-.57.5-.75.82-.98 1.77.3 4.34 2.84 5.73 2.55 1.4 5.4 1.1 6.36-.68.18-.33.26-.7.3-1.07-2.6-2.03-5.43-3.87-8.56-4.67z"/><path fill="#263238" d="M73.92 73.08c-4.26-.6-9.58-1.2-12.78 1.78-2.4 2.23-2.17 5.8-.07 8.22 2.1 2.42 5.68 3.8 9.3 4.27 4.52.6 9.55-.18 12.7-2.83 2.58-2.15 3.72-6.12 1.56-8.74-2.53-3.08-7.94-2.3-11.9-2.7"/><path fill="#81D4FA" d="M48.42 21.2s-.13 1.23-.4 3.03c-.16.9-.32 1.96-.53 3.07-.2 1.13-.47 2.3-.72 3.48-.28 1.17-.3 2.44-.64 3.5-.37 1.06-1 1.94-1.62 2.67-.3.37-.62.7-.93.96-.32.3-.6.52-.86.7-.52.37-.9.55-.9.55l-.46-.17s-.17-.38-.33-1c-.08-.3-.14-.66-.2-1.07-.06-.4-.1-.85-.1-1.33 0-.95.1-2.03.5-3.08.42-1.05 1.23-2.03 1.77-3.1.58-1.06 1.13-2.13 1.7-3.1.57-1 1.12-1.9 1.6-2.7.94-1.55 1.63-2.57 1.63-2.57l.47.17z"/></g></g></svg>