<?xml version="1.0" encoding="iso-8859-1"?>
<!-- Generator: Adobe Illustrator 19.0.1, SVG Export Plug-In . SVG Version: 6.00 Build 0)  -->
<svg version="1.1" xmlns="http://www.w3.org/2000/svg" xmlns:xlink="http://www.w3.org/1999/xlink" x="0px" y="0px"
	 viewBox="0 0 149.995 127.784" enable-background="new 0 0 149.995 127.784" xml:space="preserve">
<g id="_x31_-_Blue_Dog">
	<g id="Layer_2" display="none" opacity="0.4">
	</g>
	<g id="dog">
	</g>
</g>
<g id="_x32_-_Options">
	<g id="medication">
	</g>
	<g id="talking">
	</g>
	<g id="practical">
		<g id="mirror_2_">
		</g>
	</g>
</g>
<g id="_x33_-_Practical_Intro">
	<g id="dog-side_2_">
	</g>
	<g id="List">
	</g>
</g>
<g id="_x34_-_Practical_List">
</g>
<g id="_x35_-_Support_Locations">
</g>
<g id="_x36_-Shy_Dog">
	<g id="shy_dog_2_">
		<path id="tail_21_" fill="#1E88E5" d="M104.125,95.63c0,0,30.75,0.25,45.869,6.118c0,0-23.991-29.27-45.467-23.048L104.125,95.63z
			"/>
		<path fill="#0D47A1" d="M130.75,97.701c-5.554-0.662-11.082-1.929-16.656-2.395c1.427-6.751,8.023-11.302,10.19-17.853
			c1.261-3.812,0.889-8.041-0.502-11.807c-2.75-7.447-8.314-13.807-15.085-17.888c-7.964-4.799-17.647-5.149-26.728-5.885
			c-16.354-1.314-34.878-2.336-50.266,4.511c-6.209,2.762-11.744,7.21-14.331,13.654c-1.991,4.96-2.165,10.602-0.601,15.703
			c1.609,5.249,4.829,9.839,6.459,15.076c0.448,1.438,1.178,3.186,0.007,4.388c-2.177,2.235-0.985,1.474-3.876,1.604
			C15.109,97,10.749,97.387,6.921,99.245c-2.59,1.257-4.949,3.314-6.244,5.918c-1.572,3.161-0.34,7.038,2.995,8.367
			c1.735,0.691,3.649,0.737,5.517,0.759c4.732,0.054,0.226,0.436,5.002,0.039c2.883-0.24,5.48-1.203,8.286-1.533
			c3.862-0.455,7.904-0.302,11.792-0.432c7.857-0.264,15.715-0.477,23.574-0.639c9.399-0.194,18.8-0.316,28.201-0.365
			c4.694-0.024,9.385-0.194,14.073-0.425c5.289-0.261,9.316,0.179,14.421,1.078c8.489,1.495,10.111,2.164,18.676,2.776
			c1.354,0.097,2.73-0.074,3.972-0.623c3.357-1.485,3.184-4.212,2.968-6.699c-0.122-1.411-0.276-2.906-1.137-4.03
			C137.645,100.712,134.691,99.467,130.75,97.701z"/>
		<ellipse id="tummy_20_" fill="#81D4FA" cx="71.834" cy="69.451" rx="28.083" ry="27.75"/>
		<path id="left_leg_18_" fill="#1565C0" d="M61.535,113.949c-1.315-16.141-1.391-11.791-4.754-26.735
			c-0.524-5.661-5.316-10.096-11.156-10.096c-6.19,0-11.208,4.981-11.208,11.125c0,0.774,0.08,1.529,0.232,2.259
			c-0.017,0.114-0.027,0.23-0.004,0.35c0.216,1.144,0.47,2.431,0.773,3.896c2.811,13.59,2.333,8.314-3.215,21.664
			c-0.916,2.204-2.096,4.621-1.273,6.862c0.49,1.333,1.567,2.284,2.827,2.881c0.645,0.306,1.309,0.573,1.998,0.757
			c0.413,0.111,0.851-0.073,1.098-0.422c0.235-0.331,0.469-0.662,0.704-0.992c0,0,0.355-0.501,0.71-1.001
			c0.087,0.02,0.173,0.048,0.261,0.065c0.256,0.05,0.513,0.088,0.771,0.117c0.164,0.709,0.328,1.418,0.492,2.127
			c0.107,0.464,0.509,0.798,0.985,0.819c1.101,0.049,2.201,0.1,3.302,0.156c0.152,0.008,0.314,0.014,0.448-0.061
			c0.153-0.086,0.233-0.257,0.303-0.417c0.252-0.574,0.508-1.125,0.763-1.698c0.171-0.384,0.552-0.603,0.973-0.603
			c0.005,0,0.009,0,0.014,0c0.417,0,0.795,0.217,0.966,0.597c0.22,0.486,0.44,0.961,0.66,1.448c0.181,0.401,0.589,0.644,1.028,0.616
			c0.385-0.025,0.8-0.009,1.104-0.038c0.732-0.071,1.459-0.166,2.187-0.265c0.475-0.065,0.847-0.439,0.91-0.914
			c0.086-0.647,0.196-1.576,0.289-2.376c0.319-0.099,0.642-0.187,0.954-0.307c0.078-0.03,0.157-0.064,0.236-0.101
			c0.443,0.511,0.887,1.022,1.33,1.534c0.348,0.402,0.941,0.489,1.383,0.194c0.698-0.464,1.369-0.969,1.86-1.658
			C61.46,120.96,61.812,117.338,61.535,113.949z"/>
		<path id="right_leg_18_" fill="#1565C0" d="M76.735,112.949c1.315-16.141,1.391-11.791,4.754-26.735
			c0.524-5.661,5.316-10.096,11.156-10.096c6.19,0,11.208,4.981,11.208,11.125c0,0.774-0.08,1.529-0.232,2.259
			c0.017,0.114,0.027,0.23,0.004,0.35c-0.216,1.144-0.47,2.431-0.773,3.896c-2.811,13.59-2.333,8.314,3.215,21.664
			c0.916,2.204,2.096,4.621,1.273,6.862c-0.49,1.333-1.567,2.284-2.827,2.881c-0.645,0.306-1.309,0.573-1.998,0.757
			c-0.413,0.111-0.851-0.073-1.098-0.422c-0.235-0.331-0.469-0.662-0.704-0.992c0,0-0.355-0.501-0.71-1.001
			c-0.087,0.02-0.173,0.048-0.261,0.065c-0.256,0.05-0.513,0.088-0.771,0.117c-0.164,0.709-0.328,1.418-0.492,2.127
			c-0.107,0.464-0.509,0.798-0.985,0.819c-1.101,0.049-2.201,0.1-3.302,0.156c-0.152,0.008-0.314,0.014-0.448-0.061
			c-0.153-0.086-0.233-0.257-0.303-0.417c-0.252-0.574-0.508-1.125-0.763-1.698c-0.171-0.384-0.552-0.603-0.973-0.603
			c-0.005,0-0.009,0-0.014,0c-0.417,0-0.795,0.217-0.966,0.597c-0.22,0.486-0.44,0.961-0.66,1.448
			c-0.181,0.401-0.589,0.644-1.028,0.616c-0.385-0.025-0.8-0.009-1.104-0.038c-0.732-0.071-1.459-0.166-2.187-0.265
			c-0.475-0.065-0.847-0.439-0.91-0.914c-0.086-0.647-0.196-1.576-0.289-2.376c-0.319-0.099-0.642-0.187-0.954-0.307
			c-0.078-0.03-0.157-0.064-0.236-0.101c-0.443,0.511-0.887,1.022-1.33,1.534c-0.348,0.402-0.941,0.489-1.383,0.194
			c-0.698-0.464-1.369-0.969-1.86-1.658C76.81,119.96,76.459,116.338,76.735,112.949z"/>
		<path id="left_ear_20_" fill="#283593" d="M56.25,2.701c-5.113,0.002-19.013,0.774-23.863,2.427
			c-6.623,2.257-9.887,9.756-16.063,13.198c-4.569,2.546-9.5,5.086-12.172,9.526C0.587,33.777,3.342,39.808,6.49,45.217
			c3.475,5.968,6.742,12.05,10.062,18.104c1.979,3.609,3.995,7.267,6.895,10.217c3.793,3.859,11.284,7.659,16.403,3.984
			c4.232-3.039,3.425-8.612,2.276-12.982c-1.68-6.394-4.938-12.258-6.322-18.806c-1.436-6.793-1.896-14.704,1.459-20.979
			C41.072,17.63,52.924,10.049,56.25,2.701z"/>
		<path id="right_ear_11_" fill="#283593" d="M82.417,2.583c2.51,1.585,8.096,5.976,9.667,8.417
			c2.569,3.993,8.929,7.986,11.5,11.978c5.402,8.389,3.427,15.252,1.736,24.169c-0.84,4.429-2.061,8.705-3.158,13.082
			c-1.074,4.288-3.175,10.931,0.47,14.512c2.116,2.079,5.365,2.854,8.338,2.393c3.688-0.572,7.104-2.851,9.28-5.758
			c5.47-7.309,10.774-14.771,15.114-22.778c2.04-3.763,2.285-6.146,2.434-10.294c0.187-5.227,0.004-8.779-3.468-13.31
			c-5.305-6.924-13.628-10.622-19.235-17.357c-1.081-1.298-2.107-2.665-3.449-3.708C106.693,0.082,88.04,1.591,82.417,2.583z"/>
		<path id="head_25_" fill="#1E88E5" d="M37.374,21.264c-3.718,6.855-4.345,14.973-3.19,22.523
			c1.023,6.685,3.737,12.927,5.903,19.304c2.083,6.136,3.244,12.051,4.361,18.449c1.032,5.913,4.048,15.274,11.302,16.671
			c3.975,0.765,8.462-0.252,12.294-1.162c5.74-1.364,10.365,2.207,16.108,1.248c4.29-0.716,8.262-3.075,10.903-6.4
			c3.05-3.841,3.141-8.272,4.018-12.834c1.421-7.387,3.113-14.726,5.072-21.999c1.495-5.552,3.003-11.096,4.644-16.63
			c1.974-6.657-0.234-14.101-4.386-19.561c-2.748-3.613-6.347-6.261-9.479-9.503C88.281,4.492,82.045,0.377,71.417,0.034
			c-8.569-0.276-14.512,1.085-20.167,6C45.988,10.119,41.48,15.379,37.374,21.264z"/>
		<path fill="#263238" d="M47.06,51.48c0.016,0.435,0.116,0.855,0.318,1.243c1.017,1.961,4.126,2.366,6.946,0.905
			c2.819-1.461,4.281-4.236,3.264-6.197c-0.201-0.388-0.487-0.712-0.833-0.976C53.049,47.605,50.118,49.163,47.06,51.48z"/>
		<path fill="#263238" d="M85.345,46.681c-0.079-0.02-0.141-0.077-0.212-0.116c-0.298,0.227-0.562,0.489-0.743,0.82
			c-0.967,1.77,0.311,4.332,2.855,5.723c2.544,1.391,5.391,1.083,6.358-0.687c0.181-0.331,0.259-0.695,0.289-1.068
			C91.299,49.322,88.473,47.482,85.345,46.681z"/>
		<path id="nose_23_" fill="#263238" d="M73.921,73.081c-4.263-0.595-9.585-1.189-12.777,1.778
			c-2.401,2.232-2.177,5.795-0.079,8.216c2.098,2.421,5.689,3.796,9.315,4.276c4.512,0.597,9.539-0.183,12.703-2.833
			c2.564-2.147,3.706-6.117,1.547-8.738c-2.534-3.076-7.938-2.305-11.891-2.7"/>
		<g id="sweat_4_">
			<path fill="#81D4FA" d="M48.423,21.203c0,0-0.132,1.224-0.413,3.03c-0.146,0.901-0.312,1.953-0.523,3.069
				c-0.188,1.124-0.46,2.296-0.709,3.478c-0.274,1.172-0.287,2.44-0.639,3.503c-0.373,1.056-1.004,1.938-1.614,2.669
				c-0.307,0.365-0.623,0.686-0.933,0.96c-0.307,0.275-0.593,0.508-0.855,0.691c-0.512,0.369-0.889,0.549-0.889,0.549l-0.469-0.172
				c0,0-0.172-0.381-0.324-0.994c-0.082-0.308-0.15-0.671-0.206-1.08c-0.06-0.409-0.094-0.859-0.092-1.336
				c0.007-0.952,0.095-2.033,0.492-3.08c0.418-1.04,1.227-2.016,1.775-3.087c0.573-1.062,1.123-2.133,1.706-3.113
				c0.559-0.988,1.112-1.899,1.583-2.68c0.952-1.56,1.642-2.579,1.642-2.579L48.423,21.203z"/>
		</g>
	</g>
</g>
<g id="_x37_-Better_Dog">
</g>
<g id="_x38_-Therapist_Dog">
</g>
<g id="_x39_-_Therapy_Details">
	<g id="text_6_">
	</g>
	<g id="grandad_dog">
	</g>
	<g id="puppy">
	</g>
</g>
<g id="_x31_0-Combining_Therapies">
	<g id="text_7_">
	</g>
	<g id="Isometric_Grid">
	</g>
	<g id="chair_3_">
	</g>
</g>
<g id="_x31_1-Medication_Script">
</g>
<g id="_x31_2-Dog_With_Medication">
</g>
<g id="_x31_3-Medication_Check_Ups">
</g>
<g id="_x31_4-Medication_Side_Effects">
	<g id="shy_dog_1_">
	</g>
</g>
</svg>
